<?xml version="1.0" encoding="UTF-8" ?>
<!DOCTYPE svg PUBLIC "-//W3C//DTD SVG 1.1//EN" "http://www.w3.org/Graphics/SVG/1.1/DTD/svg11.dtd">
<svg width="650pt" height="120pt" viewBox="0 0 650 120" version="1.1" xmlns="http://www.w3.org/2000/svg">
<g id="#9f7e51ff">
<path fill="#9f7e51" opacity="1.00" d=" M 41.98 8.67 C 43.20 8.68 44.43 8.72 45.65 8.77 C 45.72 10.87 45.78 12.97 45.85 15.08 C 47.74 15.64 51.04 14.28 51.86 16.61 C 50.49 17.54 49.05 18.36 47.64 19.25 C 49.27 22.19 52.75 22.83 55.18 24.84 C 58.15 27.35 61.81 28.80 65.01 30.98 C 67.08 32.26 68.97 33.91 71.30 34.72 C 73.82 35.19 76.40 34.99 78.96 35.12 C 78.96 35.67 78.97 36.78 78.98 37.33 C 77.05 37.44 75.13 37.52 73.20 37.60 C 69.41 53.14 66.30 68.85 62.69 84.43 C 62.00 86.22 63.51 87.68 64.18 89.20 C 60.80 89.29 57.42 89.16 54.04 89.27 C 51.29 89.13 49.49 91.56 47.52 93.09 C 48.50 95.80 49.34 98.55 50.33 101.26 C 51.80 101.49 53.27 101.76 54.59 102.49 C 53.14 102.78 51.67 103.03 50.21 103.24 C 47.99 105.87 45.86 108.85 42.97 110.70 C 39.50 107.77 37.58 102.59 32.45 102.33 C 33.72 101.87 35.03 101.48 36.33 101.10 C 37.23 98.46 38.12 95.82 39.00 93.18 C 37.18 91.68 35.53 89.43 32.96 89.34 C 29.96 89.12 26.96 89.26 23.96 89.24 C 24.50 87.39 25.24 85.49 24.63 83.56 C 21.57 69.52 18.35 55.51 15.36 41.45 C 14.90 40.19 15.07 38.50 13.87 37.64 C 12.29 37.46 10.70 37.49 9.11 37.46 C 9.00 36.86 8.78 35.67 8.66 35.07 C 11.58 34.85 14.71 35.50 17.47 34.30 C 24.78 30.03 31.65 25.02 39.18 21.17 C 39.71 20.32 40.16 19.44 40.54 18.52 C 38.98 17.72 37.43 16.92 35.92 16.04 C 37.81 15.50 39.75 15.18 41.68 14.88 C 41.75 12.81 41.84 10.74 41.98 8.67 M 46.06 24.35 C 50.63 27.33 54.84 30.80 59.23 34.02 C 61.58 34.50 64.00 34.19 66.38 34.12 C 61.33 29.67 54.89 27.29 49.80 22.93 C 48.55 23.40 47.30 23.88 46.06 24.35 M 33.32 41.75 C 34.75 57.11 37.43 72.34 39.29 87.65 C 42.38 87.62 45.48 87.52 48.56 87.32 C 50.61 73.54 52.32 59.71 54.31 45.93 C 54.41 44.33 55.35 41.52 52.87 41.35 C 46.44 40.02 39.71 40.28 33.32 41.75 M 19.82 42.81 C 22.82 57.63 25.77 72.47 28.95 87.26 C 30.99 87.24 33.02 87.22 35.05 87.18 C 32.85 72.24 30.55 57.31 28.27 42.37 C 25.44 42.16 22.60 42.24 19.82 42.81 M 59.38 42.38 C 56.90 57.31 54.66 72.29 52.50 87.26 C 54.56 87.24 56.62 87.19 58.67 87.08 C 61.01 75.60 63.36 64.12 65.73 52.64 C 66.42 49.27 67.37 45.91 67.23 42.44 C 64.61 42.30 62.00 42.23 59.38 42.38 Z" />
</g>
<g id="#0e5ba3ff">
<path fill="#0e5ba3" opacity="1.00" d=" M 102.50 26.65 C 108.65 24.41 115.73 25.36 121.40 28.50 C 125.46 30.90 128.97 35.05 129.04 39.97 C 129.30 45.02 126.81 49.64 124.09 53.71 C 126.86 54.72 130.39 55.80 131.09 59.12 C 132.45 65.11 129.42 70.82 127.79 76.42 C 135.54 71.73 141.47 63.45 150.75 61.72 C 150.65 65.47 147.30 67.53 145.21 70.20 C 142.06 74.15 139.25 78.49 137.67 83.31 C 145.10 83.23 148.31 75.52 153.51 71.56 C 156.28 70.42 159.43 70.88 162.36 70.37 C 161.57 72.98 159.96 75.30 159.44 77.99 C 159.61 79.77 162.02 80.78 162.92 78.94 C 166.21 75.96 167.97 69.81 173.34 70.54 C 174.21 74.84 171.43 78.42 170.04 82.25 C 176.58 80.40 183.25 76.51 186.12 70.06 C 188.68 64.89 192.72 60.69 195.76 55.83 C 190.61 55.43 185.40 56.05 180.62 58.06 C 181.08 59.64 181.57 61.22 182.01 62.81 C 179.06 62.25 175.60 60.90 176.05 57.27 C 181.91 54.27 188.55 53.74 195.03 53.97 C 197.37 54.39 198.46 52.09 199.55 50.50 C 202.82 45.25 207.68 41.18 212.78 37.77 C 214.38 36.53 216.62 36.88 218.04 38.23 C 218.50 44.78 213.45 49.74 209.75 54.56 C 212.78 55.21 215.77 56.59 218.90 56.42 C 223.47 53.62 226.64 49.19 230.46 45.54 C 232.18 43.83 234.68 43.76 236.94 43.97 C 236.40 50.31 229.65 52.77 225.56 56.60 C 235.17 60.02 245.15 56.37 254.93 56.11 C 265.84 55.82 276.64 53.92 287.16 51.09 C 289.66 50.58 290.42 47.85 291.57 45.95 C 289.71 45.89 287.87 45.89 286.02 45.86 C 286.07 45.10 286.16 43.57 286.21 42.81 C 290.28 42.47 294.58 43.23 298.42 41.45 C 301.80 40.26 304.96 37.63 308.75 38.30 C 311.59 38.77 313.34 41.57 313.65 44.26 C 314.02 50.32 311.14 56.16 306.56 60.04 C 308.11 65.18 309.23 70.65 308.07 76.01 C 306.89 82.55 301.46 88.06 294.97 89.42 C 289.92 90.30 285.88 84.67 286.61 80.02 C 287.28 75.95 288.75 71.28 293.03 69.76 C 293.77 70.93 294.50 72.12 295.20 73.32 C 292.04 73.57 289.38 75.56 289.80 79.00 C 289.57 83.22 295.04 85.86 298.42 83.57 C 303.99 80.33 306.44 73.22 305.89 67.05 C 305.63 64.03 303.70 59.90 300.06 60.57 C 296.76 61.77 294.38 64.58 292.27 67.25 C 287.33 74.51 282.23 81.78 275.83 87.84 C 274.72 89.17 273.07 89.61 271.40 89.55 C 272.00 87.06 273.99 85.43 275.79 83.78 C 281.01 79.08 284.62 72.97 288.38 67.12 C 286.43 67.56 284.46 67.99 282.47 68.24 C 283.72 64.91 287.34 63.78 290.16 62.16 C 294.47 60.03 298.01 56.60 300.68 52.63 C 302.29 50.49 303.33 47.63 306.08 46.68 C 306.44 51.17 302.95 54.42 301.15 58.18 C 305.14 57.85 308.00 54.85 309.15 51.16 C 309.96 48.38 311.86 44.75 309.63 42.19 C 306.19 40.43 302.32 42.65 299.37 44.45 C 298.38 47.66 299.08 51.30 297.25 54.28 C 295.31 57.54 292.00 60.32 288.13 60.78 C 284.95 60.35 285.34 56.91 285.32 54.51 C 274.64 56.76 263.74 57.46 252.91 58.58 C 245.30 59.24 237.69 61.54 230.03 60.08 C 227.24 59.80 223.96 58.37 221.54 60.48 C 218.92 62.98 217.05 66.13 215.09 69.14 C 210.82 76.01 205.18 81.85 200.23 88.19 C 199.14 89.76 197.58 90.83 195.75 91.37 C 195.06 88.60 196.69 86.34 198.50 84.46 C 205.74 76.97 212.18 68.52 216.59 59.04 C 213.07 57.76 208.37 56.14 205.42 59.45 C 201.65 63.64 198.13 68.14 193.52 71.49 C 190.17 74.42 185.12 76.34 184.23 81.20 C 183.10 83.92 186.17 86.51 188.77 85.59 C 193.62 85.30 196.16 80.68 200.17 78.68 C 197.87 84.27 191.90 87.93 185.98 88.29 C 184.28 88.22 181.37 88.06 181.38 85.79 C 181.13 83.57 181.28 81.34 181.27 79.12 C 176.14 81.56 171.41 84.90 165.85 86.37 C 164.27 82.42 168.82 79.56 169.17 75.72 C 165.87 76.65 164.41 80.06 161.69 81.85 C 159.52 82.29 157.38 81.41 155.27 81.03 C 153.42 82.58 151.65 84.75 149.07 84.91 C 147.51 84.59 146.24 83.58 144.88 82.84 C 141.95 84.53 138.86 86.45 135.32 85.84 C 133.81 81.63 135.62 77.50 137.16 73.62 C 131.71 76.49 127.27 80.93 121.86 83.86 C 119.53 84.67 117.59 81.26 119.73 79.81 C 124.64 74.83 127.22 67.95 127.51 61.03 C 127.42 56.83 120.63 56.66 119.08 60.09 C 112.00 71.11 103.20 80.84 95.05 91.05 C 91.79 95.19 86.80 98.77 81.27 97.94 C 78.69 96.46 77.73 92.87 79.04 90.24 C 81.98 83.58 87.28 78.40 92.51 73.51 C 98.62 67.96 104.54 61.98 111.75 57.83 C 117.56 54.97 124.04 50.92 125.14 43.97 C 126.49 36.25 119.60 29.16 112.04 29.01 C 105.96 28.29 101.67 33.25 96.87 36.03 C 96.67 32.12 98.72 28.09 102.50 26.65 M 201.45 54.11 C 203.66 54.30 206.55 55.46 208.18 53.28 C 210.88 49.98 214.12 46.42 214.24 41.93 C 208.27 43.50 204.53 49.15 201.45 54.11 M 288.08 57.47 C 292.97 57.32 296.86 52.15 294.94 47.44 C 291.39 49.70 289.26 53.53 288.08 57.47 M 198.06 58.06 C 195.20 61.81 192.61 65.84 190.77 70.20 C 196.62 66.99 201.00 61.78 205.20 56.72 C 202.76 56.20 199.77 55.77 198.06 58.06 M 88.29 83.32 C 85.63 86.51 82.44 89.89 82.47 94.33 C 86.94 93.68 90.31 90.43 93.28 87.29 C 100.24 79.75 107.41 72.16 112.18 62.98 C 103.10 68.29 95.32 75.56 88.29 83.32 M 149.51 82.05 C 153.04 80.11 156.40 77.04 157.04 72.87 C 153.54 74.79 149.96 77.83 149.51 82.05 Z" />
<path fill="#0e5ba3" opacity="1.00" d=" M 458.84 53.94 C 464.69 45.03 469.98 35.75 476.15 27.05 C 479.21 29.04 476.90 32.61 476.17 35.22 C 473.49 43.66 470.04 51.86 467.77 60.41 C 470.86 58.47 472.33 55.00 474.34 52.10 C 475.18 52.36 476.04 52.63 476.89 52.91 C 474.50 58.17 471.32 63.20 466.54 66.60 C 462.27 69.63 460.75 75.01 460.79 80.02 C 460.86 87.80 458.34 95.30 455.40 102.41 C 453.58 106.01 451.41 110.20 447.20 111.35 C 446.32 106.79 448.10 102.41 449.19 98.07 C 451.15 90.92 453.93 83.99 457.43 77.45 C 459.02 74.58 459.78 71.26 458.99 68.02 C 457.34 68.21 455.41 67.85 454.10 69.10 C 450.08 72.79 447.78 78.03 443.50 81.48 C 442.00 82.72 439.08 82.61 439.36 80.08 C 442.47 76.25 446.12 72.90 449.44 69.26 C 448.52 67.72 446.79 66.22 447.39 64.23 C 448.28 59.32 449.54 53.89 453.47 50.48 C 455.89 49.44 457.20 52.70 458.84 53.94 M 460.92 56.94 C 459.28 59.38 460.37 62.32 460.96 64.90 C 462.18 64.18 463.60 63.50 464.02 62.01 C 466.46 56.10 467.77 49.77 469.03 43.53 C 465.84 47.68 463.62 52.48 460.92 56.94 M 450.82 65.41 C 454.17 64.21 456.83 60.40 456.01 56.80 C 451.99 56.41 449.62 61.93 450.82 65.41 M 456.26 63.32 C 455.76 64.96 456.31 65.52 457.93 64.99 C 458.42 63.34 457.86 62.78 456.26 63.32 M 451.45 96.46 C 450.48 98.29 450.84 100.39 451.01 102.35 C 452.12 101.72 453.20 100.93 453.65 99.67 C 455.77 95.20 457.35 90.32 457.11 85.31 C 454.72 88.75 453.15 92.66 451.45 96.46 Z" />
<path fill="#0e5ba3" opacity="1.00" d=" M 582.83 46.83 C 584.41 45.16 586.48 43.46 588.94 43.78 C 590.33 43.64 591.41 45.46 590.40 46.56 C 587.72 50.88 583.01 53.27 579.51 56.83 C 584.75 58.17 590.23 58.52 595.56 57.51 C 606.04 55.70 616.78 56.27 627.21 54.14 C 632.14 53.27 636.94 51.76 641.88 50.92 C 641.93 51.63 642.03 53.06 642.08 53.77 C 632.82 55.93 623.40 57.15 613.92 57.80 C 603.63 58.40 593.43 61.84 583.08 59.98 C 580.56 59.75 577.58 58.47 575.42 60.39 C 572.85 62.90 570.94 65.99 569.04 69.02 C 564.59 76.37 558.38 82.39 553.24 89.23 C 552.59 90.32 550.59 92.02 549.73 90.32 C 548.32 89.04 549.80 87.73 550.62 86.65 C 558.12 78.19 565.76 69.49 570.42 59.06 C 558.83 55.99 546.11 53.88 534.52 57.99 C 535.13 59.70 535.78 61.40 536.40 63.11 C 533.75 62.49 530.92 61.51 529.60 58.92 C 529.84 57.78 530.50 56.99 531.59 56.57 C 534.78 54.94 538.34 54.11 541.92 54.02 C 552.24 53.80 562.70 54.07 572.71 56.82 C 576.35 53.77 579.58 50.28 582.83 46.83 Z" />
<path fill="#0e5ba3" opacity="1.00" d=" M 356.45 62.33 C 357.07 62.05 358.31 61.49 358.93 61.20 C 358.78 64.27 358.60 67.33 358.47 70.39 C 356.79 68.05 356.10 65.19 356.45 62.33 Z" />
<path fill="#0e5ba3" opacity="1.00" d=" M 341.29 68.29 C 341.95 66.21 344.78 68.18 344.10 69.78 C 343.02 71.46 341.48 72.81 340.54 74.59 C 339.39 77.16 339.86 80.05 339.96 82.76 C 346.09 80.00 351.25 75.41 356.27 71.00 C 355.92 74.52 352.65 76.83 352.39 80.37 C 356.33 78.53 358.93 74.81 362.74 72.76 C 364.07 71.84 365.67 72.57 367.12 72.74 C 366.62 74.75 366.09 76.75 365.71 78.78 C 369.11 76.97 371.78 72.93 376.07 73.64 C 375.76 76.10 375.29 78.53 375.03 80.99 C 377.49 80.54 380.17 79.87 381.80 77.79 C 383.94 74.91 384.51 70.79 387.80 68.83 C 389.67 67.42 392.36 67.32 394.22 68.83 C 395.74 71.15 393.73 73.52 392.21 75.20 C 390.30 77.49 387.61 78.84 385.10 80.34 C 384.80 82.96 388.18 82.28 389.78 81.88 C 396.51 79.67 400.62 73.28 404.16 67.55 C 404.71 67.60 405.79 67.69 406.34 67.74 C 407.12 70.21 404.77 71.75 403.55 73.54 C 401.14 76.12 402.52 79.92 402.29 83.08 C 409.05 80.03 413.13 73.45 417.15 67.56 C 419.05 67.28 419.77 68.03 419.32 69.82 C 418.17 71.77 416.38 73.28 415.42 75.35 C 414.71 77.87 415.22 80.53 415.21 83.10 C 417.59 81.82 419.83 80.31 422.20 79.03 C 420.58 81.81 417.99 83.77 415.33 85.47 C 413.13 86.90 412.23 89.75 409.81 90.89 C 408.51 91.06 407.21 91.13 405.91 91.11 C 406.30 87.86 408.98 86.09 411.49 84.47 C 414.10 82.86 413.59 79.46 413.66 76.86 C 409.89 79.36 406.74 82.67 402.92 85.09 C 400.61 86.34 399.55 88.90 397.61 90.57 C 396.24 90.89 394.86 91.09 393.46 91.17 C 393.35 87.33 397.11 85.77 399.39 83.40 C 401.21 81.77 400.46 79.13 400.53 77.01 C 396.16 79.79 392.45 84.27 386.98 84.77 C 384.28 84.89 383.41 81.82 382.17 79.99 C 378.98 81.98 375.54 84.00 371.63 83.75 C 370.98 82.10 370.35 80.44 369.71 78.79 C 365.57 81.35 362.35 85.26 357.83 87.18 C 357.23 83.67 360.06 80.97 360.65 77.67 C 356.57 78.76 353.85 82.49 349.65 83.31 C 349.54 82.23 349.31 80.08 349.19 79.00 C 345.78 80.88 342.97 83.61 339.67 85.66 C 337.61 86.94 336.81 89.54 334.72 90.76 C 333.38 91.00 332.03 91.15 330.67 91.19 C 331.04 87.28 334.86 85.71 337.27 83.21 C 338.90 81.46 338.55 78.96 338.22 76.81 C 334.73 79.99 330.66 82.53 325.99 83.50 C 325.59 82.95 324.80 81.86 324.40 81.31 C 320.48 83.47 316.00 85.31 311.44 84.63 C 308.86 83.48 310.24 80.22 311.75 78.74 C 314.56 75.79 318.12 73.07 322.28 72.54 C 320.95 77.44 314.03 78.01 313.56 83.32 C 318.00 83.40 321.85 80.88 324.46 77.45 C 325.62 75.64 327.75 75.22 329.70 74.79 C 328.64 76.91 327.44 78.97 326.57 81.18 C 333.94 80.96 337.57 73.57 341.29 68.29 M 385.57 77.17 C 388.27 75.97 391.16 74.20 391.27 70.88 C 387.83 71.11 386.14 74.12 385.57 77.17 Z" />
<path fill="#0e5ba3" opacity="1.00" d=" M 493.01 67.21 C 493.60 67.50 494.79 68.08 495.38 68.37 C 494.46 70.95 492.41 72.87 491.25 75.32 C 490.51 77.82 490.78 80.47 490.78 83.04 C 492.39 82.26 494.08 81.59 495.53 80.51 C 497.59 78.85 498.48 76.16 500.55 74.52 C 503.47 72.51 507.17 72.95 510.51 72.58 C 510.48 75.33 509.79 78.00 509.22 80.68 C 513.98 76.81 517.88 69.16 525.16 70.95 C 524.57 72.32 524.53 74.19 523.03 74.94 C 521.03 75.87 518.70 75.72 516.75 76.73 C 514.27 78.93 512.58 81.94 511.40 85.01 C 512.21 88.98 517.04 86.67 519.28 85.27 C 524.60 81.27 530.38 77.87 535.39 73.45 C 536.28 72.71 537.25 72.07 538.30 71.55 C 537.27 74.80 534.62 77.21 533.67 80.50 C 538.89 79.22 540.35 72.92 545.04 70.70 C 547.52 70.61 550.02 70.72 552.51 70.69 C 551.93 73.61 548.58 76.51 550.22 79.49 C 551.64 79.76 553.08 79.38 554.51 79.34 C 553.36 80.31 552.45 81.78 550.93 82.15 C 549.25 81.97 547.65 81.43 546.01 81.14 C 543.80 82.12 542.19 84.10 539.93 85.00 C 537.05 84.36 534.59 82.29 531.49 82.42 C 531.43 81.24 531.38 80.07 531.33 78.89 C 527.04 81.32 523.05 84.22 518.93 86.92 C 516.41 88.58 512.81 89.73 510.13 87.83 C 508.87 86.06 509.65 83.67 509.51 81.65 C 504.76 83.45 501.65 88.82 496.11 88.53 C 494.68 87.46 494.85 85.40 494.20 83.88 C 491.29 84.82 489.11 86.92 487.48 89.45 C 486.29 91.49 483.63 90.90 481.68 91.16 C 482.14 87.31 485.91 85.73 488.30 83.24 C 490.02 81.67 489.22 79.13 489.30 77.11 C 485.32 79.44 482.16 82.86 478.31 85.37 C 476.01 86.70 475.12 89.57 472.74 90.79 C 471.39 91.01 470.02 91.15 468.66 91.18 C 469.26 86.53 474.51 85.23 476.45 81.34 C 478.02 81.64 479.89 82.71 481.27 81.35 C 486.13 77.52 489.87 72.49 493.01 67.21 M 539.65 81.71 C 543.50 80.61 545.91 77.05 547.28 73.51 C 543.49 74.57 540.54 77.92 539.65 81.71 M 503.42 76.33 C 500.49 78.49 498.60 81.75 497.73 85.25 C 502.38 85.62 505.56 81.74 507.25 77.90 C 506.05 77.24 504.93 75.84 503.42 76.33 Z" />
<path fill="#0e5ba3" opacity="1.00" d=" M 225.63 80.40 C 230.26 77.75 233.56 71.28 239.62 72.42 C 239.35 74.41 238.89 76.37 238.53 78.35 C 241.85 76.85 244.45 73.63 248.36 73.78 C 248.17 76.04 247.69 78.27 247.18 80.48 C 249.70 80.85 252.06 79.82 254.43 79.14 C 251.98 82.44 247.90 84.24 243.81 83.59 C 243.44 81.96 243.07 80.33 242.69 78.71 C 238.38 81.06 235.19 84.98 230.80 87.22 C 230.48 83.76 232.60 80.90 233.47 77.71 C 229.57 78.56 226.81 81.78 223.01 82.97 C 219.40 85.55 215.76 89.60 210.79 88.13 C 210.76 83.56 212.72 79.05 215.58 75.56 C 218.35 72.43 222.79 73.00 226.53 72.87 C 226.37 75.40 225.95 77.89 225.63 80.40 M 213.76 85.33 C 217.72 85.30 221.43 82.57 222.74 78.86 C 223.12 77.25 221.58 76.09 220.14 75.97 C 216.72 77.95 214.73 81.62 213.76 85.33 Z" />
<path fill="#0e5ba3" opacity="1.00" d=" M 565.48 81.02 C 568.81 77.22 573.29 74.65 577.27 71.59 C 576.55 74.82 574.07 77.20 572.80 80.18 C 576.39 80.22 577.45 76.73 579.47 74.51 C 582.36 72.38 586.25 73.13 589.62 72.70 C 589.24 75.33 588.68 77.93 588.20 80.55 C 593.02 77.93 596.05 71.62 602.22 72.15 C 601.98 74.34 601.48 76.49 601.07 78.65 C 604.51 76.97 607.17 73.34 611.31 73.52 C 611.02 76.02 610.50 78.48 610.14 80.97 C 612.62 80.51 615.01 79.69 617.45 79.04 C 614.85 82.15 610.92 84.23 606.80 83.61 C 606.28 81.97 605.80 80.32 605.26 78.69 C 601.17 81.09 598.21 85.34 593.47 86.56 C 593.82 83.42 595.33 80.62 596.27 77.65 C 592.74 78.71 589.99 81.32 586.58 82.65 C 582.63 84.86 579.21 89.39 574.15 88.26 C 573.98 86.54 573.86 84.82 573.80 83.10 C 572.66 83.00 571.53 82.91 570.41 82.81 C 570.36 81.95 570.25 80.22 570.19 79.36 C 568.63 79.96 567.08 80.56 565.48 81.02 M 576.72 85.34 C 581.12 85.31 587.08 80.98 584.88 76.17 C 579.93 75.90 577.92 81.46 576.72 85.34 Z" />
</g>
<g id="#ce611dd8">
<path fill="#ce611d" opacity="0.85" d=" M 42.00 53.84 C 42.94 51.92 43.76 49.96 44.52 47.96 C 45.24 50.03 46.02 52.07 47.02 54.02 C 45.35 53.94 43.67 53.88 42.00 53.84 Z" />
</g>
<g id="#f9c721ff">
<path fill="#f9c721" opacity="1.00" d=" M 41.06 53.82 L 42.00 53.84 C 43.67 53.88 45.35 53.94 47.02 54.02 C 47.51 56.23 46.88 59.31 44.01 59.05 C 40.95 59.38 40.82 55.98 41.06 53.82 Z" />
</g>
<g id="#8b0b04ff">
<path fill="#8b0b04" opacity="1.00" d=" M 41.19 60.20 C 43.11 60.10 45.04 60.01 46.96 59.95 C 47.04 69.09 47.00 78.24 46.98 87.38 C 45.05 87.30 42.97 87.83 41.19 86.83 C 40.54 85.29 40.75 83.60 40.71 81.98 C 40.79 74.72 40.60 67.44 41.19 60.20 Z" />
</g>
<g id="#0e5aa2fd">
<path fill="#0e5aa2" opacity="1.00" d=" M 577.68 61.86 C 578.55 61.00 579.26 61.11 579.81 62.18 C 579.74 64.66 579.26 67.10 578.90 69.54 C 577.64 67.24 576.56 64.42 577.68 61.86 Z" />
<path fill="#0e5aa2" opacity="1.00" d=" M 538.20 62.22 C 538.89 61.99 540.27 61.53 540.96 61.30 C 540.75 64.31 540.59 67.32 540.46 70.33 C 539.05 67.86 537.95 65.12 538.20 62.22 Z" />
<path fill="#0e5aa2" opacity="1.00" d=" M 480.16 67.11 C 481.00 67.70 481.85 68.30 482.70 68.90 C 480.52 71.99 478.18 75.09 477.56 78.94 C 476.80 78.47 476.04 77.99 475.29 77.52 C 473.57 78.91 471.78 80.22 469.82 81.25 C 472.96 76.30 477.38 72.31 480.16 67.11 Z" />
</g>
<g id="#041b304c">
<path fill="#041b30" opacity="0.30" d=" M 456.26 63.32 C 457.86 62.78 458.42 63.34 457.93 64.99 C 456.31 65.52 455.76 64.96 456.26 63.32 Z" />
</g>
</svg>
