<?xml version="1.0" encoding="UTF-8" ?>
<!DOCTYPE svg PUBLIC "-//W3C//DTD SVG 1.1//EN" "http://www.w3.org/Graphics/SVG/1.1/DTD/svg11.dtd">
<svg width="1638pt" height="438pt" viewBox="0 0 1638 438" version="1.1" xmlns="http://www.w3.org/2000/svg">
<g id="#ffffffff">
</g>
<g id="#263077ff">
<path fill="#263077" opacity="1.00" d=" M 1086.70 55.75 C 1089.70 52.95 1093.87 53.76 1097.60 53.63 C 1097.65 54.72 1097.68 55.82 1097.69 56.91 C 1092.11 67.79 1086.72 78.80 1081.83 90.01 C 1079.45 97.71 1075.40 104.74 1072.98 112.42 C 1071.52 117.56 1068.40 122.59 1069.91 128.10 C 1070.04 127.71 1070.31 126.94 1070.44 126.56 C 1072.17 126.18 1073.88 125.78 1075.64 125.41 C 1075.41 127.11 1075.07 128.78 1074.48 130.38 C 1072.95 130.58 1071.28 130.38 1070.00 131.38 C 1066.77 131.66 1063.53 131.64 1060.30 131.48 C 1060.03 128.16 1060.66 124.88 1061.61 121.72 C 1064.17 120.66 1062.80 116.84 1065.32 115.49 C 1064.99 115.62 1064.34 115.89 1064.01 116.03 C 1063.44 117.61 1062.86 119.20 1062.32 120.79 C 1061.86 120.65 1060.93 120.37 1060.47 120.23 L 1060.49 121.23 C 1054.97 123.34 1050.48 127.46 1045.36 130.36 C 1041.91 131.96 1038.09 131.73 1034.41 131.50 C 1033.81 130.88 1033.21 130.26 1032.63 129.64 C 1032.39 128.08 1032.15 126.52 1031.88 124.97 C 1031.93 118.69 1035.20 113.21 1038.09 107.85 C 1042.43 99.85 1049.68 93.31 1058.50 90.74 C 1063.01 90.00 1067.59 91.15 1072.12 90.60 C 1074.09 89.62 1074.20 86.89 1075.16 85.06 C 1076.13 80.71 1078.77 77.00 1080.07 72.76 C 1081.66 66.81 1086.38 62.10 1086.70 55.75 M 1057.95 96.06 C 1053.28 97.52 1050.18 101.74 1048.18 105.98 C 1045.40 111.89 1042.15 117.94 1042.32 124.67 C 1044.26 124.41 1046.33 124.23 1048.00 123.06 C 1054.30 119.11 1058.27 112.63 1063.48 107.50 C 1065.60 105.36 1067.41 102.93 1068.98 100.36 C 1070.18 98.57 1070.16 95.69 1068.13 94.52 C 1064.66 94.07 1061.23 95.07 1057.95 96.06 Z" />
<path fill="#263077" opacity="1.00" d=" M 1138.74 55.64 C 1142.00 53.59 1145.87 54.36 1149.45 54.85 C 1149.92 57.54 1147.81 59.39 1146.59 61.52 C 1141.03 73.31 1135.79 85.29 1131.17 97.45 C 1130.44 97.89 1129.70 98.24 1128.92 98.51 L 1129.25 99.74 C 1129.43 100.04 1129.80 100.64 1129.99 100.94 C 1131.31 99.37 1132.50 97.56 1134.52 96.75 C 1138.14 95.05 1141.05 92.03 1144.96 90.95 C 1149.02 89.83 1153.22 88.66 1157.47 89.54 C 1157.35 94.70 1158.13 99.94 1157.26 105.04 C 1153.54 112.81 1148.96 120.47 1141.95 125.70 C 1139.41 127.35 1136.63 128.57 1134.09 130.19 C 1129.50 131.58 1124.41 132.29 1119.91 130.23 C 1115.60 127.43 1110.87 130.87 1106.32 130.70 C 1106.38 130.17 1106.52 129.10 1106.58 128.57 C 1109.72 124.04 1113.48 119.72 1115.00 114.31 C 1115.83 110.65 1118.30 107.70 1119.55 104.21 C 1120.79 100.83 1121.72 97.34 1123.18 94.04 C 1124.16 92.00 1125.02 89.90 1125.81 87.77 C 1128.65 79.77 1132.07 72.00 1135.16 64.08 C 1136.41 61.30 1137.77 58.55 1138.74 55.64 M 1144.11 96.98 C 1137.00 101.05 1131.22 107.14 1126.63 113.86 C 1124.39 117.00 1120.16 119.77 1121.39 124.20 C 1123.87 126.57 1127.78 125.74 1130.80 125.01 C 1137.96 123.74 1142.20 116.94 1145.34 111.00 C 1146.53 106.14 1147.84 101.25 1147.77 96.21 C 1146.85 96.40 1145.02 96.79 1144.11 96.98 Z" />
<path fill="#263077" opacity="1.00" d=" M 684.81 66.76 C 691.80 65.55 698.95 65.57 706.00 66.31 C 714.35 66.12 722.71 66.43 731.06 66.23 C 732.53 65.94 733.68 66.78 734.73 67.71 C 734.30 68.34 733.46 69.60 733.03 70.23 C 725.52 73.10 717.37 70.58 709.76 72.55 C 707.63 74.69 708.90 78.06 707.61 80.60 C 704.75 86.25 702.97 92.35 700.87 98.30 C 696.80 108.64 693.73 119.46 687.88 128.98 C 685.58 132.03 681.48 131.63 678.11 131.51 C 678.02 127.85 680.58 124.96 681.68 121.63 C 681.79 121.49 682.02 121.21 682.13 121.07 C 685.90 107.74 692.44 95.38 696.06 82.00 C 697.30 78.13 700.51 75.35 702.07 71.64 C 696.80 72.01 690.26 69.72 686.14 74.10 C 684.02 76.78 683.65 80.35 682.16 83.37 C 680.26 83.52 678.37 83.55 676.48 83.46 C 675.87 79.35 678.23 75.79 679.97 72.29 C 681.13 70.13 682.59 67.95 684.81 66.76 Z" />
<path fill="#263077" opacity="1.00" d=" M 860.00 66.84 C 867.32 66.94 874.63 65.88 881.95 66.56 C 887.98 67.25 894.07 65.97 900.09 66.82 C 902.40 68.34 904.39 70.57 905.46 73.14 C 905.86 77.80 903.66 82.13 900.79 85.65 C 897.58 90.13 893.14 93.77 887.97 95.72 C 885.33 96.76 882.31 97.98 881.41 100.97 C 880.51 104.28 882.71 107.18 883.88 110.11 C 885.15 112.69 886.25 115.37 886.88 118.19 C 886.99 118.24 887.21 118.34 887.32 118.40 C 888.46 122.22 891.29 125.34 895.08 126.68 C 896.29 126.27 897.54 125.88 898.78 125.47 C 897.13 127.13 895.93 129.15 894.99 131.28 C 890.91 131.69 886.80 131.80 882.72 131.58 C 876.22 126.31 875.37 117.57 872.74 110.21 C 871.21 107.65 870.86 103.87 867.71 102.80 C 867.43 104.54 866.72 106.12 865.74 107.56 C 864.95 110.33 864.34 113.14 863.72 115.95 C 862.71 120.70 859.38 124.47 858.04 129.10 C 854.56 130.47 850.83 130.66 847.15 130.43 C 850.69 122.70 854.32 115.00 857.16 106.97 C 858.74 101.42 862.06 96.47 862.89 90.67 C 865.21 83.39 870.34 77.18 870.91 69.33 C 869.30 69.33 867.72 69.42 866.14 69.54 C 867.26 69.97 869.00 69.64 869.78 70.72 C 866.20 70.52 862.77 69.25 859.34 68.26 C 859.51 67.90 859.84 67.20 860.00 66.84 M 878.02 74.93 C 875.25 79.45 877.32 85.09 874.43 89.56 C 873.55 90.05 872.68 90.54 871.82 91.03 C 871.09 92.81 870.48 94.65 870.05 96.53 C 873.46 96.25 876.95 96.17 880.26 95.12 C 883.41 93.92 885.59 91.21 888.07 89.05 C 892.05 85.89 894.54 81.08 895.45 76.14 C 893.98 71.81 889.06 70.33 885.03 69.52 C 881.57 68.75 879.42 72.37 878.02 74.93 Z" />
<path fill="#263077" opacity="1.00" d=" M 980.73 70.63 C 982.91 69.87 985.16 69.37 987.48 69.21 C 987.65 69.68 988.00 70.62 988.17 71.09 C 985.83 76.23 983.54 81.58 979.71 85.83 C 979.24 87.39 978.74 88.94 978.31 90.50 C 981.25 90.66 984.20 90.71 987.16 90.60 C 989.08 91.30 990.75 92.52 991.93 94.21 C 986.90 94.89 981.83 94.58 976.79 94.35 C 973.98 97.93 973.69 102.61 971.63 106.56 C 970.67 108.30 970.48 110.30 970.32 112.24 C 969.08 114.46 967.90 116.71 966.69 118.94 C 965.77 121.19 964.87 123.65 966.47 125.86 C 970.23 125.48 973.91 124.49 977.72 124.49 C 977.65 125.73 977.59 126.97 977.53 128.22 C 975.97 128.73 974.49 129.40 973.17 130.36 C 969.23 131.70 965.00 131.53 960.91 131.41 C 959.57 131.38 958.59 130.34 957.49 129.75 C 957.41 123.65 958.63 117.61 960.02 111.69 C 962.46 106.32 966.14 101.43 966.92 95.40 C 965.02 95.44 963.20 95.09 961.45 94.43 C 961.36 93.48 961.29 92.54 961.22 91.60 C 961.89 91.38 963.22 90.95 963.88 90.73 C 966.68 92.30 969.99 90.93 971.34 88.15 C 973.06 81.70 976.57 75.80 980.73 70.63 Z" />
<path fill="#263077" opacity="1.00" d=" M 465.31 100.42 C 472.69 90.79 486.18 86.92 497.67 90.45 C 502.29 93.25 504.31 99.22 503.17 104.42 C 500.33 112.42 496.22 120.27 489.54 125.72 C 486.06 128.15 482.06 129.68 478.19 131.35 C 474.11 131.58 469.79 132.22 465.93 130.50 C 463.27 129.56 461.35 127.40 459.49 125.38 C 457.99 116.78 458.91 106.94 465.31 100.42 M 480.77 95.02 C 476.57 97.24 473.56 101.14 471.70 105.44 C 469.60 110.13 466.84 115.15 467.81 120.46 C 470.08 124.75 475.44 126.69 480.04 125.43 C 486.25 123.08 488.40 116.32 491.30 110.99 C 492.02 107.30 492.79 103.61 493.25 99.88 C 491.98 94.38 485.35 93.10 480.77 95.02 Z" />
<path fill="#263077" opacity="1.00" d=" M 519.56 90.67 C 525.96 90.93 532.29 89.75 538.67 89.51 C 539.54 93.39 536.46 96.37 535.31 99.81 C 532.49 107.20 529.56 114.54 526.90 122.00 C 526.47 124.35 525.54 126.69 523.71 128.31 C 521.95 129.13 520.06 129.62 518.24 130.29 C 516.94 130.33 515.64 130.35 514.36 130.38 C 514.35 125.98 517.75 122.69 518.93 118.62 C 521.61 112.84 521.98 105.98 526.24 100.99 C 527.81 99.06 528.20 96.54 528.86 94.21 C 525.02 94.40 521.17 94.75 517.33 94.51 C 517.47 92.91 518.29 91.63 519.56 90.67 Z" />
<path fill="#263077" opacity="1.00" d=" M 555.80 92.38 C 562.24 89.55 569.51 89.28 576.42 89.83 C 579.92 90.12 580.77 94.22 580.39 97.10 C 579.08 101.12 577.55 105.43 573.85 107.88 C 570.21 110.11 567.19 113.31 563.22 114.99 C 562.85 120.63 571.46 119.74 571.70 125.04 C 570.93 130.26 569.73 135.97 565.55 139.60 C 561.72 144.53 555.46 146.04 549.99 148.38 C 543.96 149.39 537.81 148.28 531.73 148.49 C 530.03 147.12 528.66 145.44 527.57 143.57 C 527.59 142.48 527.60 141.38 527.61 140.29 C 528.69 139.51 529.53 138.07 531.03 138.12 C 535.17 137.89 537.29 142.27 540.99 143.30 C 545.45 144.82 550.03 142.93 554.12 141.20 C 557.87 137.75 561.81 133.47 561.77 128.03 C 560.13 125.27 558.92 121.69 555.64 120.47 C 552.94 119.37 548.72 118.39 549.21 114.62 C 552.80 113.49 556.58 113.23 560.25 112.45 C 562.83 109.32 565.61 106.36 568.68 103.71 C 570.46 101.96 572.52 98.88 570.67 96.51 C 568.56 92.67 562.41 92.28 559.50 95.35 C 556.83 97.64 556.49 101.72 553.40 103.63 C 551.62 105.16 549.16 104.27 547.29 103.44 C 547.52 101.18 546.84 98.45 548.54 96.63 C 550.33 94.33 553.22 93.46 555.80 92.38 Z" />
<path fill="#263077" opacity="1.00" d=" M 916.72 97.58 C 923.16 90.77 933.05 89.20 942.00 89.36 C 944.99 88.95 947.07 92.41 946.23 95.04 C 945.65 98.30 945.24 101.65 943.72 104.65 C 941.84 108.29 941.45 112.64 938.71 115.82 C 937.29 117.98 934.65 119.45 934.32 122.19 C 936.29 125.48 940.27 126.03 943.78 125.68 C 943.64 127.19 943.50 128.70 943.35 130.21 C 939.30 131.37 935.08 132.13 930.88 131.35 C 929.53 128.94 928.25 125.39 924.90 125.56 C 921.44 126.93 919.08 130.11 915.69 131.55 C 912.31 131.77 908.58 132.25 905.61 130.26 C 904.82 127.46 903.15 124.01 905.38 121.45 C 906.93 119.27 907.93 116.73 909.64 114.66 C 911.94 112.71 915.06 112.16 917.52 110.43 C 921.53 107.55 926.71 107.84 931.41 107.42 C 934.99 106.23 937.84 102.90 937.42 98.97 C 937.81 95.12 932.87 94.48 929.98 94.40 C 926.67 97.46 923.00 100.11 919.93 103.43 C 918.49 103.44 917.07 103.42 915.65 103.40 C 915.61 101.41 915.21 99.18 916.72 97.58 M 918.36 115.44 C 916.25 118.32 912.85 120.90 913.15 124.83 C 915.55 124.79 918.31 125.13 920.09 123.12 C 923.59 120.08 930.21 119.10 929.81 113.18 C 925.99 113.52 921.00 111.74 918.36 115.44 Z" />
<path fill="#263077" opacity="1.00" d=" M 1007.03 94.10 C 1011.66 89.97 1018.13 89.82 1023.98 89.41 C 1026.49 89.08 1028.73 90.23 1030.62 91.76 C 1030.65 94.24 1031.22 96.97 1029.92 99.24 C 1025.46 105.30 1018.00 108.83 1010.49 108.65 C 1010.49 108.06 1010.49 106.90 1010.49 106.31 C 1013.74 103.35 1018.30 102.31 1021.32 99.06 C 1022.24 97.43 1020.99 95.78 1020.44 94.28 C 1018.52 94.36 1016.62 94.43 1014.73 94.49 C 1012.49 96.35 1010.01 98.13 1008.55 100.71 C 1005.82 107.49 1000.82 113.56 1000.68 121.18 C 1002.13 125.02 1006.42 125.18 1009.91 124.73 C 1014.61 124.75 1017.44 119.03 1022.43 120.49 C 1022.41 121.00 1022.39 122.02 1022.38 122.53 C 1019.83 124.96 1017.22 127.40 1014.20 129.23 C 1009.33 131.88 1003.54 132.11 998.18 131.29 C 995.17 129.97 993.11 127.24 990.75 125.06 C 990.36 122.07 989.53 118.81 991.00 115.98 C 992.09 113.71 993.16 111.42 994.19 109.11 C 997.15 103.16 1002.06 98.40 1007.03 94.10 Z" />
<path fill="#263077" opacity="1.00" d=" M 1197.70 98.60 C 1200.67 94.88 1203.26 90.49 1207.86 88.57 C 1208.76 88.58 1210.56 88.62 1211.46 88.64 C 1211.48 89.52 1211.52 91.30 1211.53 92.18 C 1205.09 101.11 1197.60 109.18 1190.79 117.81 C 1184.07 125.60 1178.78 134.44 1172.69 142.69 C 1169.43 147.17 1165.89 151.78 1160.71 154.11 C 1155.92 155.84 1150.44 157.71 1145.54 155.32 C 1145.46 153.75 1145.40 152.19 1145.38 150.62 C 1150.46 148.59 1156.49 150.83 1161.21 147.30 C 1167.13 142.19 1170.64 134.96 1174.44 128.25 C 1174.51 117.75 1174.42 107.26 1174.51 96.76 C 1174.10 96.25 1173.27 95.23 1172.86 94.72 C 1171.81 94.59 1170.77 94.44 1169.76 94.28 C 1169.14 94.02 1167.90 93.49 1167.28 93.23 C 1167.35 92.37 1167.43 91.51 1167.53 90.66 C 1171.34 90.25 1175.15 89.63 1179.00 89.80 C 1180.79 90.16 1182.61 90.42 1184.44 90.69 C 1185.32 98.92 1182.64 107.01 1183.32 115.27 C 1185.04 114.85 1185.95 113.25 1187.00 111.98 C 1190.41 107.40 1194.11 103.04 1197.70 98.60 Z" />
<path fill="#263077" opacity="1.00" d=" M 424.27 95.23 C 432.25 89.55 442.56 88.30 452.07 89.76 C 452.88 90.80 453.70 91.84 454.54 92.88 C 455.30 99.66 451.01 105.82 445.95 109.89 C 442.02 113.54 437.45 116.36 432.84 119.05 C 430.53 120.24 429.00 122.39 427.79 124.63 C 434.21 125.18 440.63 124.21 447.06 124.25 C 446.57 125.73 446.06 127.21 445.54 128.69 C 437.42 130.40 429.24 128.35 421.09 128.49 C 416.81 129.36 412.59 130.86 408.15 130.28 C 412.21 124.66 419.42 122.85 424.63 118.55 C 431.35 114.50 437.37 109.45 442.97 103.99 C 445.77 100.60 445.54 94.32 441.09 92.43 C 438.05 93.29 435.06 94.62 432.66 96.68 C 430.64 99.44 429.32 102.82 426.29 104.69 C 425.10 104.22 423.92 103.74 422.74 103.26 C 421.18 100.58 421.74 97.11 424.27 95.23 Z" />
<path fill="#263077" opacity="1.00" d=" M 742.50 90.66 C 747.58 89.18 753.01 89.26 758.23 89.84 C 761.26 90.81 761.94 94.40 762.24 97.16 C 763.28 106.62 758.52 115.56 752.38 122.42 C 746.93 128.25 739.02 132.39 730.87 131.61 C 727.34 131.66 724.65 128.95 722.22 126.75 C 720.21 125.10 720.18 122.33 720.34 119.96 C 723.65 107.99 730.50 95.62 742.50 90.66 M 733.79 108.02 C 732.50 112.35 731.07 116.69 730.64 121.21 C 732.33 126.02 739.39 127.54 742.89 123.84 C 746.43 120.07 749.17 115.55 750.96 110.69 C 752.49 106.67 754.31 102.34 753.36 97.97 C 751.77 95.05 747.92 94.11 744.83 94.62 C 739.13 97.00 736.17 102.69 733.79 108.02 Z" />
<path fill="#263077" opacity="1.00" d=" M 802.91 91.97 C 805.66 89.56 809.54 89.16 813.05 89.61 C 815.82 89.52 817.66 92.53 817.59 95.03 C 817.37 101.23 817.73 108.34 813.22 113.23 C 807.85 119.56 802.52 126.86 794.16 129.31 C 788.77 131.81 782.76 131.58 777.07 132.79 C 774.34 134.50 774.54 138.21 773.46 140.94 C 771.67 145.86 769.72 150.76 767.36 155.45 C 764.46 156.73 761.29 156.72 758.20 156.43 C 760.88 149.28 764.28 142.40 766.67 135.13 C 768.38 129.58 771.44 124.59 773.21 119.07 C 773.97 116.93 774.99 114.91 775.93 112.85 C 777.20 110.31 778.40 107.73 778.96 104.93 C 779.85 101.69 781.93 97.41 778.71 94.80 C 777.89 93.95 777.04 93.13 776.16 92.36 C 776.92 91.65 777.70 90.95 778.49 90.25 C 782.33 90.32 786.17 90.23 790.02 90.21 C 793.44 92.60 790.28 96.79 790.12 99.92 C 794.83 98.08 799.03 95.17 802.91 91.97 M 797.30 102.26 C 790.53 106.85 786.75 114.39 781.75 120.64 C 780.34 122.28 779.82 124.40 779.35 126.46 C 784.79 126.96 790.42 126.08 795.17 123.30 C 798.43 120.10 802.07 116.95 803.84 112.61 C 806.00 107.59 809.27 102.89 809.72 97.30 C 804.85 96.46 801.21 100.08 797.30 102.26 Z" />
<path fill="#263077" opacity="1.00" d=" M 618.77 106.06 C 620.45 105.46 623.19 105.67 623.78 107.68 C 618.56 109.18 613.40 111.48 607.83 110.76 L 608.59 108.75 C 611.87 107.47 615.43 107.16 618.77 106.06 Z" />
<path fill="#263077" opacity="1.00" d=" M 630.03 106.51 C 630.55 106.27 631.59 105.78 632.11 105.54 C 633.99 105.53 636.28 105.09 637.55 106.98 C 635.59 107.88 633.60 108.70 631.70 109.69 C 630.74 110.30 629.83 110.97 628.97 111.69 C 628.33 111.75 627.07 111.87 626.43 111.93 C 625.95 110.58 625.49 109.23 625.05 107.88 C 626.70 107.45 628.40 107.07 630.03 106.51 Z" />
<path fill="#263077" opacity="1.00" d=" M 286.04 211.19 C 288.55 210.14 291.33 210.54 293.92 211.10 C 297.35 211.60 300.59 212.85 303.81 214.09 C 308.57 215.93 311.50 220.91 310.79 225.98 C 311.40 231.10 307.65 235.21 303.57 237.65 C 300.44 239.86 296.53 240.18 292.94 241.17 C 286.85 242.02 280.54 240.96 275.13 238.02 C 270.93 235.07 266.70 230.41 267.51 224.89 C 268.75 218.27 274.66 213.41 281.06 212.06 C 282.72 211.77 284.38 211.50 286.04 211.19 M 277.52 224.58 C 277.54 225.76 277.58 226.94 277.62 228.12 C 278.91 229.92 279.99 231.89 281.55 233.49 C 284.44 235.93 288.48 235.85 292.04 235.60 C 296.30 234.92 299.12 231.26 301.60 228.05 C 301.50 220.48 293.35 214.00 285.91 215.49 C 283.03 218.45 280.50 221.72 277.52 224.58 Z" />
<path fill="#263077" opacity="1.00" d=" M 332.71 213.34 C 334.86 211.28 338.06 211.60 340.72 212.32 C 343.71 212.42 346.67 213.03 349.24 214.63 C 352.19 220.73 356.35 226.26 361.55 230.62 C 362.03 230.63 362.98 230.64 363.46 230.65 C 363.35 227.44 363.54 224.18 362.82 221.03 C 362.69 219.31 362.60 217.60 362.51 215.88 C 363.28 214.23 364.31 212.73 365.64 211.47 C 368.40 211.55 371.40 211.38 373.42 213.63 C 372.86 219.00 373.81 224.47 372.64 229.77 C 371.81 233.62 374.48 239.10 370.22 241.41 C 367.00 241.15 363.76 240.87 360.60 240.17 C 357.52 239.30 356.21 236.08 354.02 234.06 C 350.56 230.68 347.32 227.09 343.82 223.77 C 343.21 223.54 341.99 223.09 341.38 222.86 C 340.78 228.04 341.23 233.33 343.43 238.10 C 343.13 238.66 342.51 239.78 342.21 240.33 C 339.13 240.15 335.45 241.37 332.94 239.01 C 332.02 235.41 332.53 231.64 332.51 227.97 C 332.77 223.10 332.34 218.21 332.71 213.34 Z" />
<path fill="#263077" opacity="1.00" d=" M 394.63 214.86 C 398.70 213.66 402.73 212.11 406.96 211.62 C 412.05 211.50 417.15 211.54 422.25 211.57 C 422.52 211.97 423.07 212.76 423.34 213.16 C 423.30 215.45 423.23 217.75 423.12 220.05 C 423.00 219.61 422.77 218.73 422.65 218.29 L 421.45 218.41 C 421.46 217.95 421.48 217.03 421.49 216.57 C 415.17 214.77 408.29 215.27 401.93 216.70 C 402.72 218.05 403.01 220.26 404.88 220.60 C 409.43 221.97 414.03 223.42 417.89 226.33 C 419.36 226.46 420.84 226.60 422.32 226.73 C 423.43 227.38 424.54 228.02 425.67 228.67 C 425.82 231.63 425.55 234.62 424.26 237.33 C 423.68 237.38 422.51 237.49 421.92 237.54 C 421.73 237.96 421.33 238.80 421.13 239.21 C 414.54 240.91 407.70 240.22 400.98 240.26 C 398.38 240.37 395.91 239.49 393.62 238.35 C 393.62 237.01 393.61 235.68 393.62 234.35 C 400.61 235.58 407.70 235.94 414.80 235.46 C 414.72 233.26 414.10 231.07 412.12 229.85 C 409.61 228.60 406.74 228.46 404.04 227.89 C 402.43 227.10 400.74 226.54 399.11 225.84 C 397.26 225.34 395.55 224.24 394.61 222.54 C 393.94 220.03 394.38 217.40 394.63 214.86 Z" />
<path fill="#263077" opacity="1.00" d=" M 699.13 212.60 C 705.45 210.87 712.09 211.65 718.56 211.71 C 718.95 214.54 717.99 217.23 717.04 219.85 C 716.86 218.31 716.69 216.76 716.57 215.22 C 713.99 215.46 711.42 215.66 708.86 215.87 C 705.37 216.55 701.80 216.43 698.28 216.56 C 698.30 218.28 698.62 220.08 700.39 220.82 C 703.94 222.75 708.24 223.36 711.07 226.53 C 713.50 226.57 715.94 226.61 718.39 226.68 C 718.93 226.96 720.02 227.53 720.56 227.81 C 720.73 230.54 720.52 233.28 720.24 236.00 C 715.69 237.92 711.11 240.45 705.99 239.64 C 700.52 238.67 694.58 242.18 689.50 239.34 C 689.34 237.71 689.45 236.07 689.49 234.44 C 692.73 234.15 696.03 234.23 699.03 235.68 C 701.79 237.04 704.77 235.61 707.64 235.42 C 708.61 234.35 709.43 233.15 710.06 231.83 C 706.38 229.38 701.83 228.97 698.05 226.73 C 695.91 225.28 693.32 225.23 690.84 225.15 C 690.65 224.66 690.27 223.67 690.08 223.18 C 688.82 220.50 689.63 217.50 689.61 214.67 C 692.70 213.63 695.96 213.35 699.13 212.60 Z" />
<path fill="#263077" opacity="1.00" d=" M 222.08 214.56 C 228.76 212.26 235.96 211.29 243.01 211.79 C 245.45 212.36 247.96 212.45 250.46 212.60 C 250.53 214.27 250.58 215.94 250.62 217.61 C 243.82 215.94 236.64 215.88 229.85 217.65 C 227.14 219.43 224.95 221.87 223.47 224.75 C 223.47 226.56 223.46 228.37 223.47 230.18 C 224.26 231.26 225.04 232.34 225.82 233.43 C 234.24 235.97 243.02 235.67 251.69 235.42 C 251.57 236.67 251.44 237.92 251.30 239.18 C 248.54 239.46 245.79 239.75 243.04 240.11 C 239.38 239.40 235.72 240.84 232.03 240.44 C 226.43 240.04 220.44 238.64 216.18 234.76 C 212.74 231.55 213.40 226.34 213.72 222.11 C 214.51 218.03 218.65 216.07 222.08 214.56 Z" />
<path fill="#263077" opacity="1.00" d=" M 445.68 213.61 C 448.86 211.52 453.06 211.92 456.31 213.65 C 456.80 220.44 455.14 227.70 457.85 234.12 C 461.77 235.89 466.16 235.95 470.17 234.42 C 476.26 228.64 472.26 219.94 472.44 212.79 C 476.43 212.62 480.43 212.48 484.42 212.74 C 483.87 215.78 483.03 218.77 482.68 221.84 C 482.48 225.98 483.49 230.06 483.39 234.21 C 479.96 238.13 474.54 238.84 469.81 240.21 C 464.87 240.70 459.78 240.73 454.93 239.57 C 450.01 238.70 445.92 234.14 445.73 229.12 C 445.66 223.95 445.71 218.78 445.68 213.61 Z" />
<path fill="#263077" opacity="1.00" d=" M 505.41 212.73 C 511.93 212.57 518.80 211.45 525.07 213.79 C 525.62 215.55 526.24 217.29 526.79 219.05 C 528.45 222.87 529.91 226.77 531.57 230.58 L 533.13 230.92 C 534.35 226.83 537.71 223.98 539.49 220.19 C 540.52 218.13 541.33 215.97 542.05 213.79 C 548.16 212.42 554.43 212.72 560.64 212.70 C 560.61 217.50 559.49 222.22 559.66 227.02 C 559.51 231.78 560.61 236.48 560.39 241.24 C 557.09 241.34 553.80 241.38 550.51 241.31 C 550.06 234.97 550.38 228.61 550.54 222.27 C 549.61 222.31 547.75 222.38 546.82 222.41 C 544.04 225.51 541.93 229.08 540.63 233.04 C 540.49 234.90 540.39 236.77 540.31 238.64 C 539.50 239.54 538.69 240.43 537.88 241.32 C 534.03 241.57 530.13 241.28 526.69 239.39 C 525.75 237.29 524.84 235.18 523.87 233.10 C 521.71 228.44 520.20 223.09 515.68 220.08 C 512.97 226.54 516.17 233.58 515.92 240.30 C 512.62 241.80 508.01 241.55 505.69 238.56 C 505.26 229.97 505.49 221.34 505.41 212.73 Z" />
<path fill="#263077" opacity="1.00" d=" M 744.09 214.64 C 747.77 214.54 750.84 211.92 754.59 212.42 C 754.57 213.27 754.56 214.12 754.56 214.98 C 751.96 217.05 750.97 220.62 748.01 222.27 C 745.90 223.02 743.63 222.64 741.47 222.52 C 741.46 220.66 741.51 218.80 741.54 216.95 C 742.27 216.10 742.70 214.55 744.09 214.64 Z" />
<path fill="#263077" opacity="1.00" d=" M 581.53 213.71 C 591.52 211.81 601.80 212.22 611.93 212.26 C 611.78 213.59 611.66 214.94 611.51 216.27 C 605.22 216.27 598.94 216.16 592.66 216.28 C 591.11 222.10 589.70 228.17 591.62 234.11 C 592.71 234.44 593.81 234.77 594.91 235.11 C 599.95 234.58 605.07 236.18 610.08 234.82 C 611.55 233.98 612.37 235.74 613.43 236.38 C 613.43 237.42 613.44 238.46 613.46 239.50 C 609.05 240.75 604.46 240.12 599.96 240.21 C 593.84 240.16 587.73 241.14 581.63 240.32 C 581.50 231.45 581.62 222.58 581.53 213.71 Z" />
<path fill="#263077" opacity="1.00" d=" M 633.35 213.59 C 639.85 212.39 646.49 212.45 653.08 212.36 C 658.33 212.14 663.33 214.01 668.48 214.72 C 668.83 217.84 668.90 221.21 666.14 223.31 C 664.54 223.63 662.25 223.18 662.15 225.49 L 661.03 225.48 C 660.96 230.95 667.52 232.20 669.39 236.72 C 669.35 237.93 669.32 239.14 669.30 240.36 C 665.82 240.78 662.30 240.71 658.83 240.23 C 657.93 237.84 657.27 235.32 655.98 233.11 C 652.91 229.52 647.45 230.73 643.88 227.96 C 643.71 227.28 643.36 225.90 643.19 225.21 C 642.76 225.31 641.91 225.50 641.48 225.60 C 641.98 227.74 642.47 229.91 643.31 231.96 C 643.52 234.83 643.54 237.71 643.55 240.59 C 640.20 240.77 636.85 240.80 633.52 240.44 C 633.27 231.49 633.30 222.54 633.35 213.59 M 642.36 217.46 C 642.37 219.39 642.43 221.32 642.55 223.26 C 645.31 223.37 648.12 223.23 650.86 223.78 C 653.02 224.43 655.11 225.40 657.40 225.58 C 657.62 222.91 657.64 220.24 657.47 217.58 C 652.45 217.12 647.38 216.94 642.36 217.46 Z" />
<path fill="#263077" opacity="1.00" d=" M 593.37 221.14 C 595.22 221.22 597.10 221.36 598.90 221.92 C 602.76 223.11 606.87 222.50 610.82 222.17 C 610.68 224.26 610.55 226.35 610.42 228.45 C 608.78 228.54 607.15 228.63 605.52 228.72 L 605.54 227.47 L 604.46 227.70 C 604.36 227.06 604.16 225.77 604.06 225.13 C 603.90 225.73 603.59 226.92 603.43 227.52 C 600.49 227.31 597.77 228.64 594.86 228.70 C 594.56 228.01 593.96 226.64 593.66 225.96 C 593.52 224.35 593.42 222.75 593.37 221.14 Z" />
<path fill="#263077" opacity="1.00" d=" M 90.72 233.86 C 102.59 230.96 114.86 230.64 126.98 229.69 C 137.87 229.84 148.83 229.11 159.66 230.47 C 169.41 230.82 179.11 231.83 188.81 232.82 C 190.41 233.19 191.89 233.96 193.38 234.65 C 193.48 243.04 193.22 251.39 192.35 259.73 C 190.15 259.54 188.08 258.78 186.10 257.84 C 178.85 256.11 171.49 254.69 164.02 254.44 C 158.00 254.40 152.04 253.28 146.01 253.43 C 137.37 253.55 128.64 252.76 120.08 254.11 C 118.03 254.38 115.97 254.58 113.91 254.77 C 101.03 257.87 88.52 263.64 78.62 272.57 C 69.79 280.71 64.49 292.09 62.55 303.83 C 61.97 309.65 63.23 315.42 64.78 321.00 C 67.77 329.02 71.98 336.85 78.55 342.51 C 86.42 349.37 95.78 354.81 106.02 357.14 C 111.95 358.70 117.82 360.62 123.90 361.48 C 145.68 362.35 167.72 361.99 189.05 357.08 C 190.45 356.81 191.87 356.62 193.29 356.44 C 193.33 365.04 193.55 373.65 193.40 382.25 C 188.25 382.26 183.09 382.25 177.96 382.78 C 174.08 383.99 169.92 383.03 166.02 384.18 C 162.04 384.65 157.97 384.25 154.04 385.18 C 144.37 385.67 134.68 385.52 125.01 385.26 C 109.52 383.48 93.84 382.41 78.77 378.17 C 75.52 377.05 72.23 376.05 69.00 374.88 C 68.03 374.52 67.06 374.15 66.10 373.77 C 48.99 367.92 33.06 357.21 23.04 341.94 C 13.88 327.77 12.99 310.05 15.77 293.83 C 16.84 290.55 17.89 287.25 19.15 284.04 C 20.94 277.84 24.72 272.58 28.59 267.53 C 44.47 249.31 67.39 238.75 90.72 233.86 Z" />
<path fill="#263077" opacity="1.00" d=" M 1233.14 259.20 C 1242.07 258.03 1251.00 256.31 1260.05 256.58 C 1271.77 256.31 1283.44 258.02 1294.95 260.11 C 1298.97 261.01 1303.00 261.90 1306.92 263.20 C 1309.36 264.06 1311.81 264.95 1314.28 265.79 C 1325.00 270.17 1335.19 276.40 1342.48 285.57 C 1346.84 291.49 1351.58 297.59 1352.87 305.03 C 1355.25 314.72 1355.10 324.96 1353.06 334.70 C 1347.98 354.73 1331.09 370.16 1311.97 376.87 C 1310.96 377.20 1309.96 377.51 1308.96 377.81 C 1301.80 380.19 1294.41 381.87 1286.93 382.85 C 1284.24 383.46 1281.47 383.54 1278.74 383.68 C 1272.24 384.97 1265.56 384.29 1258.99 384.50 C 1253.75 384.29 1248.42 384.91 1243.29 383.66 C 1240.59 383.50 1237.89 383.37 1235.24 383.01 C 1226.00 381.47 1216.68 379.64 1208.14 375.69 C 1193.38 369.21 1180.36 358.07 1173.54 343.27 C 1173.08 341.53 1173.74 339.13 1171.83 338.12 C 1170.09 330.02 1168.94 321.81 1169.46 313.51 L 1170.36 313.49 C 1170.84 309.30 1171.26 305.35 1172.07 301.05 C 1173.46 296.47 1176.17 292.51 1178.74 288.53 C 1191.78 271.61 1212.44 262.41 1233.14 259.20 M 1255.04 276.20 C 1252.45 276.47 1249.87 276.69 1247.34 277.23 C 1245.24 277.75 1243.16 278.34 1241.03 278.62 C 1239.68 278.95 1237.97 278.72 1237.25 280.20 C 1234.12 281.53 1230.91 282.70 1228.04 284.54 C 1221.86 288.29 1217.47 294.19 1213.13 299.82 C 1207.50 309.92 1207.41 322.16 1209.69 333.23 C 1213.79 344.86 1221.69 355.74 1233.28 360.76 C 1234.40 361.44 1235.77 361.64 1236.94 362.30 C 1237.49 362.43 1238.60 362.69 1239.15 362.82 C 1245.93 364.91 1253.07 365.22 1260.01 366.30 C 1265.58 365.74 1271.22 365.68 1276.76 364.72 C 1278.92 364.35 1281.05 363.80 1283.21 363.33 C 1287.49 361.72 1291.69 359.88 1295.68 357.62 C 1303.38 353.49 1309.00 346.17 1312.31 338.19 C 1313.56 334.88 1314.43 331.45 1315.24 328.01 C 1315.61 323.90 1315.66 319.76 1315.40 315.65 C 1314.30 309.11 1313.05 302.29 1308.94 296.87 C 1302.30 287.48 1292.22 280.45 1280.87 278.24 C 1272.41 276.63 1263.63 274.02 1255.04 276.20 Z" />
<path fill="#263077" opacity="1.00" d=" M 378.52 259.61 C 384.25 258.37 390.09 258.71 395.88 259.36 C 427.39 259.66 458.93 259.23 490.44 259.44 C 489.71 265.74 490.98 272.22 489.40 278.40 C 466.94 278.29 444.48 278.49 422.02 278.38 C 420.25 278.40 418.43 278.23 416.72 278.75 C 416.45 288.63 416.46 298.52 416.59 308.41 C 418.98 309.14 421.48 309.39 423.99 309.35 C 444.20 309.42 464.41 309.28 484.63 309.38 C 484.27 310.47 483.92 311.57 483.57 312.67 C 483.32 317.15 483.22 321.69 484.32 326.08 C 485.30 327.60 483.21 328.56 482.03 328.38 C 460.21 328.42 438.39 328.31 416.57 328.42 C 416.49 340.04 416.41 351.66 416.45 363.27 C 441.07 363.58 465.70 363.27 490.32 363.44 C 490.36 364.57 490.44 365.70 490.56 366.82 C 490.46 367.54 490.27 368.97 490.18 369.69 C 490.88 369.79 492.27 370.01 492.97 370.11 C 492.29 370.12 490.92 370.13 490.24 370.14 C 490.31 372.92 490.42 375.71 490.47 378.50 L 491.47 378.55 C 491.47 379.85 491.49 381.15 491.52 382.46 C 453.95 382.36 416.38 382.78 378.80 382.27 C 378.73 351.52 378.78 320.77 378.81 290.03 C 378.60 279.89 379.22 269.73 378.52 259.61 Z" />
<path fill="#263077" opacity="1.00" d=" M 831.52 258.77 C 839.37 258.65 847.22 258.74 855.08 258.74 C 857.70 258.78 860.40 258.44 862.96 259.26 C 878.98 259.62 895.02 258.99 911.04 259.73 C 919.07 260.83 927.35 261.04 934.97 264.10 C 935.96 264.45 936.95 264.81 937.95 265.19 C 947.66 268.68 955.68 276.78 958.28 286.87 C 959.56 293.32 956.85 299.79 952.48 304.45 C 946.50 309.58 939.39 313.34 931.99 315.94 C 928.68 316.48 925.36 317.21 922.46 318.97 C 925.20 321.23 928.82 320.26 932.04 320.80 C 934.66 321.17 937.33 321.39 939.90 322.12 C 942.17 323.28 944.53 324.25 946.91 325.18 C 949.32 326.30 951.62 327.64 953.82 329.13 C 957.83 333.28 961.61 337.71 964.05 342.98 C 964.92 345.96 964.63 349.07 964.39 352.12 C 962.26 356.06 960.73 360.37 957.99 363.97 C 954.21 368.35 948.97 371.08 943.96 373.82 C 943.02 374.28 942.10 374.76 941.19 375.24 C 940.63 375.38 939.53 375.65 938.98 375.79 C 936.71 376.70 934.38 377.44 932.08 378.26 C 927.46 379.59 922.72 380.43 917.99 381.20 C 912.99 381.71 907.94 381.37 902.94 381.80 C 901.40 382.10 899.85 382.35 898.30 382.37 C 877.18 382.57 856.07 382.45 834.96 382.39 C 833.72 382.36 832.54 382.07 831.36 381.81 C 831.09 366.88 831.68 351.92 830.98 337.01 C 831.66 323.03 831.06 309.00 831.27 295.00 C 831.46 282.93 830.89 270.83 831.52 258.77 M 870.44 277.26 C 870.28 277.76 869.94 278.75 869.77 279.25 C 868.45 288.89 868.32 298.67 868.52 308.41 C 872.78 310.17 877.48 309.19 881.96 309.38 C 888.28 309.55 894.56 308.63 900.89 308.53 C 905.01 308.39 908.57 306.10 912.13 304.26 C 915.04 302.51 917.71 300.41 920.28 298.20 C 920.57 297.67 921.14 296.62 921.43 296.09 C 922.46 288.26 914.60 284.27 909.14 280.62 C 896.53 276.86 883.25 279.62 870.44 277.26 M 869.53 326.46 C 868.38 338.43 868.26 350.45 868.56 362.46 C 874.26 364.04 880.22 363.40 886.05 363.48 C 895.67 363.27 906.00 364.02 914.69 359.11 C 919.02 357.17 923.26 354.83 926.42 351.20 C 928.57 343.87 922.96 338.22 919.10 332.77 C 918.59 332.53 917.58 332.04 917.07 331.79 C 907.22 326.49 895.76 327.51 884.98 327.34 C 879.79 327.55 874.72 326.12 869.53 326.46 Z" />
<path fill="#263077" opacity="1.00" d=" M 1036.10 259.22 C 1038.70 258.63 1041.37 258.39 1044.04 258.15 C 1050.26 256.85 1056.67 257.36 1063.00 257.17 C 1070.32 257.34 1077.75 256.80 1084.99 258.16 C 1089.36 258.36 1093.68 259.04 1097.98 259.85 C 1099.63 260.26 1101.31 260.69 1102.98 261.09 C 1107.20 261.75 1111.14 263.42 1115.19 264.70 C 1116.34 265.36 1117.71 265.58 1118.90 266.21 C 1129.26 270.67 1139.13 277.00 1146.13 285.99 C 1154.45 295.30 1158.18 307.76 1159.00 320.02 C 1159.81 339.00 1148.31 356.74 1132.96 367.12 C 1129.03 369.49 1125.12 371.92 1120.94 373.79 C 1117.75 375.47 1114.28 376.56 1110.89 377.74 C 1109.91 378.11 1108.93 378.48 1107.97 378.86 C 1106.94 379.16 1105.93 379.52 1104.96 379.93 C 1103.30 380.26 1101.62 380.58 1099.98 380.88 C 1098.28 381.25 1096.55 381.53 1094.85 381.75 C 1090.84 382.69 1086.76 383.33 1082.67 383.70 C 1078.19 384.74 1073.56 384.34 1069.00 384.51 C 1058.98 384.72 1048.91 384.53 1039.03 382.81 C 1035.01 382.39 1031.04 381.66 1027.12 380.74 C 1023.93 380.19 1020.83 379.26 1017.77 378.24 C 1016.55 377.66 1015.26 377.38 1014.06 376.82 C 1009.48 374.84 1005.00 372.64 1000.64 370.25 C 990.11 364.03 981.40 354.87 976.23 343.74 C 974.37 339.27 972.75 334.67 972.13 329.85 C 970.30 318.36 972.56 306.62 976.78 295.90 C 979.52 290.25 983.45 285.28 987.96 280.94 C 993.57 275.21 1000.78 271.52 1007.78 267.79 C 1015.20 264.28 1023.01 261.72 1031.06 260.13 C 1032.72 259.75 1034.40 259.51 1036.10 259.22 M 1044.90 278.74 C 1041.90 279.71 1038.90 280.68 1035.91 281.67 C 1035.40 281.91 1034.38 282.39 1033.86 282.63 C 1021.05 289.31 1012.23 302.72 1010.57 317.01 C 1010.18 322.12 1010.92 327.20 1011.68 332.25 C 1012.47 334.16 1013.25 336.07 1014.11 337.96 C 1018.35 347.94 1026.44 356.01 1036.07 360.85 C 1041.77 363.27 1047.82 364.70 1053.97 365.40 C 1063.64 365.80 1073.36 365.83 1082.92 364.12 C 1083.88 363.73 1084.86 363.38 1085.87 363.06 C 1089.41 361.97 1093.05 361.01 1096.19 358.93 C 1107.37 353.80 1115.42 343.03 1118.43 331.23 C 1119.89 325.92 1119.50 320.35 1119.29 314.92 C 1116.52 299.98 1106.30 286.34 1091.93 280.86 C 1090.96 280.48 1090.01 280.09 1089.08 279.69 C 1086.75 278.96 1084.40 278.31 1082.05 277.67 C 1069.76 275.81 1056.98 275.39 1044.90 278.74 Z" />
<path fill="#263077" opacity="1.00" d=" M 1384.55 258.66 C 1397.10 258.74 1409.65 258.68 1422.20 258.61 C 1422.59 272.97 1422.25 287.34 1422.29 301.71 C 1421.90 303.50 1421.44 305.29 1421.02 307.07 C 1419.96 302.89 1418.98 298.39 1415.85 295.21 C 1412.13 291.07 1406.26 290.52 1401.49 288.16 C 1395.89 285.37 1389.52 285.93 1383.57 284.59 C 1384.60 275.97 1384.09 267.30 1384.55 258.66 Z" />
<path fill="#263077" opacity="1.00" d=" M 207.54 259.50 C 210.20 257.94 213.19 259.15 216.04 259.30 C 226.17 259.67 236.33 259.22 246.46 259.54 C 246.59 275.85 246.13 292.16 246.60 308.47 C 251.31 309.71 256.21 309.26 261.02 309.34 C 273.04 309.19 285.08 309.45 297.11 309.13 C 305.11 308.17 313.21 309.41 321.20 308.40 C 321.47 308.08 322.02 307.44 322.29 307.12 C 322.53 291.27 322.72 275.40 322.67 259.54 C 335.60 259.13 348.55 259.51 361.49 259.49 C 361.46 300.41 361.54 341.34 361.36 382.26 C 348.77 382.30 336.18 382.54 323.59 382.36 C 323.36 382.08 322.90 381.52 322.67 381.24 C 322.21 364.15 322.96 347.01 322.24 329.92 C 322.01 329.56 321.56 328.84 321.34 328.48 C 296.45 328.27 271.56 328.44 246.67 328.40 C 246.25 346.39 246.45 364.39 246.41 382.38 C 233.82 382.51 221.22 382.33 208.63 382.34 C 206.97 377.72 207.90 372.74 207.69 367.95 C 207.50 331.80 207.83 295.64 207.54 259.50 Z" />
<path fill="#263077" opacity="1.00" d=" M 571.00 259.85 C 576.00 259.34 580.97 258.35 586.03 258.40 C 600.34 258.23 614.68 257.88 628.98 258.87 C 634.82 260.07 641.10 258.85 646.64 261.56 C 646.39 268.02 644.51 274.31 644.45 280.80 C 642.37 280.64 640.23 280.57 638.35 279.61 C 631.30 276.48 623.41 278.01 616.01 276.70 C 608.03 276.55 599.94 275.93 592.04 277.14 C 586.01 277.58 579.88 278.10 574.18 280.22 C 561.85 285.39 549.00 292.75 543.40 305.55 C 540.75 310.26 541.19 315.80 541.15 321.00 C 541.24 325.65 541.12 330.45 542.82 334.86 C 546.91 346.14 556.49 354.65 567.30 359.38 C 587.17 367.20 609.07 366.04 629.90 363.94 C 634.30 363.49 638.61 362.47 643.03 362.13 C 643.96 361.90 645.83 361.43 646.77 361.19 C 646.15 368.26 646.76 375.35 646.58 382.43 C 641.83 382.56 637.00 382.23 632.35 383.38 C 627.60 383.85 622.77 383.26 618.08 384.23 C 608.41 384.63 598.71 384.70 589.04 384.22 C 586.40 383.57 583.67 383.63 580.98 383.53 C 563.64 382.19 546.42 377.91 530.92 369.92 C 519.16 363.56 508.52 353.97 503.82 341.15 C 500.79 331.71 501.16 321.69 501.75 311.92 C 504.25 295.35 516.01 281.52 530.08 273.13 C 538.10 268.33 547.13 265.62 555.99 262.86 C 560.97 261.76 565.95 260.63 571.00 259.85 Z" />
<path fill="#263077" opacity="1.00" d=" M 663.56 260.31 C 665.17 259.22 667.17 259.38 669.04 259.37 C 679.87 259.53 690.71 259.35 701.54 259.30 C 701.03 277.65 701.95 296.02 701.18 314.34 C 697.99 307.18 697.51 299.13 694.42 291.94 C 693.49 289.07 690.09 289.25 687.67 288.70 C 679.65 287.70 671.58 286.88 663.52 286.38 C 663.72 277.69 663.89 268.99 663.56 260.31 Z" />
<path fill="#263077" opacity="1.00" d=" M 660.13 312.99 C 662.86 314.48 665.85 315.65 668.09 317.89 C 672.02 321.55 673.37 327.07 677.10 330.89 C 681.85 335.43 684.55 341.54 688.03 347.01 C 690.84 353.19 695.10 359.00 695.56 365.98 C 696.02 370.25 696.70 374.50 697.58 378.71 C 699.26 378.57 700.95 378.48 702.62 378.21 C 702.16 379.59 701.66 380.96 701.19 382.34 C 688.97 382.74 676.74 382.13 664.52 382.58 C 662.97 360.36 664.10 338.02 663.31 315.78 C 662.35 314.74 661.22 313.88 660.13 312.99 Z" />
<path fill="#263077" opacity="1.00" d=" M 1383.71 316.00 C 1386.01 316.84 1388.37 317.91 1389.82 320.01 C 1396.02 329.03 1403.08 337.51 1408.05 347.32 C 1410.76 354.92 1415.44 361.78 1416.72 369.87 C 1417.28 373.99 1420.14 377.13 1421.78 380.81 C 1421.75 381.19 1421.69 381.95 1421.66 382.33 C 1408.98 382.51 1396.30 382.49 1383.63 382.55 C 1383.78 360.37 1383.84 338.19 1383.71 316.00 Z" />
<path fill="#263077" opacity="1.00" d=" M 1461.70 320.60 C 1462.10 320.57 1462.89 320.50 1463.28 320.47 L 1464.31 320.38 C 1469.50 325.93 1475.90 330.13 1481.53 335.19 C 1491.56 343.52 1502.16 351.14 1512.02 359.69 C 1518.69 365.16 1525.10 370.98 1532.23 375.87 C 1534.60 377.87 1538.02 379.21 1538.91 382.45 C 1539.83 382.66 1540.81 382.89 1541.78 383.11 C 1539.55 383.15 1537.34 383.19 1535.14 383.11 C 1524.87 381.41 1514.38 382.88 1504.03 382.36 C 1499.02 382.08 1493.68 383.61 1489.00 381.23 C 1480.93 374.18 1472.71 367.32 1464.53 360.41 C 1458.24 354.67 1451.78 349.14 1445.32 343.61 C 1443.11 341.80 1445.64 339.44 1447.20 338.20 C 1453.36 333.56 1457.37 326.84 1461.70 320.60 Z" />
<path fill="#263077" opacity="1.00" d=" M 739.66 323.43 C 740.84 321.71 743.03 322.50 744.77 322.51 C 754.87 331.02 765.59 338.78 775.73 347.26 C 790.12 357.78 803.03 370.14 817.46 380.60 C 817.49 381.08 817.55 382.05 817.58 382.54 C 802.37 382.05 787.16 382.63 771.95 382.48 C 769.11 382.81 767.01 380.64 765.02 378.99 C 759.41 373.60 753.20 368.89 747.45 363.65 C 740.90 358.22 735.07 351.95 728.30 346.79 C 727.17 345.82 725.75 345.08 725.08 343.71 C 728.78 336.23 734.17 329.67 739.66 323.43 Z" />
</g>
<g id="#c01b53ff">
<path fill="#c01b53" opacity="1.00" d=" M 776.63 89.77 C 781.08 90.06 785.59 89.38 790.02 90.21 C 786.17 90.23 782.33 90.32 778.49 90.25 C 777.70 90.95 776.92 91.65 776.16 92.36 C 777.04 93.13 777.89 93.95 778.71 94.80 C 777.30 94.26 775.98 93.60 774.62 93.02 C 774.63 92.72 774.66 92.14 774.67 91.84 C 775.33 91.17 775.98 90.48 776.63 89.77 Z" />
<path fill="#c01b53" opacity="1.00" d=" M 612.83 106.93 C 616.46 106.75 620.02 104.44 623.66 105.52 C 625.54 106.83 627.82 107.04 630.03 106.51 C 628.40 107.07 626.70 107.45 625.05 107.88 C 625.49 109.23 625.95 110.58 626.43 111.93 C 627.07 111.87 628.33 111.75 628.97 111.69 C 627.83 112.28 626.54 112.48 625.32 112.81 C 625.12 111.47 624.93 110.13 624.76 108.80 C 623.22 108.95 621.71 109.14 620.21 109.39 C 616.98 109.79 613.97 111.07 610.91 112.08 C 609.84 111.75 608.75 111.45 607.69 111.17 C 607.59 110.38 607.51 109.58 607.43 108.78 C 609.22 108.15 611.02 107.55 612.83 106.93 M 618.77 106.06 C 615.43 107.16 611.87 107.47 608.59 108.75 L 607.83 110.76 C 613.40 111.48 618.56 109.18 623.78 107.68 C 623.19 105.67 620.45 105.46 618.77 106.06 Z" />
<path fill="#c01b53" opacity="1.00" d=" M 632.11 105.54 C 633.75 105.29 635.41 105.35 637.06 105.52 C 637.53 106.07 638.02 106.62 638.52 107.15 C 636.29 108.13 634.04 109.04 631.70 109.69 C 633.60 108.70 635.59 107.88 637.55 106.98 C 636.28 105.09 633.99 105.53 632.11 105.54 Z" />
<path fill="#c01b53" opacity="1.00" d=" M 1569.77 213.91 C 1581.78 208.05 1594.14 202.72 1607.22 199.77 C 1609.22 201.00 1610.94 202.61 1612.53 204.34 C 1612.52 204.78 1612.51 205.67 1612.51 206.12 C 1606.30 210.49 1599.11 213.13 1592.45 216.69 C 1574.55 225.02 1557.13 234.52 1540.84 245.69 C 1524.80 256.78 1510.42 270.00 1496.03 283.10 C 1485.25 293.64 1474.45 304.24 1465.03 316.04 C 1463.84 317.24 1463.42 318.83 1463.28 320.47 C 1462.89 320.50 1462.10 320.57 1461.70 320.60 C 1457.37 326.84 1453.36 333.56 1447.20 338.20 C 1445.64 339.44 1443.11 341.80 1445.32 343.61 C 1443.63 343.44 1442.57 344.81 1441.87 346.13 C 1437.68 353.98 1432.59 361.32 1428.39 369.18 C 1426.42 373.19 1423.54 376.69 1421.78 380.81 C 1420.14 377.13 1417.28 373.99 1416.72 369.87 C 1415.44 361.78 1410.76 354.92 1408.05 347.32 C 1403.08 337.51 1396.02 329.03 1389.82 320.01 C 1388.37 317.91 1386.01 316.84 1383.71 316.00 C 1375.45 308.58 1366.55 301.82 1357.13 295.96 C 1357.29 295.48 1357.62 294.50 1357.79 294.02 C 1363.74 292.29 1369.51 290.00 1375.03 287.16 C 1377.35 286.17 1379.77 285.36 1382.34 285.34 C 1382.65 285.15 1383.27 284.78 1383.57 284.59 C 1389.52 285.93 1395.89 285.37 1401.49 288.16 C 1406.26 290.52 1412.13 291.07 1415.85 295.21 C 1418.98 298.39 1419.96 302.89 1421.02 307.07 C 1421.44 305.29 1421.90 303.50 1422.29 301.71 C 1422.46 304.11 1422.55 306.53 1422.67 308.95 C 1422.96 309.63 1423.53 311.01 1423.81 311.69 C 1425.34 311.48 1427.08 311.66 1428.40 310.61 C 1435.70 306.02 1441.08 299.15 1447.53 293.54 C 1457.69 284.69 1467.78 275.73 1478.70 267.82 C 1492.15 258.12 1505.49 248.16 1520.02 240.10 C 1535.82 229.94 1553.05 222.37 1569.77 213.91 Z" />
<path fill="#c01b53" opacity="1.00" d=" M 874.21 202.67 C 878.08 201.45 882.06 200.29 886.18 200.64 C 888.84 201.80 891.64 203.11 892.84 205.97 C 890.95 207.30 889.21 208.92 887.04 209.77 C 877.85 213.13 869.36 218.06 860.55 222.25 C 843.47 230.62 826.81 240.00 811.64 251.52 C 805.83 256.01 800.52 261.11 794.74 265.65 C 775.97 281.61 758.68 299.28 742.46 317.81 C 742.44 318.66 742.40 320.35 742.38 321.20 C 743.17 321.62 743.97 322.05 744.77 322.51 C 743.03 322.50 740.84 321.71 739.66 323.43 C 734.17 329.67 728.78 336.23 725.08 343.71 C 724.79 343.72 724.22 343.74 723.93 343.74 C 719.70 348.20 717.08 353.83 713.68 358.90 C 709.61 365.11 706.53 371.90 702.62 378.21 C 700.95 378.48 699.26 378.57 697.58 378.71 C 696.70 374.50 696.02 370.25 695.56 365.98 C 695.10 359.00 690.84 353.19 688.03 347.01 C 684.55 341.54 681.85 335.43 677.10 330.89 C 673.37 327.07 672.02 321.55 668.09 317.89 C 665.85 315.65 662.86 314.48 660.13 312.99 C 651.78 307.53 644.29 300.67 635.30 296.18 C 635.42 295.43 635.54 294.68 635.69 293.94 C 642.02 292.86 647.88 290.11 653.80 287.74 C 654.87 287.56 655.95 287.38 657.04 287.20 C 659.14 286.60 661.33 286.35 663.52 286.38 C 671.58 286.88 679.65 287.70 687.67 288.70 C 690.09 289.25 693.49 289.07 694.42 291.94 C 697.51 299.13 697.99 307.18 701.18 314.34 C 701.95 296.02 701.03 277.65 701.54 259.30 L 701.55 258.98 C 701.86 276.91 700.89 294.87 702.52 312.74 C 707.17 313.00 709.86 308.77 713.14 306.22 C 722.37 297.74 731.73 289.40 741.34 281.34 C 748.97 274.88 756.60 268.38 764.95 262.85 C 775.41 255.70 785.41 247.84 796.51 241.67 C 811.28 232.20 826.95 224.25 842.73 216.62 C 853.05 211.61 863.27 206.23 874.21 202.67 Z" />
</g>
</svg>
