<?xml version="1.0" encoding="UTF-8" ?>
<!DOCTYPE svg PUBLIC "-//W3C//DTD SVG 1.1//EN" "http://www.w3.org/Graphics/SVG/1.1/DTD/svg11.dtd">
<svg width="235pt" height="84pt" viewBox="0 0 235 84" version="1.1" xmlns="http://www.w3.org/2000/svg">
<g id="#1d78beff">
<path fill="#1d78be" opacity="1.00" d=" M 0.00 0.00 L 36.06 0.00 C 36.30 3.88 36.29 7.77 36.28 11.66 C 32.90 11.43 29.43 11.25 26.15 12.27 C 21.80 13.38 18.30 16.32 14.55 18.63 C 10.55 21.08 6.45 23.38 2.50 25.91 C 2.91 26.32 3.74 27.13 4.16 27.53 C 11.81 29.47 19.50 26.79 27.19 27.09 C 29.77 26.99 31.42 29.06 32.94 30.82 C 30.78 34.30 27.72 37.62 23.46 38.24 C 15.93 39.04 8.33 38.44 0.79 39.03 C 0.41 30.22 0.47 21.39 0.00 12.58 L 0.00 0.00 Z" />
<path fill="#1d78be" opacity="1.00" d=" M 89.11 3.02 C 93.28 0.21 98.67 0.69 103.25 2.11 C 102.19 6.63 97.21 4.05 94.07 4.98 C 88.00 6.66 87.86 16.36 93.17 19.07 C 96.14 20.77 99.66 19.82 102.86 19.61 C 102.73 24.34 97.31 23.95 93.92 23.53 C 89.45 23.03 85.05 19.82 84.37 15.17 C 83.35 10.63 85.10 5.53 89.11 3.02 Z" />
<path fill="#1d78be" opacity="1.00" d=" M 204.14 10.20 C 206.18 7.79 208.35 5.32 211.46 4.31 C 211.47 5.17 211.50 6.88 211.52 7.74 C 213.13 7.74 214.75 7.74 216.37 7.75 C 216.18 8.48 215.79 9.95 215.60 10.69 C 214.14 10.84 212.69 10.99 211.24 11.12 C 211.37 13.82 210.86 16.66 211.76 19.26 C 212.74 20.91 214.86 19.60 216.30 19.62 C 216.29 24.90 206.88 24.99 206.55 19.90 C 206.29 17.07 206.64 14.23 206.38 11.40 C 205.82 11.10 204.70 10.50 204.14 10.20 Z" />
<path fill="#1d78be" opacity="1.00" d=" M 109.47 7.69 C 114.38 5.87 120.54 9.49 120.30 14.99 C 121.17 21.14 114.13 25.65 108.70 23.14 C 101.95 20.79 102.66 9.50 109.47 7.69 M 113.82 19.90 C 115.94 16.95 115.60 11.86 111.94 10.25 C 107.64 12.02 108.45 21.78 113.82 19.90 Z" />
<path fill="#1d78be" opacity="1.00" d=" M 140.41 22.54 C 133.85 18.77 137.19 6.48 145.02 7.24 C 149.24 6.92 152.38 11.93 150.57 15.57 C 147.85 17.06 144.61 16.55 141.64 16.86 C 143.22 20.28 147.14 20.26 150.31 19.52 C 150.05 24.45 143.66 24.51 140.41 22.54 M 141.95 13.67 C 143.17 13.69 144.39 13.65 145.61 13.55 C 146.89 12.39 145.80 10.96 144.52 10.45 C 142.66 10.22 142.39 12.38 141.95 13.67 Z" />
<path fill="#1d78be" opacity="1.00" d=" M 170.74 9.82 C 174.01 8.16 178.14 6.02 181.69 8.17 C 184.99 10.31 183.66 14.72 183.77 17.98 C 183.65 19.47 184.41 20.36 186.07 20.66 C 185.27 21.64 184.63 22.79 183.58 23.53 C 181.95 24.23 180.41 23.19 179.03 22.44 C 177.29 23.13 175.40 24.34 173.49 23.49 C 170.53 22.49 169.72 18.15 172.04 16.09 C 174.15 14.30 177.00 13.92 179.53 12.99 C 178.08 10.18 175.05 11.62 172.83 12.48 C 172.13 11.59 171.43 10.71 170.74 9.82 M 175.19 18.10 C 175.46 18.56 176.02 19.47 176.30 19.93 C 178.77 19.95 179.38 18.08 178.79 15.96 C 177.57 16.64 176.37 17.36 175.19 18.10 Z" />
<path fill="#1d78be" opacity="1.00" d=" M 120.92 7.93 C 122.39 8.06 124.35 7.17 125.50 8.44 C 127.03 11.27 127.83 14.41 129.04 17.38 C 130.46 14.26 131.29 10.88 132.92 7.85 C 133.85 7.84 135.70 7.83 136.62 7.83 C 134.56 12.71 132.78 17.73 130.52 22.53 C 129.37 23.25 126.60 23.79 126.23 21.89 C 124.46 17.24 122.79 12.55 120.92 7.93 Z" />
<path fill="#1d78be" opacity="1.00" d=" M 153.74 7.90 C 155.50 7.99 157.41 7.81 158.82 9.11 C 161.37 6.88 166.28 6.55 167.70 10.20 C 168.82 14.36 168.06 18.75 168.26 23.02 C 166.65 23.00 165.04 22.98 163.43 22.95 C 163.39 19.34 163.73 15.71 163.25 12.13 C 162.35 10.09 160.14 11.44 158.74 11.97 C 158.74 15.57 158.73 19.17 158.72 22.77 C 157.06 22.95 155.40 23.11 153.74 23.30 C 153.73 18.17 153.73 13.03 153.74 7.90 Z" />
<path fill="#1d78be" opacity="1.00" d=" M 188.01 7.89 C 189.75 7.97 191.53 8.09 193.15 8.82 C 195.66 7.25 199.50 6.53 201.45 9.33 C 203.32 13.59 202.27 18.42 202.53 22.93 C 200.91 23.01 199.30 23.11 197.69 23.21 C 197.26 19.50 197.63 15.76 197.38 12.05 C 196.36 10.19 194.45 11.41 193.01 11.88 C 193.02 15.52 193.02 19.16 192.92 22.80 C 191.28 22.95 189.64 23.12 188.00 23.27 C 188.01 18.14 187.99 13.02 188.01 7.89 Z" />
<path fill="#1d78be" opacity="1.00" d=" M 86.01 27.27 C 87.66 27.14 89.30 27.04 90.95 26.94 C 91.00 29.87 91.00 32.81 91.02 35.74 C 93.84 35.73 96.67 35.73 99.50 35.74 C 99.49 33.17 99.27 30.58 99.70 28.03 C 100.64 26.35 103.00 27.27 104.57 27.00 C 104.51 34.24 104.51 41.48 104.57 48.72 C 102.86 48.84 101.16 48.92 99.45 48.96 C 99.47 45.63 99.47 42.31 99.46 38.98 C 96.65 39.22 93.83 39.30 91.01 39.28 C 91.02 42.46 91.03 45.65 90.87 48.83 C 89.24 48.92 87.62 48.99 86.00 49.04 C 86.00 41.79 85.99 34.53 86.01 27.27 Z" />
<path fill="#1d78be" opacity="1.00" d=" M 112.42 33.61 C 117.88 31.36 124.51 35.94 123.55 41.97 C 123.54 47.97 116.36 51.41 111.35 48.68 C 105.26 45.95 106.09 35.53 112.42 33.61 M 113.53 37.37 C 111.41 40.05 112.29 47.09 116.83 45.94 C 118.67 43.88 118.67 40.75 117.68 38.31 C 117.16 36.68 114.54 35.58 113.53 37.37 Z" />
<path fill="#1d78be" opacity="1.00" d=" M 144.08 39.84 C 142.68 37.02 145.22 33.75 148.10 33.38 C 150.15 32.87 152.13 33.78 154.03 34.40 C 153.63 35.18 153.20 35.94 152.75 36.68 C 151.06 37.03 149.00 35.94 147.86 37.74 C 150.37 39.68 155.17 40.95 154.41 44.97 C 153.30 50.00 146.62 50.40 142.98 47.91 C 143.37 47.02 143.75 46.13 144.14 45.24 C 146.02 45.59 147.98 46.42 149.87 45.62 C 149.29 42.68 145.08 42.62 144.08 39.84 Z" />
<path fill="#1d78be" opacity="1.00" d=" M 156.51 43.90 C 155.00 38.64 159.19 32.04 165.10 33.20 C 169.25 33.27 170.64 37.75 170.43 41.21 C 167.51 42.79 164.16 42.56 160.96 42.66 C 162.35 46.38 166.44 45.88 169.60 45.50 C 168.68 52.33 157.05 50.07 156.51 43.90 M 161.04 39.51 C 162.60 39.48 164.17 39.44 165.73 39.39 C 165.25 38.35 165.35 36.28 163.70 36.51 C 161.96 36.33 161.67 38.33 161.04 39.51 Z" />
<path fill="#1d78be" opacity="1.00" d=" M 125.76 33.77 C 127.33 33.74 128.90 33.72 130.48 33.69 C 130.69 37.75 130.05 41.91 131.24 45.87 C 132.55 45.52 134.79 45.87 135.17 44.14 C 135.44 40.75 135.21 37.36 135.25 33.97 C 136.92 33.84 138.59 33.75 140.26 33.65 C 140.26 38.71 140.28 43.77 140.25 48.83 C 138.52 48.81 136.70 48.87 135.28 47.70 C 132.74 49.87 127.97 50.25 126.41 46.75 C 125.17 42.55 125.91 38.09 125.76 33.77 Z" />
<path fill="#1d78be" opacity="1.00" d=" M 1.34 41.50 C 5.67 41.51 10.00 41.43 14.33 41.28 C 11.38 42.22 8.34 42.84 5.39 43.76 C 6.85 45.39 8.41 47.76 10.94 47.43 C 13.38 46.98 15.70 46.04 18.06 45.30 C 15.03 47.23 11.77 48.75 8.57 50.39 C 10.44 52.01 12.92 53.80 15.50 52.66 C 17.84 52.10 19.21 49.29 21.64 49.27 C 19.80 51.89 16.13 53.18 13.85 55.63 C 15.70 56.26 17.68 57.22 19.65 56.44 C 22.68 55.34 24.63 52.53 27.37 50.94 C 25.39 53.63 22.92 55.89 20.89 58.54 C 24.16 59.62 27.43 57.97 29.25 55.23 C 31.68 52.40 33.57 49.04 36.65 46.84 C 36.47 49.64 37.28 52.91 35.39 55.29 C 32.31 59.55 27.56 62.36 24.90 66.99 C 23.38 69.11 23.11 72.32 20.42 73.41 C 14.41 76.48 7.43 76.76 0.84 77.58 C 1.70 65.56 1.11 53.53 1.34 41.50 Z" />
<path fill="#1d78be" opacity="1.00" d=" M 63.13 42.20 C 67.25 41.75 71.41 41.99 75.54 42.21 C 75.26 54.30 76.70 66.37 75.97 78.45 C 63.94 77.49 51.90 79.48 39.90 78.32 C 47.40 74.61 56.08 74.63 64.26 75.02 C 64.37 72.41 61.70 72.02 59.86 71.18 C 62.99 71.00 66.14 70.98 69.28 70.96 C 69.01 70.38 68.49 69.24 68.23 68.67 C 64.85 67.57 61.22 67.84 57.72 67.51 C 61.82 65.24 66.61 65.34 71.11 64.69 C 70.48 63.82 70.33 62.29 69.06 62.10 C 63.55 61.45 58.20 63.41 52.74 63.77 C 56.85 61.18 61.46 59.58 66.05 58.05 C 64.71 55.96 62.31 55.11 59.96 56.04 C 52.96 58.17 46.43 61.64 39.33 63.51 C 38.60 59.51 41.25 56.40 42.93 53.08 C 44.20 50.97 43.01 48.66 42.08 46.71 C 41.19 47.58 40.29 48.44 39.40 49.30 C 39.77 47.80 38.72 45.33 40.67 44.66 C 41.69 44.32 42.72 44.03 43.76 43.78 C 45.14 45.94 46.55 48.41 45.90 51.08 C 45.05 54.31 43.18 57.25 43.10 60.68 C 50.91 55.85 57.15 49.04 63.13 42.20 Z" />
</g>
<g id="#f4a71bff">
<path fill="#f4a71b" opacity="1.00" d=" M 39.00 0.59 C 46.85 0.98 54.72 0.49 62.57 0.87 C 58.27 2.65 53.67 3.46 49.26 4.89 C 54.32 4.96 59.37 4.56 64.43 4.45 C 61.00 6.64 57.31 8.39 53.88 10.60 C 57.96 9.47 62.05 8.35 66.19 7.43 C 64.80 9.34 63.38 11.22 62.00 13.14 C 64.21 12.00 66.42 10.85 68.70 9.85 C 67.18 13.81 65.47 17.69 64.00 21.67 C 66.85 18.46 69.20 14.82 72.18 11.72 C 72.32 15.56 72.22 19.41 72.29 23.26 C 73.28 19.77 73.83 16.16 75.18 12.78 C 75.15 21.62 74.86 30.47 74.99 39.32 C 71.27 39.11 67.55 38.91 63.83 39.00 C 64.88 36.09 65.15 32.55 62.76 30.20 C 60.55 28.48 57.55 28.54 54.92 28.02 C 54.34 22.71 57.59 18.37 60.15 14.09 C 59.11 14.39 58.08 14.70 57.05 15.02 C 54.37 12.71 49.93 11.08 47.12 14.08 C 45.04 16.89 45.21 20.59 44.57 23.88 C 44.33 19.87 42.59 15.91 39.25 13.54 C 38.82 9.24 39.05 4.91 39.00 0.59 Z" />
<path fill="#f4a71b" opacity="1.00" d=" M 50.06 16.15 C 51.11 14.96 52.52 14.51 54.07 14.86 C 54.12 15.97 54.17 17.08 54.21 18.18 C 52.34 18.57 50.69 18.12 50.06 16.15 Z" />
<path fill="#f4a71b" opacity="1.00" d=" M 85.73 55.00 C 87.75 55.00 89.76 55.00 91.77 55.01 C 94.27 60.07 96.86 65.09 99.45 70.11 C 99.06 65.08 98.91 60.04 99.00 54.99 C 100.58 55.00 102.17 55.01 103.75 55.02 C 103.72 62.36 103.73 69.69 103.74 77.02 C 101.94 77.00 100.13 76.97 98.33 76.91 C 95.76 72.13 92.85 67.53 90.42 62.67 C 90.61 67.44 90.52 72.22 90.53 77.00 C 88.93 77.00 87.33 77.00 85.73 77.00 C 85.73 69.67 85.73 62.33 85.73 55.00 Z" />
<path fill="#f4a71b" opacity="1.00" d=" M 156.26 55.01 C 157.93 55.00 159.59 55.00 161.27 55.00 C 161.23 59.64 161.32 64.29 161.26 68.94 C 161.14 71.37 160.95 74.35 158.65 75.78 C 156.19 77.52 153.01 76.97 150.21 76.72 C 150.30 75.50 150.40 74.29 150.50 73.08 C 152.50 73.26 155.97 73.74 156.15 70.86 C 156.45 65.59 156.18 60.29 156.26 55.01 Z" />
<path fill="#f4a71b" opacity="1.00" d=" M 108.11 74.92 C 104.34 71.32 105.83 63.63 111.08 62.28 C 113.79 61.63 117.18 61.54 119.30 63.66 C 121.29 65.64 121.27 68.65 121.20 71.26 C 117.67 71.28 114.14 71.19 110.61 71.37 C 113.06 73.84 116.66 73.37 119.74 72.75 C 119.90 73.62 120.22 75.37 120.38 76.24 C 116.35 77.11 111.50 77.87 108.11 74.92 M 110.78 67.47 C 112.82 67.48 114.86 67.46 116.90 67.38 C 115.84 64.34 111.46 63.94 110.78 67.47 Z" />
<path fill="#f4a71b" opacity="1.00" d=" M 121.46 61.73 C 123.14 61.73 124.83 61.74 126.51 61.74 C 127.27 65.26 127.90 68.81 128.57 72.35 C 129.22 68.77 130.13 65.25 131.06 61.74 C 132.37 61.74 133.68 61.74 134.99 61.73 C 135.95 65.24 136.86 68.76 137.51 72.34 C 138.04 68.76 138.74 65.21 139.63 61.71 C 141.24 61.73 142.85 61.75 144.46 61.77 C 142.91 66.85 141.36 71.92 139.80 77.00 C 138.25 77.00 136.70 77.00 135.16 77.00 C 134.22 73.66 133.35 70.32 132.59 66.94 C 132.77 70.40 131.57 73.68 130.61 76.93 C 129.03 76.97 127.46 77.00 125.89 77.02 C 124.45 71.91 122.95 66.82 121.46 61.73 Z" />
<path fill="#f4a71b" opacity="1.00" d=" M 166.38 75.59 C 161.69 72.57 162.75 64.20 168.03 62.41 C 171.17 61.40 175.39 61.60 177.41 64.60 C 178.81 66.54 178.50 69.01 178.59 71.26 C 175.00 71.28 171.41 71.19 167.83 71.39 C 170.40 73.73 173.98 73.43 177.12 72.72 C 177.27 73.60 177.57 75.35 177.72 76.23 C 174.00 77.02 169.79 77.75 166.38 75.59 M 167.83 67.39 C 169.92 67.47 172.01 67.47 174.11 67.45 C 173.41 66.28 172.67 64.46 170.95 64.85 C 169.44 64.87 168.78 66.48 167.83 67.39 Z" />
<path fill="#f4a71b" opacity="1.00" d=" M 179.74 61.69 C 181.12 61.69 182.51 61.73 183.89 61.81 C 183.94 62.47 184.05 63.78 184.10 64.43 C 185.00 62.31 187.15 61.65 189.23 61.22 C 189.25 62.84 189.27 64.45 189.28 66.07 C 187.70 66.38 185.72 66.38 184.88 68.04 C 184.57 71.02 184.76 74.01 184.74 77.00 C 183.07 77.00 181.40 77.00 179.74 77.00 C 179.73 71.90 179.73 66.79 179.74 61.69 Z" />
<path fill="#f4a71b" opacity="1.00" d=" M 190.73 65.97 C 191.55 61.14 197.94 60.77 201.59 62.49 C 201.35 63.36 200.87 65.09 200.63 65.96 C 198.75 65.68 196.56 64.62 195.21 66.56 C 198.08 67.75 203.10 68.79 201.97 73.05 C 200.59 78.01 194.00 77.42 190.16 76.01 C 190.49 74.76 190.82 73.51 191.16 72.26 C 192.81 72.58 197.07 74.66 197.27 71.87 C 194.76 70.47 189.97 69.87 190.73 65.97 Z" />
<path fill="#f4a71b" opacity="1.00" d=" M 207.38 62.66 C 210.47 61.43 214.61 61.41 216.97 64.07 C 218.71 66.03 218.49 68.79 218.60 71.22 C 215.01 71.30 211.41 71.19 207.81 71.41 C 210.34 73.75 213.93 73.41 217.04 72.73 C 217.21 73.60 217.56 75.34 217.74 76.21 C 214.06 77.01 209.86 77.77 206.46 75.65 C 201.88 72.79 202.52 64.90 207.38 62.66 M 207.85 67.41 C 209.95 67.47 212.05 67.47 214.16 67.41 C 213.34 66.35 212.71 64.48 211.01 64.85 C 209.42 64.75 208.78 66.45 207.85 67.41 Z" />
<path fill="#f4a71b" opacity="1.00" d=" M 217.85 61.75 C 219.70 61.74 221.56 61.72 223.42 61.71 C 224.46 65.05 225.46 68.40 226.38 71.77 C 227.13 68.40 227.98 65.04 228.84 61.69 C 230.59 61.72 232.35 61.74 234.12 61.76 C 232.12 67.47 230.42 73.34 227.68 78.77 C 226.50 81.23 224.33 83.02 221.82 84.00 L 220.48 84.00 C 220.11 82.71 219.75 81.43 219.38 80.15 C 220.89 79.21 222.64 78.50 223.64 76.95 C 222.24 71.71 219.70 66.84 217.85 61.75 Z" />
</g>
</svg>
