<?xml version="1.0" encoding="UTF-8" ?>
<!DOCTYPE svg PUBLIC "-//W3C//DTD SVG 1.1//EN" "http://www.w3.org/Graphics/SVG/1.1/DTD/svg11.dtd">
<svg width="347pt" height="350pt" viewBox="0 0 347 350" version="1.1" xmlns="http://www.w3.org/2000/svg">
<g id="#cb2329ff">
<path fill="#cb2329" opacity="1.00" d=" M 0.00 0.00 L 347.00 0.00 L 347.00 349.00 C 231.33 349.00 115.67 349.00 0.00 349.00 L 0.00 0.00 M 168.92 56.06 C 168.86 57.84 168.94 59.62 169.25 61.37 C 171.46 61.39 173.68 61.43 175.90 61.50 C 175.27 68.64 174.87 75.80 174.83 82.97 C 176.86 82.73 179.40 83.90 181.09 82.43 C 181.41 76.96 181.42 71.47 181.59 66.00 C 181.84 64.60 181.20 62.75 182.56 61.78 C 184.80 61.88 187.04 61.99 189.29 61.92 C 189.30 60.21 189.31 58.51 189.32 56.80 C 182.51 56.61 175.73 55.84 168.92 56.06 M 151.10 58.10 C 145.91 58.79 141.06 64.80 144.20 69.81 C 146.75 74.92 153.26 73.60 157.83 75.17 C 159.96 76.44 158.66 79.18 156.66 79.67 C 154.18 80.94 151.93 78.79 150.79 76.79 C 148.95 77.09 147.12 77.43 145.29 77.75 C 145.47 81.09 147.71 84.23 151.00 85.12 C 155.62 86.29 160.98 84.73 163.92 80.88 C 166.41 77.60 165.25 72.30 161.55 70.45 C 158.40 68.92 154.73 69.37 151.41 68.41 C 149.64 68.27 149.05 66.56 149.44 65.03 C 151.57 62.34 156.19 63.24 157.26 66.51 C 159.15 66.15 161.04 65.76 162.92 65.37 C 162.16 59.88 156.31 56.46 151.10 58.10 M 200.28 82.17 C 199.29 83.22 198.55 84.44 197.90 85.72 C 199.84 86.57 201.78 87.44 203.73 88.29 C 204.45 87.24 205.17 86.19 205.90 85.14 C 208.84 86.12 211.60 87.52 214.33 88.97 C 214.14 90.32 213.89 91.65 213.70 92.99 C 215.79 93.77 217.85 94.62 219.90 95.50 C 220.81 86.05 221.93 76.61 222.45 67.13 C 220.14 66.23 217.85 65.28 215.60 64.26 C 210.48 70.22 205.46 76.26 200.28 82.17 M 127.86 66.19 C 123.98 68.05 120.11 69.95 116.29 71.93 C 119.60 80.18 123.96 87.97 127.31 96.22 C 129.33 95.43 131.25 94.42 133.07 93.23 C 131.44 90.17 129.94 87.04 128.50 83.89 C 129.12 83.53 130.35 82.82 130.97 82.46 C 133.84 84.81 136.43 87.48 139.36 89.75 C 141.71 89.84 143.64 88.18 145.61 87.14 C 142.44 84.67 139.40 82.06 136.27 79.54 C 137.66 77.27 138.91 74.55 137.86 71.87 C 136.84 67.69 132.08 64.36 127.86 66.19 M 236.54 75.95 C 231.81 83.07 226.82 90.03 222.06 97.14 C 222.54 99.34 225.06 100.09 226.72 101.25 C 231.79 94.07 236.52 86.65 241.83 79.65 C 240.22 78.21 238.44 76.98 236.54 75.95 M 104.17 81.02 C 109.20 88.34 114.34 95.62 119.79 102.65 C 121.40 101.41 123.00 100.14 124.58 98.84 C 119.28 91.71 114.18 84.43 108.94 77.26 C 107.33 78.49 105.74 79.74 104.17 81.02 M 85.63 99.30 C 91.73 105.78 98.42 111.69 104.81 117.88 C 106.14 116.40 107.49 114.94 108.87 113.49 C 106.50 110.77 103.78 108.38 101.21 105.84 C 102.98 103.76 104.82 101.75 106.67 99.74 C 105.45 98.47 104.21 97.23 102.97 95.98 C 101.16 97.90 99.51 99.99 97.53 101.75 C 95.76 101.48 94.96 99.46 93.80 98.29 C 96.70 95.35 99.55 92.35 102.00 89.02 C 100.73 87.88 99.47 86.74 98.20 85.62 C 93.97 90.14 90.07 94.98 85.63 99.30 M 229.90 103.71 C 233.05 106.72 235.74 110.21 239.07 113.03 C 242.59 115.62 247.83 114.98 250.46 111.45 C 253.48 107.85 258.71 105.25 258.89 100.00 C 258.83 93.41 252.54 89.74 248.93 85.01 C 242.38 91.02 236.00 97.25 229.90 103.71 M 133.59 97.54 C 117.27 106.32 104.18 120.67 96.28 137.37 C 79.86 137.28 63.44 137.31 47.03 137.34 C 38.24 137.22 30.86 145.36 30.98 153.96 C 31.02 168.98 31.01 183.99 30.98 199.01 C 30.94 207.52 38.24 215.54 46.92 215.48 C 63.37 215.57 79.82 215.49 96.27 215.51 C 101.67 226.79 109.37 237.03 118.89 245.15 C 133.01 257.42 151.30 264.63 169.95 265.64 C 186.27 266.35 202.82 262.24 216.84 253.84 C 232.01 245.03 244.12 231.30 251.65 215.51 C 268.12 215.49 284.59 215.55 301.06 215.49 C 310.09 215.53 317.47 206.75 317.11 197.98 C 317.06 183.33 317.10 168.67 317.10 154.02 C 316.99 145.45 309.74 137.28 300.93 137.35 C 284.48 137.28 268.03 137.33 251.59 137.33 C 239.88 111.93 215.32 92.59 187.53 88.36 C 169.21 85.13 149.87 88.61 133.59 97.54 M 75.62 224.49 C 73.07 225.82 69.94 226.67 68.39 229.32 C 65.19 233.89 67.31 240.30 71.09 243.83 C 73.54 246.30 77.65 246.46 80.57 244.77 C 79.73 242.93 78.90 241.09 78.06 239.26 C 74.58 240.50 71.38 237.39 72.58 233.87 C 74.86 230.76 79.13 230.25 82.35 228.43 C 85.50 226.42 89.16 230.69 87.68 233.70 C 86.89 234.51 86.07 235.28 85.20 236.01 C 86.11 238.00 87.14 239.95 88.56 241.63 C 90.27 239.94 92.51 238.45 93.12 235.97 C 94.42 230.75 91.82 224.57 86.85 222.30 C 82.97 220.59 79.07 222.85 75.62 224.49 M 258.62 223.68 C 255.85 226.66 253.82 230.83 254.80 234.98 C 255.60 238.43 258.57 240.93 261.81 242.08 C 265.77 243.56 269.74 246.89 274.21 245.22 C 279.78 242.88 283.22 235.33 280.14 229.85 C 278.19 226.30 274.04 225.27 270.71 223.52 C 269.22 226.76 267.85 230.05 266.26 233.25 C 267.77 233.94 269.28 234.62 270.80 235.31 C 271.54 233.90 272.22 232.46 272.98 231.05 C 274.41 232.18 276.49 233.69 275.68 235.83 C 275.36 237.71 273.66 238.67 272.15 239.53 C 268.42 238.19 264.61 236.82 261.33 234.54 C 259.72 233.23 259.96 230.71 261.12 229.17 C 262.07 227.40 264.30 227.88 265.95 227.72 C 266.77 225.84 267.50 223.92 268.03 221.93 C 264.83 221.34 261.10 221.20 258.62 223.68 M 79.52 253.61 C 78.64 254.40 77.50 255.02 76.99 256.14 C 77.77 257.96 79.17 259.39 80.36 260.94 C 82.93 258.92 85.48 256.87 88.03 254.82 C 90.34 257.93 92.56 262.40 96.93 262.65 C 103.01 263.54 108.07 256.31 105.37 250.82 C 103.11 246.77 100.01 243.24 97.18 239.58 C 91.24 244.19 85.40 248.93 79.52 253.61 M 247.02 244.46 C 250.85 247.59 254.91 250.45 258.45 253.91 C 252.86 253.38 247.36 252.26 241.80 251.52 C 240.50 253.12 239.23 254.75 238.04 256.43 C 245.05 261.70 251.70 267.43 258.59 272.85 C 259.89 271.30 261.14 269.72 262.32 268.07 C 258.58 264.70 254.39 261.88 250.78 258.37 C 256.44 259.13 262.12 259.85 267.72 261.05 C 268.84 259.39 270.47 257.93 271.03 255.96 C 264.35 250.46 257.64 244.99 250.89 239.59 C 249.61 241.22 248.32 242.84 247.02 244.46 M 110.37 257.27 C 104.90 264.05 99.59 270.97 94.31 277.90 C 95.92 279.23 97.49 280.60 99.04 281.99 C 101.06 279.24 103.17 276.57 105.23 273.85 C 106.11 274.28 106.99 274.71 107.87 275.15 C 106.77 279.00 105.67 282.87 105.10 286.85 C 106.64 288.22 108.28 289.50 109.96 290.71 C 110.86 286.74 111.87 282.79 112.83 278.83 C 115.32 278.84 118.33 279.23 120.16 277.13 C 122.21 274.80 123.67 271.40 122.44 268.34 C 121.02 264.41 117.01 262.48 114.12 259.79 C 112.89 258.99 111.87 257.39 110.37 257.27 M 230.77 262.45 C 236.25 269.46 242.24 276.06 247.87 282.95 C 249.32 281.53 250.78 280.12 252.26 278.73 C 246.86 271.68 240.90 265.08 235.22 258.26 C 233.75 259.67 232.27 261.07 230.77 262.45 M 223.06 268.25 C 225.72 272.53 228.08 277.00 230.68 281.33 C 225.60 278.75 220.78 275.73 215.78 273.01 L 215.29 273.04 C 213.71 273.99 212.14 274.94 210.57 275.90 C 215.05 283.58 219.43 291.31 223.77 299.06 C 225.60 298.11 227.38 297.05 229.08 295.89 C 226.60 291.55 224.06 287.25 221.60 282.90 C 226.91 285.23 231.59 288.73 236.81 291.23 C 238.46 290.26 240.11 289.27 241.74 288.26 C 237.07 280.67 232.98 272.74 228.34 265.13 C 226.58 266.17 224.82 267.21 223.06 268.25 M 133.97 274.52 C 133.51 276.11 133.03 277.70 132.53 279.29 C 134.58 280.27 136.66 281.16 138.80 281.94 C 136.84 288.84 133.87 295.39 132.05 302.33 C 133.95 302.91 135.85 303.48 137.77 303.99 C 140.27 297.37 142.24 290.56 144.85 283.97 C 147.00 284.93 149.19 285.81 151.38 286.69 C 152.03 284.97 152.64 283.24 153.20 281.49 C 146.85 279.03 140.52 276.36 133.97 274.52 M 201.49 278.89 C 204.36 287.24 207.54 295.50 210.11 303.95 C 212.16 303.47 214.17 302.85 216.15 302.14 C 213.10 293.71 210.47 285.11 207.19 276.78 C 205.30 277.50 203.39 278.21 201.49 278.89 M 155.04 281.74 C 153.75 290.63 153.31 299.61 152.38 308.54 C 154.32 308.78 156.27 308.99 158.22 309.19 C 158.68 305.62 159.00 302.04 159.49 298.48 C 160.36 298.54 161.24 298.59 162.12 298.65 C 163.42 302.46 164.85 306.24 165.83 310.15 C 167.98 310.32 170.12 310.49 172.27 310.63 C 170.90 306.76 169.45 302.92 168.37 298.96 C 175.12 297.17 175.71 286.59 169.53 283.74 C 164.90 282.08 159.84 282.65 155.04 281.74 M 183.94 282.73 C 181.96 291.97 181.16 301.40 179.77 310.74 C 181.89 310.48 184.00 310.16 186.10 309.80 C 186.21 308.48 186.32 307.16 186.43 305.84 C 189.41 305.26 192.41 304.76 195.38 304.12 C 195.95 305.36 196.53 306.60 197.10 307.85 C 199.14 307.59 201.17 307.33 203.21 307.08 C 200.00 298.30 195.37 290.10 191.41 281.64 C 188.94 282.16 186.44 282.51 183.94 282.73 Z" />
<path fill="#cb2329" opacity="1.00" d=" M 124.06 73.92 C 126.61 72.83 130.83 70.18 132.37 74.02 C 132.77 77.44 128.71 78.02 126.52 79.40 C 125.60 77.62 124.80 75.78 124.06 73.92 Z" />
<path fill="#cb2329" opacity="1.00" d=" M 215.46 73.26 C 215.73 73.22 216.26 73.15 216.53 73.12 C 215.94 76.61 215.39 80.11 214.86 83.61 C 212.99 82.77 211.11 81.94 209.24 81.11 C 211.37 78.54 213.47 75.94 215.46 73.26 Z" />
<path fill="#cb2329" opacity="1.00" d=" M 237.96 104.62 C 241.37 100.53 245.45 97.05 249.18 93.26 C 250.76 95.18 253.60 96.91 252.86 99.81 C 250.52 102.84 247.71 105.52 244.79 107.99 C 241.87 109.81 239.88 106.23 237.96 104.62 Z" />
<path fill="#cb2329" opacity="1.00" d=" M 154.97 127.01 C 155.60 124.78 158.25 125.32 159.99 125.21 C 170.81 125.42 181.66 124.87 192.46 125.51 C 193.71 129.58 193.06 133.86 193.19 138.03 C 193.29 144.17 192.97 150.33 193.41 156.46 C 194.88 156.95 196.39 157.39 197.96 157.28 C 205.97 157.28 213.98 157.17 221.99 157.30 C 223.62 157.13 224.98 158.38 224.81 160.04 C 224.89 171.00 224.91 181.96 224.80 192.91 C 224.92 194.54 223.43 195.66 221.91 195.57 C 213.27 195.75 204.62 195.51 195.97 195.65 C 194.63 195.61 193.02 196.45 193.27 198.00 C 193.07 206.36 193.27 214.72 193.21 223.08 C 193.23 224.55 192.73 225.96 192.35 227.36 C 181.58 228.01 170.77 227.45 159.98 227.67 C 158.09 227.68 154.83 227.81 154.91 225.10 C 154.74 216.38 154.96 207.65 154.84 198.93 C 155.09 197.27 153.76 195.55 152.02 195.68 C 143.38 195.48 134.73 195.75 126.09 195.59 C 124.17 195.80 122.71 193.88 123.02 192.07 C 122.98 181.08 123.00 170.09 123.02 159.11 C 123.39 158.67 124.14 157.79 124.51 157.35 C 133.70 157.09 142.90 157.40 152.08 157.20 C 153.77 157.34 155.02 155.64 154.84 154.05 C 155.00 145.04 154.66 136.01 154.97 127.01 Z" />
<path fill="#cb2329" opacity="1.00" d=" M 92.04 251.90 C 93.39 250.24 95.28 249.14 96.94 247.83 C 98.25 249.96 100.97 252.06 99.99 254.85 C 99.09 255.73 98.04 256.43 97.03 257.18 C 94.95 255.86 93.06 254.19 92.04 251.90 Z" />
<path fill="#cb2329" opacity="1.00" d=" M 108.49 269.54 C 109.71 268.07 110.91 266.59 112.11 265.12 C 114.09 266.90 118.42 268.99 116.19 272.19 C 113.79 275.31 110.50 271.22 108.49 269.54 Z" />
<path fill="#cb2329" opacity="1.00" d=" M 159.99 293.73 C 160.22 291.71 160.46 289.70 160.70 287.69 C 163.32 287.83 168.31 287.99 167.68 291.84 C 166.76 295.44 162.59 293.93 159.99 293.73 Z" />
<path fill="#cb2329" opacity="1.00" d=" M 188.78 289.69 C 190.43 292.90 192.01 296.16 193.11 299.61 C 191.12 299.92 189.13 300.22 187.15 300.56 C 187.88 296.97 188.07 293.29 188.78 289.69 Z" />
</g>
<g id="#fbfff5ff">
<path fill="#fbfff5" opacity="1.00" d=" M 168.92 56.06 C 175.73 55.84 182.51 56.61 189.32 56.80 C 189.31 58.51 189.30 60.21 189.29 61.92 C 187.04 61.99 184.80 61.88 182.56 61.78 C 181.20 62.75 181.84 64.60 181.59 66.00 C 181.42 71.47 181.41 76.96 181.09 82.43 C 179.40 83.90 176.86 82.73 174.83 82.97 C 174.87 75.80 175.27 68.64 175.90 61.50 C 173.68 61.43 171.46 61.39 169.25 61.37 C 168.94 59.62 168.86 57.84 168.92 56.06 Z" />
<path fill="#fbfff5" opacity="1.00" d=" M 151.10 58.10 C 156.31 56.46 162.16 59.88 162.92 65.37 C 161.04 65.76 159.15 66.15 157.26 66.51 C 156.19 63.24 151.57 62.34 149.44 65.03 C 149.05 66.56 149.64 68.27 151.41 68.41 C 154.73 69.37 158.40 68.92 161.55 70.45 C 165.25 72.30 166.41 77.60 163.92 80.88 C 160.98 84.73 155.62 86.29 151.00 85.12 C 147.71 84.23 145.47 81.09 145.29 77.75 C 147.12 77.43 148.95 77.09 150.79 76.79 C 151.93 78.79 154.18 80.94 156.66 79.67 C 158.66 79.18 159.96 76.44 157.83 75.17 C 153.26 73.60 146.75 74.92 144.20 69.81 C 141.06 64.80 145.91 58.79 151.10 58.10 Z" />
<path fill="#fbfff5" opacity="1.00" d=" M 200.28 82.17 C 205.46 76.26 210.48 70.22 215.60 64.26 C 217.85 65.28 220.14 66.23 222.45 67.13 C 221.93 76.61 220.81 86.05 219.90 95.50 C 217.85 94.62 215.79 93.77 213.70 92.99 C 213.89 91.65 214.14 90.32 214.33 88.97 C 211.60 87.52 208.84 86.12 205.90 85.14 C 205.17 86.19 204.45 87.24 203.73 88.29 C 201.78 87.44 199.84 86.57 197.90 85.72 C 198.55 84.44 199.29 83.22 200.28 82.17 M 215.46 73.26 C 213.47 75.94 211.37 78.54 209.24 81.11 C 211.11 81.94 212.99 82.77 214.86 83.61 C 215.39 80.11 215.94 76.61 216.53 73.12 C 216.26 73.15 215.73 73.22 215.46 73.26 Z" />
<path fill="#fbfff5" opacity="1.00" d=" M 127.86 66.19 C 132.08 64.36 136.84 67.69 137.86 71.87 C 138.91 74.55 137.66 77.27 136.27 79.54 C 139.40 82.06 142.44 84.67 145.61 87.14 C 143.64 88.18 141.71 89.84 139.36 89.75 C 136.43 87.48 133.84 84.81 130.97 82.46 C 130.35 82.82 129.12 83.53 128.50 83.89 C 129.94 87.04 131.44 90.17 133.07 93.23 C 131.25 94.42 129.33 95.43 127.31 96.22 C 123.96 87.97 119.60 80.18 116.29 71.93 C 120.11 69.95 123.98 68.05 127.86 66.19 M 124.06 73.92 C 124.80 75.78 125.60 77.62 126.52 79.40 C 128.71 78.02 132.77 77.44 132.37 74.02 C 130.83 70.18 126.61 72.83 124.06 73.92 Z" />
<path fill="#fbfff5" opacity="1.00" d=" M 236.54 75.95 C 238.44 76.98 240.22 78.21 241.83 79.65 C 236.52 86.65 231.79 94.07 226.72 101.25 C 225.06 100.09 222.54 99.34 222.06 97.14 C 226.82 90.03 231.81 83.07 236.54 75.95 Z" />
<path fill="#fbfff5" opacity="1.00" d=" M 104.17 81.02 C 105.74 79.74 107.33 78.49 108.94 77.26 C 114.18 84.43 119.28 91.71 124.58 98.84 C 123.00 100.14 121.40 101.41 119.79 102.65 C 114.34 95.62 109.20 88.34 104.17 81.02 Z" />
<path fill="#fbfff5" opacity="1.00" d=" M 85.63 99.30 C 90.07 94.98 93.97 90.14 98.20 85.62 C 99.47 86.74 100.73 87.88 102.00 89.02 C 99.55 92.35 96.70 95.35 93.80 98.29 C 94.96 99.46 95.76 101.48 97.53 101.75 C 99.51 99.99 101.16 97.90 102.97 95.98 C 104.21 97.23 105.45 98.47 106.67 99.74 C 104.82 101.75 102.98 103.76 101.21 105.84 C 103.78 108.38 106.50 110.77 108.87 113.49 C 107.49 114.94 106.14 116.40 104.81 117.88 C 98.42 111.69 91.73 105.78 85.63 99.30 Z" />
<path fill="#fbfff5" opacity="1.00" d=" M 229.90 103.71 C 236.00 97.25 242.38 91.02 248.93 85.01 C 252.54 89.74 258.83 93.41 258.89 100.00 C 258.71 105.25 253.48 107.85 250.46 111.45 C 247.83 114.98 242.59 115.62 239.07 113.03 C 235.74 110.21 233.05 106.72 229.90 103.71 M 237.96 104.62 C 239.88 106.23 241.87 109.81 244.79 107.99 C 247.71 105.52 250.52 102.84 252.86 99.81 C 253.60 96.91 250.76 95.18 249.18 93.26 C 245.45 97.05 241.37 100.53 237.96 104.62 Z" />
<path fill="#fbfff5" opacity="1.00" d=" M 133.59 97.54 C 149.87 88.61 169.21 85.13 187.53 88.36 C 215.32 92.59 239.88 111.93 251.59 137.33 C 263.26 161.64 263.14 191.16 251.65 215.51 C 244.12 231.30 232.01 245.03 216.84 253.84 C 202.82 262.24 186.27 266.35 169.95 265.64 C 151.30 264.63 133.01 257.42 118.89 245.15 C 109.37 237.03 101.67 226.79 96.27 215.51 C 84.85 191.17 84.77 161.69 96.28 137.37 C 104.18 120.67 117.27 106.32 133.59 97.54 M 154.97 127.01 C 154.66 136.01 155.00 145.04 154.84 154.05 C 155.02 155.64 153.77 157.34 152.08 157.20 C 142.90 157.40 133.70 157.09 124.51 157.35 C 124.14 157.79 123.39 158.67 123.02 159.11 C 123.00 170.09 122.98 181.08 123.02 192.07 C 122.71 193.88 124.17 195.80 126.09 195.59 C 134.73 195.75 143.38 195.48 152.02 195.68 C 153.76 195.55 155.09 197.27 154.84 198.93 C 154.96 207.65 154.74 216.38 154.91 225.10 C 154.83 227.81 158.09 227.68 159.98 227.67 C 170.77 227.45 181.58 228.01 192.35 227.36 C 192.73 225.96 193.23 224.55 193.21 223.08 C 193.27 214.72 193.07 206.36 193.27 198.00 C 193.02 196.45 194.63 195.61 195.97 195.65 C 204.62 195.51 213.27 195.75 221.91 195.57 C 223.43 195.66 224.92 194.54 224.80 192.91 C 224.91 181.96 224.89 171.00 224.81 160.04 C 224.98 158.38 223.62 157.13 221.99 157.30 C 213.98 157.17 205.97 157.28 197.96 157.28 C 196.39 157.39 194.88 156.95 193.41 156.46 C 192.97 150.33 193.29 144.17 193.19 138.03 C 193.06 133.86 193.71 129.58 192.46 125.51 C 181.66 124.87 170.81 125.42 159.99 125.21 C 158.25 125.32 155.60 124.78 154.97 127.01 Z" />
<path fill="#fbfff5" opacity="1.00" d=" M 75.62 224.49 C 79.07 222.85 82.97 220.59 86.85 222.30 C 91.82 224.57 94.42 230.75 93.12 235.97 C 92.51 238.45 90.27 239.94 88.56 241.63 C 87.14 239.95 86.11 238.00 85.20 236.01 C 86.07 235.28 86.89 234.51 87.68 233.70 C 89.16 230.69 85.50 226.42 82.35 228.43 C 79.13 230.25 74.86 230.76 72.58 233.87 C 71.38 237.39 74.58 240.50 78.06 239.26 C 78.90 241.09 79.73 242.93 80.57 244.77 C 77.65 246.46 73.54 246.30 71.09 243.83 C 67.31 240.30 65.19 233.89 68.39 229.32 C 69.94 226.67 73.07 225.82 75.62 224.49 Z" />
<path fill="#fbfff5" opacity="1.00" d=" M 258.62 223.68 C 261.10 221.20 264.83 221.34 268.03 221.93 C 267.50 223.92 266.77 225.84 265.95 227.72 C 264.30 227.88 262.07 227.40 261.12 229.17 C 259.96 230.71 259.72 233.23 261.33 234.54 C 264.61 236.82 268.42 238.19 272.15 239.53 C 273.66 238.67 275.36 237.71 275.68 235.83 C 276.49 233.69 274.41 232.18 272.98 231.05 C 272.22 232.46 271.54 233.90 270.80 235.31 C 269.28 234.62 267.77 233.94 266.26 233.25 C 267.85 230.05 269.22 226.76 270.71 223.52 C 274.04 225.27 278.19 226.30 280.14 229.85 C 283.22 235.33 279.78 242.88 274.21 245.22 C 269.74 246.89 265.77 243.56 261.81 242.08 C 258.57 240.93 255.60 238.43 254.80 234.98 C 253.82 230.83 255.85 226.66 258.62 223.68 Z" />
<path fill="#fbfff5" opacity="1.00" d=" M 79.52 253.61 C 85.40 248.93 91.24 244.19 97.18 239.58 C 100.01 243.24 103.11 246.77 105.37 250.82 C 108.07 256.31 103.01 263.54 96.93 262.65 C 92.56 262.40 90.34 257.93 88.03 254.82 C 85.48 256.87 82.93 258.92 80.36 260.94 C 79.17 259.39 77.77 257.96 76.99 256.14 C 77.50 255.02 78.64 254.40 79.52 253.61 M 92.04 251.90 C 93.06 254.19 94.95 255.86 97.03 257.18 C 98.04 256.43 99.09 255.73 99.99 254.85 C 100.97 252.06 98.25 249.96 96.94 247.83 C 95.28 249.14 93.39 250.24 92.04 251.90 Z" />
<path fill="#fbfff5" opacity="1.00" d=" M 247.02 244.46 C 248.32 242.84 249.61 241.22 250.89 239.59 C 257.64 244.99 264.35 250.46 271.03 255.96 C 270.47 257.93 268.84 259.39 267.72 261.05 C 262.12 259.85 256.44 259.13 250.78 258.37 C 254.39 261.88 258.58 264.70 262.32 268.07 C 261.14 269.72 259.89 271.30 258.59 272.85 C 251.70 267.43 245.05 261.70 238.04 256.43 C 239.23 254.75 240.50 253.12 241.80 251.52 C 247.36 252.26 252.86 253.38 258.45 253.91 C 254.91 250.45 250.85 247.59 247.02 244.46 Z" />
<path fill="#fbfff5" opacity="1.00" d=" M 110.37 257.27 C 111.87 257.39 112.89 258.99 114.12 259.79 C 117.01 262.48 121.02 264.41 122.44 268.34 C 123.67 271.40 122.21 274.80 120.16 277.13 C 118.33 279.23 115.32 278.84 112.83 278.83 C 111.87 282.79 110.86 286.74 109.96 290.71 C 108.28 289.50 106.64 288.22 105.10 286.85 C 105.67 282.87 106.77 279.00 107.87 275.15 C 106.99 274.71 106.11 274.28 105.23 273.85 C 103.17 276.57 101.06 279.24 99.04 281.99 C 97.49 280.60 95.92 279.23 94.31 277.90 C 99.59 270.97 104.90 264.05 110.37 257.27 M 108.49 269.54 C 110.50 271.22 113.79 275.31 116.19 272.19 C 118.42 268.99 114.09 266.90 112.11 265.12 C 110.91 266.59 109.71 268.07 108.49 269.54 Z" />
<path fill="#fbfff5" opacity="1.00" d=" M 230.77 262.45 C 232.27 261.07 233.75 259.67 235.22 258.26 C 240.90 265.08 246.86 271.68 252.26 278.73 C 250.78 280.12 249.32 281.53 247.87 282.95 C 242.24 276.06 236.25 269.46 230.77 262.45 Z" />
<path fill="#fbfff5" opacity="1.00" d=" M 223.06 268.25 C 224.82 267.21 226.58 266.17 228.34 265.13 C 232.98 272.74 237.07 280.67 241.74 288.26 C 240.11 289.27 238.46 290.26 236.81 291.23 C 231.59 288.73 226.91 285.23 221.60 282.90 C 224.06 287.25 226.60 291.55 229.08 295.89 C 227.38 297.05 225.60 298.11 223.77 299.06 C 219.43 291.31 215.05 283.58 210.57 275.90 C 212.14 274.94 213.71 273.99 215.29 273.04 L 215.78 273.01 C 220.78 275.73 225.60 278.75 230.68 281.33 C 228.08 277.00 225.72 272.53 223.06 268.25 Z" />
<path fill="#fbfff5" opacity="1.00" d=" M 133.97 274.52 C 140.52 276.36 146.85 279.03 153.20 281.49 C 152.64 283.24 152.03 284.97 151.38 286.69 C 149.19 285.81 147.00 284.93 144.85 283.97 C 142.24 290.56 140.27 297.37 137.77 303.99 C 135.85 303.48 133.95 302.91 132.05 302.33 C 133.87 295.39 136.84 288.84 138.80 281.94 C 136.66 281.16 134.58 280.27 132.53 279.29 C 133.03 277.70 133.51 276.11 133.97 274.52 Z" />
<path fill="#fbfff5" opacity="1.00" d=" M 201.49 278.89 C 203.39 278.21 205.30 277.50 207.19 276.78 C 210.47 285.11 213.10 293.71 216.15 302.14 C 214.17 302.85 212.16 303.47 210.11 303.95 C 207.54 295.50 204.36 287.24 201.49 278.89 Z" />
<path fill="#fbfff5" opacity="1.00" d=" M 155.04 281.74 C 159.84 282.65 164.90 282.08 169.53 283.74 C 175.71 286.59 175.12 297.17 168.37 298.96 C 169.45 302.92 170.90 306.76 172.27 310.63 C 170.12 310.49 167.98 310.32 165.83 310.15 C 164.85 306.24 163.42 302.46 162.12 298.65 C 161.24 298.59 160.36 298.54 159.49 298.48 C 159.00 302.04 158.68 305.62 158.22 309.19 C 156.27 308.99 154.32 308.78 152.38 308.54 C 153.31 299.61 153.75 290.63 155.04 281.74 M 159.99 293.73 C 162.59 293.93 166.76 295.44 167.68 291.84 C 168.31 287.99 163.32 287.83 160.70 287.69 C 160.46 289.70 160.22 291.71 159.99 293.73 Z" />
<path fill="#fbfff5" opacity="1.00" d=" M 183.94 282.73 C 186.44 282.51 188.94 282.16 191.41 281.64 C 195.37 290.10 200.00 298.30 203.21 307.08 C 201.17 307.33 199.14 307.59 197.10 307.85 C 196.53 306.60 195.95 305.36 195.38 304.12 C 192.41 304.76 189.41 305.26 186.43 305.84 C 186.32 307.16 186.21 308.48 186.10 309.80 C 184.00 310.16 181.89 310.48 179.77 310.74 C 181.16 301.40 181.96 291.97 183.94 282.73 M 188.78 289.69 C 188.07 293.29 187.88 296.97 187.15 300.56 C 189.13 300.22 191.12 299.92 193.11 299.61 C 192.01 296.16 190.43 292.90 188.78 289.69 Z" />
<path fill="#fbfff5" opacity="1.00" d=" M 0.00 349.00 C 115.67 349.00 231.33 349.00 347.00 349.00 L 347.00 350.00 L 0.00 350.00 L 0.00 349.00 Z" />
</g>
<g id="#d8ddd0ff">
<path fill="#d8ddd0" opacity="1.00" d=" M 30.98 153.96 C 30.86 145.36 38.24 137.22 47.03 137.34 C 63.44 137.31 79.86 137.28 96.28 137.37 C 84.77 161.69 84.85 191.17 96.27 215.51 C 79.82 215.49 63.37 215.57 46.92 215.48 C 38.24 215.54 30.94 207.52 30.98 199.01 C 31.01 183.99 31.02 168.98 30.98 153.96 Z" />
<path fill="#d8ddd0" opacity="1.00" d=" M 251.59 137.33 C 268.03 137.33 284.48 137.28 300.93 137.35 C 309.74 137.28 316.99 145.45 317.10 154.02 C 317.10 168.67 317.06 183.33 317.11 197.98 C 317.47 206.75 310.09 215.53 301.06 215.49 C 284.59 215.55 268.12 215.49 251.65 215.51 C 263.14 191.16 263.26 161.64 251.59 137.33 Z" />
</g>
</svg>
