<?xml version="1.0" encoding="UTF-8" ?>
<!DOCTYPE svg PUBLIC "-//W3C//DTD SVG 1.1//EN" "http://www.w3.org/Graphics/SVG/1.1/DTD/svg11.dtd">
<svg width="373pt" height="561pt" viewBox="0 0 373 561" version="1.1" xmlns="http://www.w3.org/2000/svg">
<g id="#fefefeff">
</g>
<g id="#036e3bff">
<path fill="#036e3b" opacity="1.00" d=" M 8.60 14.63 C 10.42 12.00 12.81 8.70 16.26 8.63 C 18.06 9.42 19.98 10.00 21.97 9.85 C 117.31 9.81 212.66 9.83 308.00 9.83 C 310.00 9.96 311.91 9.33 313.71 8.51 C 316.51 8.00 319.01 10.18 320.81 12.09 C 323.41 14.73 322.75 18.67 322.87 22.04 C 322.84 194.68 322.86 367.33 322.86 539.98 C 322.80 543.39 323.12 546.84 322.45 550.21 C 320.51 554.04 316.46 557.03 312.00 556.59 C 214.04 556.61 116.08 556.63 18.12 556.59 C 13.87 556.78 10.78 553.41 8.58 550.21 C 8.44 468.46 8.56 386.71 8.52 304.96 C 8.57 208.18 8.42 111.41 8.60 14.63 M 16.50 14.51 C 15.81 15.23 15.13 15.94 14.44 16.65 C 14.12 21.08 14.27 25.52 14.25 29.96 C 14.24 177.98 14.25 326.00 14.25 474.01 C 14.37 498.78 13.99 523.56 14.44 548.32 C 15.82 549.30 17.05 550.91 18.95 550.57 C 117.35 550.47 215.75 550.76 314.14 550.42 C 314.63 550.07 315.60 549.36 316.09 549.01 C 316.48 548.06 316.88 547.12 317.29 546.19 C 317.29 370.76 317.30 195.32 317.29 19.89 C 317.52 17.62 315.92 15.86 314.43 14.40 C 217.29 14.18 120.15 14.38 23.01 14.29 C 20.84 14.28 18.66 14.37 16.50 14.51 Z" />
</g>
<g id="#045c2dff">
<path fill="#045c2d" opacity="1.00" d=" M 16.26 8.63 C 19.49 8.08 22.77 8.31 26.03 8.29 C 118.71 8.28 211.39 8.29 304.07 8.29 C 307.28 8.30 310.51 8.16 313.71 8.51 C 311.91 9.33 310.00 9.96 308.00 9.83 C 212.66 9.83 117.31 9.81 21.97 9.85 C 19.98 10.00 18.06 9.42 16.26 8.63 Z" />
</g>
<g id="#fcfcfcff">
<path fill="#fcfcfc" opacity="1.00" d=" M 16.50 14.51 C 18.66 14.37 20.84 14.28 23.01 14.29 C 120.15 14.38 217.29 14.18 314.43 14.40 C 315.92 15.86 317.52 17.62 317.29 19.89 C 317.30 195.32 317.29 370.76 317.29 546.19 C 316.88 547.12 316.48 548.06 316.09 549.01 C 315.60 549.36 314.63 550.07 314.14 550.42 C 215.75 550.76 117.35 550.47 18.95 550.57 C 17.05 550.91 15.82 549.30 14.44 548.32 C 13.99 523.56 14.37 498.78 14.25 474.01 C 14.25 326.00 14.24 177.98 14.25 29.96 C 14.27 25.52 14.12 21.08 14.44 16.65 C 15.13 15.94 15.81 15.23 16.50 14.51 M 23.25 31.98 C 23.24 196.67 23.26 361.36 23.25 526.05 C 23.35 529.29 22.89 532.65 23.89 535.79 C 25.20 537.48 26.68 539.65 29.06 539.70 C 45.03 540.15 61.02 539.53 76.99 539.98 C 81.67 539.64 86.34 540.15 91.00 539.97 C 129.32 539.85 167.67 539.71 206.00 539.99 C 234.67 539.52 263.35 540.18 291.98 539.86 C 295.57 540.20 299.18 539.95 302.78 539.67 C 305.95 538.61 308.11 535.34 307.81 532.00 C 307.79 364.99 307.84 197.99 307.79 30.99 C 308.23 26.85 304.34 22.62 300.09 23.27 C 210.37 23.31 120.65 23.24 30.93 23.30 C 26.19 22.63 22.61 27.57 23.25 31.98 Z" />
<path fill="#fcfcfc" opacity="1.00" d=" M 154.97 306.03 C 162.19 302.84 169.85 300.27 177.72 299.41 C 183.07 300.01 188.45 300.23 193.83 300.37 C 193.58 300.67 193.09 301.27 192.84 301.57 C 185.63 302.22 178.27 300.95 171.15 302.79 C 165.74 303.69 160.46 305.93 154.97 306.03 Z" />
</g>
<g id="#006e3aff">
<path fill="#006e3a" opacity="1.00" d=" M 23.25 31.98 C 22.61 27.57 26.19 22.63 30.93 23.30 C 120.65 23.24 210.37 23.31 300.09 23.27 C 304.34 22.62 308.23 26.85 307.79 30.99 C 307.84 197.99 307.79 364.99 307.81 532.00 C 308.11 535.34 305.95 538.61 302.78 539.67 C 299.18 539.95 295.57 540.20 291.98 539.86 C 263.35 540.18 234.67 539.52 206.00 539.99 C 167.67 539.71 129.32 539.85 91.00 539.97 C 86.34 540.15 81.67 539.64 76.99 539.98 C 61.02 539.53 45.03 540.15 29.06 539.70 C 26.68 539.65 25.20 537.48 23.89 535.79 C 22.89 532.65 23.35 529.29 23.25 526.05 C 23.26 361.36 23.24 196.67 23.25 31.98 M 45.41 37.21 C 44.19 37.86 42.37 38.30 42.11 39.89 C 40.46 39.72 39.87 40.45 40.34 42.07 C 40.00 42.27 39.32 42.65 38.98 42.84 C 35.80 49.78 36.16 57.95 38.76 65.01 C 41.14 71.46 48.13 75.52 54.90 75.07 C 58.39 74.68 62.17 75.07 65.38 73.42 L 65.42 71.25 C 61.35 72.16 57.02 73.11 52.92 71.75 C 48.29 70.73 45.00 66.58 43.85 62.15 C 42.27 55.85 42.06 48.88 44.92 42.92 C 48.21 36.50 58.55 36.82 62.25 42.63 C 63.27 44.05 63.22 46.56 65.38 46.80 C 65.28 43.76 65.15 40.72 65.16 37.68 C 58.79 35.92 51.81 35.07 45.41 37.21 M 68.17 36.24 C 68.13 36.71 68.04 37.66 68.00 38.14 L 69.05 37.33 C 70.09 38.09 71.25 38.49 72.55 38.52 L 72.95 38.16 C 73.52 40.74 73.71 43.39 73.66 46.02 C 73.56 54.34 73.76 62.66 73.55 70.98 C 73.30 71.37 72.81 72.14 72.56 72.52 C 71.07 72.83 69.58 73.15 68.10 73.47 C 68.31 73.77 68.74 74.35 68.96 74.64 L 68.05 75.67 C 70.64 76.44 73.33 75.94 75.97 75.83 C 82.50 75.50 89.10 76.45 95.58 75.49 L 96.27 74.53 L 96.63 74.54 L 96.57 74.22 C 97.18 71.67 97.31 69.04 97.33 66.43 C 96.27 66.39 94.58 66.59 95.21 68.08 C 92.80 74.25 84.90 71.78 79.83 71.94 C 79.63 71.13 79.39 70.33 79.11 69.55 C 79.48 64.87 79.17 60.17 79.37 55.49 C 83.33 55.89 87.49 55.06 91.24 56.76 C 91.74 58.18 92.28 59.59 92.86 60.99 C 94.45 57.20 93.10 52.68 93.49 48.62 C 93.08 48.65 92.27 48.72 91.86 48.75 C 91.77 49.90 91.68 51.05 91.59 52.20 C 87.69 54.58 82.89 53.08 78.58 53.39 L 78.59 53.21 C 80.05 48.75 78.93 43.89 79.33 39.26 C 84.51 39.92 90.58 38.73 94.34 43.27 L 94.41 44.02 C 94.94 43.95 96.00 43.80 96.54 43.72 C 96.23 41.33 97.03 38.46 95.85 36.37 C 86.63 36.41 77.40 36.34 68.17 36.24 M 132.09 36.24 C 131.74 38.99 131.59 41.76 131.57 44.53 C 132.30 44.43 134.33 45.27 133.57 43.77 C 134.28 42.39 135.02 41.03 135.76 39.66 C 138.66 38.88 141.66 38.70 144.66 38.69 C 144.90 49.08 144.88 59.49 144.67 69.89 C 144.86 73.03 141.20 73.23 138.94 73.49 C 139.14 73.79 139.53 74.38 139.72 74.68 L 138.66 75.88 C 144.66 75.52 150.70 76.56 156.64 75.82 C 156.73 75.35 156.92 74.39 157.02 73.91 L 156.84 73.96 C 155.03 73.44 153.19 73.07 151.41 72.45 C 149.88 70.73 150.53 68.12 150.31 66.01 C 150.57 56.91 149.92 47.77 150.65 38.70 C 153.51 38.73 156.36 39.08 159.15 39.72 C 159.85 40.63 160.54 41.55 161.24 42.47 L 160.45 43.25 C 161.12 44.44 162.34 44.71 163.59 44.82 C 163.55 41.94 163.58 39.03 162.78 36.24 C 152.55 36.26 142.32 36.30 132.09 36.24 M 99.87 37.43 C 99.63 40.53 103.04 40.25 105.11 40.91 C 105.51 48.59 105.09 56.30 105.29 63.99 C 105.25 66.95 105.80 70.19 103.90 72.73 C 102.53 73.23 99.95 72.57 99.94 74.65 C 105.12 74.35 110.31 74.64 115.47 74.50 C 115.66 74.27 116.05 73.82 116.24 73.59 C 114.08 73.07 110.86 73.14 110.77 70.16 C 110.43 65.26 110.81 60.32 110.61 55.41 C 111.48 55.41 112.35 55.42 113.22 55.43 C 117.22 61.70 121.12 68.04 124.99 74.39 C 128.31 74.54 131.64 74.61 134.96 74.33 C 133.79 72.82 131.56 73.00 130.24 71.71 C 127.22 68.91 125.60 65.03 123.33 61.67 C 122.01 59.40 120.13 57.40 119.39 54.83 C 121.29 54.48 123.27 54.22 124.96 53.21 C 129.98 50.72 131.25 42.72 126.82 39.11 C 120.60 35.16 112.92 36.93 105.98 36.52 C 103.98 36.76 101.47 35.88 99.87 37.43 M 165.49 37.25 C 167.09 37.75 168.71 38.20 170.34 38.59 C 171.73 41.21 171.40 44.22 171.41 47.07 C 171.35 54.91 171.47 62.75 171.31 70.59 C 171.05 71.07 170.52 72.04 170.25 72.52 C 168.78 72.72 167.35 73.11 165.90 73.43 C 166.19 73.72 166.75 74.30 167.04 74.59 L 166.97 75.95 C 177.28 75.81 187.59 75.77 197.91 75.90 L 197.80 74.49 L 199.30 74.14 C 197.19 72.59 192.98 73.63 192.75 70.15 C 192.59 65.63 192.77 61.10 192.64 56.58 C 192.86 56.35 193.30 55.90 193.52 55.67 C 196.66 55.56 199.81 55.73 202.95 55.67 C 203.57 56.17 204.81 57.17 205.43 57.67 C 205.44 58.61 205.50 59.55 205.60 60.49 C 206.05 60.48 206.95 60.47 207.40 60.46 C 207.40 56.68 207.35 52.90 207.38 49.12 C 206.99 49.14 206.19 49.18 205.79 49.20 C 205.43 50.57 204.97 51.90 204.41 53.20 C 200.50 53.46 196.59 53.50 192.68 53.40 C 192.69 48.85 192.74 44.30 192.76 39.75 C 196.93 38.03 201.79 38.61 206.09 39.64 C 207.04 41.24 207.90 43.02 209.59 43.99 C 209.60 41.50 209.53 39.01 209.39 36.52 C 202.30 36.53 195.21 36.56 188.12 36.54 C 181.72 36.62 175.33 36.48 168.94 36.55 C 167.73 36.50 166.58 36.74 165.49 37.25 M 212.91 36.63 L 213.71 37.92 L 212.59 37.95 C 213.98 38.47 215.40 38.90 216.84 39.32 C 217.90 50.08 216.59 60.97 217.45 71.72 L 217.24 72.38 C 215.75 72.74 214.27 73.14 212.80 73.55 C 213.10 73.82 213.69 74.34 213.99 74.61 L 214.06 75.88 C 222.37 75.69 230.67 76.19 238.98 75.76 C 245.29 75.40 251.59 76.49 257.89 75.96 C 258.24 72.77 258.89 69.41 257.46 66.37 C 254.55 67.09 255.30 71.59 251.96 71.78 C 247.87 72.21 243.43 72.85 239.49 71.43 C 239.26 65.93 239.88 60.39 239.11 54.92 L 239.53 55.73 C 242.98 55.87 246.59 55.16 249.95 56.08 C 252.16 56.56 251.80 59.46 253.67 60.26 C 253.76 56.46 253.74 52.67 253.68 48.87 C 251.72 49.64 252.47 52.69 250.22 53.36 C 246.65 53.59 243.07 53.37 239.50 53.44 C 239.42 48.83 239.47 44.21 239.57 39.60 C 242.97 38.16 246.81 38.78 250.38 39.03 C 252.94 39.14 254.33 41.43 255.18 43.55 C 254.86 43.81 254.21 44.31 253.89 44.56 C 255.13 44.65 256.38 44.65 257.62 44.58 C 259.32 43.16 260.18 40.93 262.04 39.69 C 264.71 39.13 263.96 42.39 264.18 43.99 C 263.91 53.09 264.70 62.25 263.55 71.30 C 261.49 71.84 258.88 72.52 259.59 75.30 C 267.42 75.63 275.27 75.42 283.10 75.14 C 283.32 74.71 283.77 73.84 283.99 73.40 C 287.17 72.47 290.31 70.65 292.07 67.75 C 295.00 63.93 295.53 58.65 295.34 53.94 C 295.04 48.76 293.66 42.93 289.04 39.92 C 282.41 35.26 273.86 36.80 266.27 36.54 C 264.21 36.72 261.88 36.00 260.06 37.23 C 259.72 37.96 259.06 39.42 258.73 40.16 C 257.87 38.96 257.01 37.76 256.17 36.56 C 248.00 36.64 239.77 36.27 231.63 36.71 C 228.52 36.48 225.40 36.64 222.29 36.45 L 220.92 36.62 C 218.25 36.53 215.58 36.55 212.91 36.63 M 43.41 119.63 C 42.52 122.27 40.30 124.14 37.40 123.81 C 37.41 124.22 37.43 125.03 37.44 125.44 C 42.01 125.15 46.61 125.62 51.17 125.10 C 49.74 124.19 48.15 123.62 46.53 123.18 C 46.48 119.38 48.58 116.10 49.77 112.61 C 54.80 112.74 59.83 112.58 64.85 112.70 C 65.86 116.26 68.57 119.56 67.67 123.43 C 66.94 123.57 65.47 123.84 64.74 123.97 C 63.33 124.78 63.43 125.21 65.04 125.28 C 74.04 125.40 83.03 125.31 92.03 125.39 C 92.79 125.39 93.51 125.21 94.19 124.86 C 92.72 124.30 91.23 123.81 89.71 123.41 C 89.15 122.36 88.36 121.34 88.48 120.08 C 88.40 115.38 88.56 110.68 88.43 105.99 C 89.08 106.06 90.39 106.22 91.04 106.29 C 95.35 112.58 98.63 119.67 103.62 125.43 C 106.74 125.34 109.87 125.47 112.98 125.08 C 110.61 123.85 107.80 123.03 106.32 120.63 C 102.96 115.82 99.97 110.75 96.99 105.71 C 99.46 105.18 102.04 104.65 104.12 103.13 C 107.60 100.35 108.34 94.85 105.84 91.21 C 103.22 88.13 98.89 87.37 95.05 87.34 C 89.11 87.34 83.15 87.19 77.21 87.44 C 78.58 88.89 80.83 88.68 82.50 89.63 C 83.94 97.34 83.00 105.21 83.27 113.00 C 83.10 116.64 84.17 120.96 81.27 123.83 C 79.65 123.65 77.96 123.85 76.40 123.36 C 74.43 122.00 73.30 119.81 72.48 117.63 C 68.39 107.30 64.14 97.02 60.11 86.66 C 59.30 86.66 57.69 86.66 56.89 86.66 C 52.05 97.50 47.99 108.68 43.41 119.63 M 113.00 87.30 C 113.02 87.60 113.07 88.18 113.10 88.48 C 114.67 88.42 116.16 88.83 117.51 89.64 C 118.87 95.99 117.95 102.53 118.22 108.97 C 117.97 113.75 118.98 118.75 117.16 123.32 C 115.60 123.63 113.46 123.31 112.88 125.23 C 118.92 125.39 124.97 125.35 131.01 125.30 C 134.50 124.88 138.40 124.59 141.15 122.15 C 144.97 119.21 145.29 113.16 142.69 109.32 C 141.26 106.87 138.46 105.88 135.91 105.09 C 140.22 103.29 143.29 98.82 141.98 94.06 C 141.14 89.73 136.59 87.82 132.63 87.52 C 126.10 87.10 119.54 87.42 113.00 87.30 M 152.36 92.48 C 148.68 98.28 148.99 105.50 149.58 112.07 C 150.18 117.86 153.71 124.04 159.81 125.27 C 164.80 126.09 170.66 126.33 174.72 122.75 C 179.00 119.20 179.98 113.30 180.34 108.06 C 180.45 102.17 180.04 95.58 175.97 90.93 C 172.65 86.81 166.80 86.35 161.90 86.72 C 158.21 87.55 154.47 89.16 152.36 92.48 M 181.14 87.41 C 181.93 89.49 185.08 87.97 186.08 90.06 C 187.09 94.96 186.43 100.02 186.61 104.98 C 186.45 110.71 187.03 116.48 186.25 122.17 C 185.51 123.74 183.73 123.60 182.29 123.88 C 182.31 124.27 182.35 125.06 182.36 125.46 C 187.11 125.26 191.86 125.32 196.61 125.45 C 196.65 125.03 196.72 124.20 196.76 123.78 C 195.51 123.65 194.28 123.52 193.04 123.38 C 192.71 122.44 192.37 121.49 192.04 120.56 C 192.37 115.94 192.26 111.31 192.14 106.68 C 192.30 106.36 192.62 105.70 192.78 105.37 C 195.13 106.26 196.08 108.71 197.39 110.63 C 200.14 115.28 203.33 119.66 205.80 124.47 C 206.09 124.65 206.65 125.00 206.94 125.18 C 214.51 125.68 222.14 125.29 229.73 125.29 C 231.92 126.52 230.59 122.19 229.40 124.48 L 228.24 123.41 L 227.21 123.58 C 225.58 120.62 226.31 117.17 226.18 113.96 C 226.34 105.88 225.83 97.78 226.50 89.71 C 228.18 88.75 230.05 88.38 231.97 88.25 C 231.38 87.19 230.08 87.39 229.06 87.32 C 224.37 87.31 219.66 87.23 214.97 87.46 C 215.34 88.98 217.05 88.32 218.17 88.59 C 219.92 95.61 218.54 102.80 218.92 109.93 C 218.71 113.62 219.81 117.65 218.06 121.09 C 216.75 124.08 213.10 121.71 210.77 121.74 C 206.77 116.79 204.17 110.90 200.41 105.78 C 203.44 105.10 206.89 104.47 208.97 101.93 C 211.28 99.50 210.85 95.78 210.47 92.73 C 208.64 89.79 205.53 87.81 202.05 87.60 C 195.09 87.09 188.10 87.33 181.14 87.41 M 245.19 87.57 C 242.71 86.87 240.14 88.76 238.39 90.41 C 235.51 92.76 236.27 96.94 236.62 100.18 C 240.16 106.14 247.76 107.19 252.97 111.19 C 255.62 112.84 255.89 116.40 255.01 119.13 C 253.64 120.40 252.42 121.97 250.66 122.71 C 247.62 122.23 244.55 121.81 241.48 122.12 C 238.50 121.18 238.30 117.47 235.71 116.15 C 236.04 119.17 233.99 125.60 238.94 125.34 C 245.33 125.57 253.26 127.11 258.15 121.91 L 259.06 121.80 C 261.08 118.81 262.16 115.00 260.68 111.53 C 260.66 111.47 260.61 111.36 260.59 111.31 C 258.66 107.65 254.74 104.66 250.81 103.84 L 250.66 102.97 L 249.70 102.54 L 248.93 103.02 C 247.11 101.12 244.14 100.70 242.45 98.58 C 240.59 97.03 241.37 94.43 241.46 92.37 C 242.75 91.15 244.12 90.01 245.70 89.19 C 249.05 89.47 253.17 88.42 255.61 91.44 C 257.43 92.47 256.93 95.63 259.36 95.74 C 259.40 93.00 259.48 90.21 258.66 87.56 C 254.33 87.01 249.97 86.28 245.59 86.75 C 245.49 86.95 245.29 87.36 245.19 87.57 M 263.54 87.44 L 263.56 88.49 C 261.39 88.53 261.61 93.12 263.36 93.52 L 263.23 94.75 C 265.76 95.32 265.66 92.06 266.87 90.63 C 269.85 89.35 273.12 89.50 276.29 89.57 C 276.34 100.25 276.20 110.94 276.34 121.62 L 275.59 122.42 C 274.50 123.54 272.97 123.81 271.46 123.73 C 271.36 124.14 271.15 124.96 271.05 125.37 C 276.25 125.34 281.47 125.17 286.67 125.48 C 286.66 125.05 286.63 124.20 286.62 123.78 C 285.45 123.65 284.28 123.54 283.11 123.45 C 282.75 123.16 282.03 122.57 281.67 122.28 C 281.45 111.34 281.60 100.39 281.57 89.45 C 283.72 89.51 285.87 89.59 288.03 89.63 C 290.59 90.29 292.58 92.16 292.85 94.89 C 293.25 94.82 294.05 94.67 294.45 94.60 C 294.32 92.25 294.25 89.91 294.24 87.56 C 284.02 87.10 273.77 87.31 263.54 87.44 M 265.05 138.91 C 266.12 139.59 267.19 140.29 268.27 140.97 C 268.75 141.63 269.25 142.26 269.79 142.87 C 270.26 143.10 271.19 143.56 271.66 143.79 L 271.54 144.88 C 272.88 146.71 273.76 148.80 274.44 150.95 C 273.42 159.07 264.67 163.01 263.18 170.93 C 261.85 175.38 264.60 179.52 266.99 183.03 C 270.45 188.18 270.15 195.01 267.34 200.37 C 263.07 206.77 255.99 210.06 249.86 214.23 C 249.56 214.31 248.95 214.48 248.65 214.56 L 248.11 215.13 C 243.04 217.18 238.01 220.17 234.75 224.66 C 233.44 226.82 232.03 229.80 233.38 232.24 L 233.12 232.99 C 234.54 234.41 235.93 236.18 238.05 236.53 C 250.96 238.08 263.22 232.64 275.90 231.41 C 280.94 230.88 286.49 232.13 290.05 235.95 C 292.51 238.28 292.55 241.88 293.19 244.98 C 292.87 249.11 291.68 253.19 288.46 255.99 L 288.38 256.16 C 285.92 257.23 283.81 258.89 281.62 260.40 C 279.94 265.59 278.36 270.85 275.26 275.41 L 274.90 275.33 L 274.15 276.30 C 268.85 277.27 263.39 276.47 258.03 276.74 C 253.90 277.04 249.91 275.96 245.95 274.98 C 235.09 273.10 223.97 273.41 213.04 274.55 C 210.90 274.76 209.15 276.19 207.28 277.12 C 204.99 277.14 203.17 278.49 201.53 279.95 C 201.54 281.27 201.54 282.59 201.55 283.92 C 203.55 285.33 205.21 287.93 207.96 287.70 C 209.97 287.82 211.90 287.19 213.70 286.34 L 213.94 286.50 C 215.85 285.76 217.89 285.43 219.87 284.88 C 222.07 284.54 224.28 284.15 226.39 283.39 C 231.89 283.87 237.57 282.71 242.93 284.43 C 250.31 286.30 257.44 291.36 259.39 299.05 C 259.77 302.68 259.44 306.34 259.57 309.98 C 259.85 317.01 257.64 323.90 254.29 330.02 C 251.06 335.21 246.71 339.45 242.09 343.39 C 239.02 345.21 235.33 344.76 231.93 344.54 C 216.42 342.43 203.45 332.13 188.05 329.69 C 182.91 330.12 178.28 332.96 173.78 335.26 C 172.36 335.34 170.95 335.42 169.53 335.51 C 169.49 336.29 169.41 337.86 169.37 338.64 C 166.05 341.64 163.81 345.68 162.70 349.99 C 162.18 356.25 166.25 361.47 170.54 365.52 C 175.83 370.54 180.63 377.35 179.64 385.04 C 178.76 392.54 174.53 399.96 167.99 403.92 C 160.08 405.14 151.95 403.47 144.01 402.73 C 138.14 402.53 134.38 397.32 129.05 395.72 C 124.56 394.94 119.94 395.69 115.59 396.88 C 102.65 400.55 92.24 409.63 79.85 414.60 C 80.63 414.65 82.20 414.75 82.99 414.81 C 151.00 414.80 219.01 414.82 287.01 414.80 C 290.82 415.19 294.89 412.08 294.77 408.11 C 294.87 356.64 294.75 305.16 294.83 253.69 C 294.69 246.51 294.83 239.34 294.79 232.17 C 294.80 203.44 294.83 174.71 294.78 145.97 C 294.98 143.07 292.50 140.55 289.96 139.58 C 281.69 138.67 273.30 139.84 265.05 138.91 M 39.40 140.35 C 36.63 141.76 35.66 145.13 35.79 148.02 C 35.80 195.71 35.82 243.40 35.78 291.08 L 36.46 290.78 C 41.67 291.18 46.60 293.01 50.94 295.90 C 57.34 299.78 64.74 304.42 72.53 301.99 L 72.15 301.53 C 74.09 300.75 76.08 299.86 78.05 299.07 C 82.40 295.39 83.58 288.75 81.71 283.50 C 77.42 271.00 70.47 259.64 65.86 247.27 C 63.57 241.74 62.54 235.40 64.78 229.69 C 68.10 220.42 78.59 216.31 81.95 207.05 C 83.82 201.24 85.31 195.12 89.02 190.13 C 90.76 187.98 92.76 185.66 95.67 185.25 C 98.89 185.64 102.33 185.20 105.32 186.75 C 111.16 189.27 114.72 195.16 116.43 201.06 C 120.46 212.68 120.08 225.20 123.03 237.06 C 123.61 239.85 125.14 242.30 126.91 244.49 C 128.34 244.56 129.78 244.64 131.21 244.72 C 131.63 244.11 132.46 242.90 132.88 242.29 C 133.76 242.35 134.65 242.42 135.55 242.51 C 138.74 240.88 140.04 237.35 140.75 234.06 C 144.39 218.69 142.89 202.76 143.74 187.14 C 145.45 179.47 147.35 170.69 153.83 165.57 C 158.18 165.58 162.71 166.21 166.84 164.49 C 166.77 164.29 166.63 163.90 166.57 163.71 C 176.18 163.14 180.94 153.79 187.91 148.64 C 191.30 148.55 194.42 150.60 196.45 153.20 C 197.21 155.86 198.42 158.53 197.98 161.36 C 197.23 171.63 190.13 179.77 186.61 189.09 C 185.37 192.17 187.54 194.97 189.99 196.59 C 191.83 195.42 193.70 194.30 195.58 193.21 C 199.71 190.23 204.18 187.44 207.05 183.10 C 212.60 175.74 213.08 166.12 217.25 158.10 C 219.13 154.18 222.00 150.83 225.12 147.84 C 225.95 149.57 228.49 149.34 229.93 148.56 C 230.63 148.55 232.02 148.54 232.72 148.54 L 232.88 148.74 C 234.92 149.41 236.99 150.09 239.13 150.33 C 241.10 149.84 242.90 148.88 244.56 147.72 C 248.51 145.51 251.75 142.20 255.18 139.27 C 185.77 139.24 116.35 139.29 46.94 139.25 C 44.42 139.37 41.59 138.78 39.40 140.35 M 241.18 185.30 C 239.60 187.69 237.52 189.72 236.11 192.23 C 231.92 196.02 228.49 200.55 224.19 204.23 C 210.35 217.44 194.06 227.89 181.06 242.03 C 168.48 255.93 156.97 270.77 145.76 285.79 C 133.92 301.69 124.48 319.18 114.01 335.98 C 102.12 356.73 87.91 376.05 72.14 394.02 C 70.49 395.33 69.11 396.98 68.17 398.87 C 78.23 393.50 85.81 384.66 92.93 375.96 C 104.39 361.32 114.33 345.53 123.17 329.20 C 130.62 317.39 138.27 305.71 146.32 294.30 C 155.94 280.19 167.05 267.19 178.52 254.58 C 191.10 241.11 203.85 227.74 218.00 215.88 C 230.18 204.94 242.02 192.90 249.21 178.00 C 250.57 174.46 250.65 170.67 250.26 166.95 C 248.06 173.43 245.19 179.73 241.18 185.30 M 164.54 198.08 C 160.35 210.62 162.27 224.07 161.64 237.04 C 161.76 239.51 159.63 241.35 159.73 243.83 C 160.70 240.78 162.93 238.08 162.62 234.73 L 163.42 234.72 C 164.59 228.88 167.10 223.00 165.93 216.97 C 166.41 213.66 166.39 210.31 166.02 206.99 C 165.59 200.84 168.22 195.04 168.62 188.98 C 166.71 191.69 165.16 194.82 164.54 198.08 M 99.62 249.99 C 98.87 261.44 104.02 272.04 107.54 282.64 C 109.32 289.02 110.90 295.44 111.56 302.06 C 111.88 293.84 110.74 285.67 108.39 277.79 C 109.05 274.45 109.38 271.06 110.04 267.73 C 108.63 268.84 107.31 270.06 106.10 271.40 L 105.72 270.83 L 105.71 270.78 L 105.68 269.46 C 107.56 267.66 107.48 263.30 104.39 262.95 C 102.46 253.19 103.98 243.16 102.92 233.31 C 103.53 229.69 102.71 226.03 102.45 222.41 C 102.07 220.84 102.21 218.44 100.22 217.99 C 100.08 217.74 99.79 217.24 99.64 216.99 C 99.35 215.67 99.10 214.35 98.84 213.03 C 99.88 225.30 99.80 237.66 99.62 249.99 M 262.97 250.75 C 261.66 251.28 260.31 251.67 259.02 252.24 C 254.04 252.87 249.04 252.19 244.06 252.30 C 238.79 252.21 233.48 252.71 228.28 251.65 C 222.72 250.03 216.81 249.47 211.06 250.27 C 204.72 250.29 199.19 253.73 193.35 255.65 C 193.37 255.85 193.40 256.25 193.41 256.45 C 196.34 255.93 199.03 254.64 201.85 253.79 C 210.78 252.57 219.88 252.63 228.70 254.67 L 228.74 255.02 C 231.17 255.37 233.48 256.24 235.88 256.72 C 239.93 257.01 244.00 256.61 248.06 256.43 C 255.54 255.57 262.37 252.23 269.23 249.36 C 266.99 249.02 264.88 249.67 262.97 250.75 M 177.72 299.41 C 169.85 300.27 162.19 302.84 154.97 306.03 C 160.46 305.93 165.74 303.69 171.15 302.79 C 178.27 300.95 185.63 302.22 192.84 301.57 L 192.49 302.00 C 203.13 302.97 213.19 307.47 223.93 307.63 C 227.64 307.52 231.36 307.23 235.07 307.56 C 229.20 306.92 223.37 306.26 217.72 304.52 C 211.68 301.76 205.12 299.97 198.51 299.29 C 191.66 298.30 184.58 298.55 177.72 299.41 M 35.82 315.78 C 35.77 328.42 35.86 341.06 35.77 353.70 C 39.98 351.68 44.78 350.53 48.23 347.23 C 50.24 345.59 49.84 342.68 49.26 340.46 C 46.91 333.67 42.52 327.89 39.32 321.51 C 38.26 319.54 37.46 317.36 35.82 315.78 M 60.03 323.96 C 66.18 335.95 70.82 348.75 73.52 361.97 C 74.13 363.80 72.98 366.39 74.63 367.73 C 74.03 352.24 69.84 336.25 60.03 323.96 M 113.93 363.41 C 115.63 363.35 117.34 363.25 119.00 362.82 C 125.89 361.18 133.04 361.07 140.07 361.58 C 143.35 362.02 146.63 362.54 149.95 362.41 C 148.02 361.96 146.09 361.50 144.26 360.74 C 138.48 358.72 132.29 358.35 126.24 358.98 C 121.86 359.64 118.10 362.11 113.93 363.41 M 35.65 376.01 C 35.96 386.01 35.76 396.01 35.77 406.01 C 35.59 408.93 36.79 412.12 39.35 413.72 C 40.99 415.05 43.21 414.54 45.15 414.72 C 46.75 411.03 47.86 406.94 47.13 402.91 C 46.14 394.55 42.08 387.05 38.50 379.57 C 37.74 378.25 37.34 376.43 35.65 376.01 M 146.99 437.21 C 145.38 437.92 144.56 439.51 144.04 441.11 C 137.15 447.79 135.06 459.37 140.41 467.59 C 144.59 474.49 151.92 478.33 158.61 482.37 C 163.86 485.45 168.88 489.94 170.47 496.03 C 171.22 501.79 171.14 508.49 166.86 512.95 C 161.40 518.24 151.83 517.68 146.44 512.56 C 141.82 508.57 139.45 502.77 137.57 497.11 C 136.47 497.21 135.37 497.33 134.27 497.45 C 135.40 504.00 135.63 510.77 137.71 517.12 C 143.10 518.49 148.34 520.93 154.03 520.61 C 162.77 521.17 172.06 517.24 176.75 509.64 C 182.09 501.30 181.59 489.52 175.18 481.89 C 168.55 473.41 157.09 470.97 150.08 462.94 C 144.28 456.18 145.49 443.74 154.00 439.79 C 156.92 438.91 160.09 439.19 163.08 439.59 C 169.45 441.87 172.31 448.76 173.83 454.84 C 174.58 454.80 176.07 454.73 176.81 454.70 C 176.85 449.00 175.44 443.42 175.17 437.73 C 174.69 437.57 173.72 437.26 173.23 437.10 C 172.60 435.42 171.24 434.18 169.47 433.81 C 161.79 432.81 154.13 434.42 146.99 437.21 M 197.43 433.27 C 191.35 459.38 186.25 485.72 180.42 511.89 C 179.78 514.36 179.40 516.88 179.16 519.42 C 185.57 519.35 192.00 519.28 198.41 519.49 C 199.79 514.28 199.81 508.75 201.61 503.68 C 203.99 503.82 206.38 503.75 208.76 503.49 C 206.64 499.60 208.22 494.85 205.95 490.96 C 205.43 488.15 201.73 486.84 202.41 483.73 C 203.16 483.66 204.66 483.51 205.42 483.43 C 205.49 482.45 205.57 481.48 205.65 480.51 C 202.40 478.57 199.60 475.34 195.60 475.13 C 195.56 474.04 195.55 472.96 195.55 471.89 C 194.42 470.81 193.28 469.76 192.14 468.72 C 194.16 468.55 196.33 468.57 198.05 467.30 C 198.91 468.00 199.77 468.70 200.63 469.41 C 201.57 469.36 202.52 469.31 203.47 469.27 C 204.22 465.26 200.81 462.33 199.39 458.90 C 200.64 457.52 200.97 455.78 200.79 453.98 C 202.62 454.97 204.43 456.09 206.51 456.52 C 206.92 454.08 205.95 451.81 205.36 449.51 C 206.19 449.59 207.86 449.74 208.69 449.82 C 209.42 448.09 209.45 446.20 209.57 444.37 C 209.98 444.35 210.78 444.32 211.18 444.30 C 211.95 446.49 213.18 448.46 214.59 450.30 C 214.82 451.91 214.44 453.52 214.33 455.13 C 215.16 455.29 216.82 455.59 217.65 455.74 C 217.85 457.88 216.16 459.12 214.76 460.40 C 214.15 462.56 213.61 464.76 213.28 466.99 C 215.10 466.55 216.56 465.39 217.98 464.25 C 219.58 464.52 221.19 464.68 222.82 464.71 C 221.75 467.14 220.90 469.71 221.57 472.38 C 218.37 473.40 216.07 475.86 213.48 477.86 C 213.22 479.98 213.03 482.24 214.57 483.96 C 212.39 486.05 210.27 488.29 208.77 490.95 C 208.48 492.96 208.65 495.01 208.68 497.04 L 209.28 497.87 C 209.38 499.76 209.50 501.66 209.61 503.56 C 211.49 503.64 213.37 503.70 215.26 503.74 C 215.96 508.98 217.27 514.12 217.72 519.39 C 224.33 519.55 230.94 519.37 237.55 519.57 C 237.61 518.86 237.73 517.45 237.79 516.74 C 238.34 517.46 239.44 518.90 240.00 519.62 C 241.26 518.64 242.83 518.51 244.36 518.37 C 244.30 517.16 244.26 515.97 244.23 514.78 C 242.64 514.42 241.03 514.25 239.41 514.19 C 239.06 515.73 238.17 516.65 236.74 516.96 C 236.60 512.44 235.42 508.05 234.71 503.61 C 230.51 480.24 225.86 456.94 222.04 433.52 C 213.85 433.03 205.63 433.50 197.43 433.27 M 106.40 439.70 L 106.93 439.07 C 108.47 440.12 110.35 440.33 112.07 440.95 C 114.26 442.57 114.83 445.36 114.79 447.93 C 114.97 465.59 114.67 483.25 114.90 500.91 C 114.62 504.68 115.18 508.57 114.18 512.25 C 112.70 516.08 107.91 515.46 104.72 516.66 C 104.70 517.33 104.66 518.66 104.64 519.33 C 114.58 519.30 124.53 519.39 134.47 519.29 C 134.55 518.57 134.71 517.13 134.79 516.41 C 131.57 516.08 128.10 515.71 125.72 513.27 C 125.07 511.23 124.53 509.13 124.61 506.98 C 124.58 487.68 124.57 468.37 124.62 449.07 C 124.63 446.29 124.94 443.05 127.26 441.19 C 129.47 439.73 132.21 439.58 134.76 439.32 C 134.72 438.62 134.66 437.22 134.62 436.52 C 125.37 436.77 116.07 436.09 106.85 436.86 C 104.96 434.47 103.55 440.27 106.40 439.70 Z" />
</g>
<g id="#fbeb54ff">
<path fill="#fbeb54" opacity="1.00" d=" M 45.41 37.21 C 51.81 35.07 58.79 35.92 65.16 37.68 C 65.15 40.72 65.28 43.76 65.38 46.80 C 63.22 46.56 63.27 44.05 62.25 42.63 C 58.55 36.82 48.21 36.50 44.92 42.92 C 42.06 48.88 42.27 55.85 43.85 62.15 C 45.00 66.58 48.29 70.73 52.92 71.75 C 57.02 73.11 61.35 72.16 65.42 71.25 L 65.38 73.42 C 62.17 75.07 58.39 74.68 54.90 75.07 C 48.13 75.52 41.14 71.46 38.76 65.01 C 36.16 57.95 35.80 49.78 38.98 42.84 C 39.32 42.65 40.00 42.27 40.34 42.07 C 41.39 41.73 41.98 41.01 42.11 39.89 C 42.37 38.30 44.19 37.86 45.41 37.21 Z" />
<path fill="#fbeb54" opacity="1.00" d=" M 99.87 37.43 C 101.47 35.88 103.98 36.76 105.98 36.52 C 112.92 36.93 120.60 35.16 126.82 39.11 C 131.25 42.72 129.98 50.72 124.96 53.21 C 123.27 54.22 121.29 54.48 119.39 54.83 C 120.13 57.40 122.01 59.40 123.33 61.67 C 125.60 65.03 127.22 68.91 130.24 71.71 C 131.56 73.00 133.79 72.82 134.96 74.33 C 131.64 74.61 128.31 74.54 124.99 74.39 C 121.12 68.04 117.22 61.70 113.22 55.43 C 112.35 55.42 111.48 55.41 110.61 55.41 C 110.81 60.32 110.43 65.26 110.77 70.16 C 110.86 73.14 114.08 73.07 116.24 73.59 C 116.05 73.82 115.66 74.27 115.47 74.50 C 110.31 74.64 105.12 74.35 99.94 74.65 C 99.95 72.57 102.53 73.23 103.90 72.73 C 105.80 70.19 105.25 66.95 105.29 63.99 C 105.09 56.30 105.51 48.59 105.11 40.91 C 104.94 40.32 104.61 39.13 104.44 38.54 C 102.91 38.19 101.39 37.81 99.87 37.43 M 111.68 38.72 C 109.58 43.08 111.15 48.14 110.68 52.80 C 115.30 52.91 120.62 52.92 123.50 48.62 C 123.41 46.25 124.41 43.32 122.46 41.46 C 119.74 38.48 115.32 39.04 111.68 38.72 Z" />
<path fill="#fbeb54" opacity="1.00" d=" M 231.63 36.71 C 239.77 36.27 248.00 36.64 256.17 36.56 C 256.30 38.82 256.44 41.08 256.57 43.34 C 256.22 43.39 255.52 43.50 255.18 43.55 C 254.33 41.43 252.94 39.14 250.38 39.03 C 246.81 38.78 242.97 38.16 239.57 39.60 C 239.47 44.21 239.42 48.83 239.50 53.44 C 243.07 53.37 246.65 53.59 250.22 53.36 C 252.47 52.69 251.72 49.64 253.68 48.87 C 253.74 52.67 253.76 56.46 253.67 60.26 C 251.80 59.46 252.16 56.56 249.95 56.08 C 246.59 55.16 242.98 55.87 239.53 55.73 L 239.11 54.92 C 236.11 49.89 236.26 43.41 238.41 38.09 C 237.83 38.18 237.25 38.28 236.68 38.37 C 236.19 39.63 235.71 40.88 235.23 42.13 C 234.94 41.80 234.36 41.15 234.07 40.82 C 233.86 40.34 233.44 39.40 233.22 38.92 C 232.55 38.59 231.20 37.92 230.53 37.58 L 231.63 36.71 Z" />
<path fill="#fbeb54" opacity="1.00" d=" M 77.21 87.44 C 83.15 87.19 89.11 87.34 95.05 87.34 C 98.89 87.37 103.22 88.13 105.84 91.21 C 108.34 94.85 107.60 100.35 104.12 103.13 C 102.04 104.65 99.46 105.18 96.99 105.71 C 99.97 110.75 102.96 115.82 106.32 120.63 C 107.80 123.03 110.61 123.85 112.98 125.08 C 109.87 125.47 106.74 125.34 103.62 125.43 C 98.63 119.67 95.35 112.58 91.04 106.29 C 90.39 106.22 89.08 106.06 88.43 105.99 C 88.56 110.68 88.40 115.38 88.48 120.08 C 88.36 121.34 89.15 122.36 89.71 123.41 C 91.23 123.81 92.72 124.30 94.19 124.86 C 93.51 125.21 92.79 125.39 92.03 125.39 C 83.03 125.31 74.04 125.40 65.04 125.28 L 65.41 124.50 C 70.66 124.40 76.23 125.73 81.27 123.83 C 84.17 120.96 83.10 116.64 83.27 113.00 C 83.00 105.21 83.94 97.34 82.50 89.63 C 80.83 88.68 78.58 88.89 77.21 87.44 M 88.61 90.82 C 88.34 95.09 88.55 99.37 88.48 103.65 C 93.26 103.79 100.47 103.67 101.44 97.62 C 103.22 90.78 93.05 87.29 88.61 90.82 Z" />
<path fill="#fbeb54" opacity="1.00" d=" M 113.00 87.30 C 119.54 87.42 126.10 87.10 132.63 87.52 C 136.59 87.82 141.14 89.73 141.98 94.06 C 143.29 98.82 140.22 103.29 135.91 105.09 C 138.46 105.88 141.26 106.87 142.69 109.32 C 145.29 113.16 144.97 119.21 141.15 122.15 C 138.40 124.59 134.50 124.88 131.01 125.30 C 124.97 125.35 118.92 125.39 112.88 125.23 C 113.46 123.31 115.60 123.63 117.16 123.32 C 118.98 118.75 117.97 113.75 118.22 108.97 C 117.95 102.53 118.87 95.99 117.51 89.64 C 116.16 88.83 114.67 88.42 113.10 88.48 C 113.07 88.18 113.02 87.60 113.00 87.30 M 123.01 87.97 C 123.13 88.74 123.35 90.27 123.46 91.04 C 123.85 95.36 122.89 99.97 123.90 104.12 C 127.74 104.23 132.45 104.30 135.23 101.17 C 138.35 96.95 135.80 89.97 130.29 89.63 L 131.11 88.41 C 128.48 87.54 125.72 87.53 123.01 87.97 M 123.45 106.33 C 123.57 111.64 123.37 116.97 123.69 122.28 C 127.05 122.88 130.61 123.14 133.90 122.08 C 139.39 120.19 140.20 111.70 135.59 108.48 C 132.17 105.76 127.50 106.58 123.45 106.33 Z" />
<path fill="#fbeb54" opacity="1.00" d=" M 152.36 92.48 C 154.47 89.16 158.21 87.55 161.90 86.72 C 166.80 86.35 172.65 86.81 175.97 90.93 C 180.04 95.58 180.45 102.17 180.34 108.06 C 179.98 113.30 179.00 119.20 174.72 122.75 C 170.66 126.33 164.80 126.09 159.81 125.27 C 153.71 124.04 150.18 117.86 149.58 112.07 C 148.99 105.50 148.68 98.28 152.36 92.48 M 160.57 89.74 C 156.53 92.30 155.42 97.50 155.41 101.97 C 155.51 107.52 154.68 113.39 157.09 118.61 C 158.32 121.70 161.62 123.97 165.01 123.50 C 168.97 123.81 172.12 120.61 173.28 117.09 C 174.59 109.32 175.43 100.84 172.28 93.41 C 170.19 88.95 164.78 88.48 160.57 89.74 Z" />
<path fill="#fbeb54" opacity="1.00" d=" M 181.14 87.41 C 188.10 87.33 195.09 87.09 202.05 87.60 C 205.53 87.81 208.64 89.79 210.47 92.73 C 210.85 95.78 211.28 99.50 208.97 101.93 C 206.89 104.47 203.44 105.10 200.41 105.78 C 204.17 110.90 206.77 116.79 210.77 121.74 C 211.20 122.18 212.06 123.07 212.49 123.51 C 210.25 123.76 208.02 124.12 205.80 124.47 C 203.33 119.66 200.14 115.28 197.39 110.63 C 196.08 108.71 195.13 106.26 192.78 105.37 C 192.62 105.70 192.30 106.36 192.14 106.68 C 190.26 110.99 190.27 116.20 192.04 120.56 C 192.37 121.49 192.71 122.44 193.04 123.38 C 194.28 123.52 195.51 123.65 196.76 123.78 C 196.72 124.20 196.65 125.03 196.61 125.45 C 191.86 125.32 187.11 125.26 182.36 125.46 C 182.35 125.06 182.31 124.27 182.29 123.88 C 183.73 123.60 185.51 123.74 186.25 122.17 C 187.03 116.48 186.45 110.71 186.61 104.98 C 186.43 100.02 187.09 94.96 186.08 90.06 C 185.08 87.97 181.93 89.49 181.14 87.41 M 192.74 89.66 C 191.76 94.19 192.46 98.84 192.12 103.42 C 195.86 103.84 200.13 103.72 203.16 101.20 C 205.24 99.08 206.42 95.27 204.21 92.82 C 201.53 89.30 196.73 89.32 192.74 89.66 Z" />
<path fill="#fbeb54" opacity="1.00" d=" M 214.97 87.46 C 219.66 87.23 224.37 87.31 229.06 87.32 C 230.08 87.39 231.38 87.19 231.97 88.25 C 230.05 88.38 228.18 88.75 226.50 89.71 C 225.83 97.78 226.34 105.88 226.18 113.96 C 226.31 117.17 225.58 120.62 227.21 123.58 C 225.05 124.02 222.85 124.21 220.65 124.20 C 221.91 117.86 221.22 111.39 221.37 104.98 C 221.35 100.49 221.83 95.91 220.57 91.53 C 220.44 90.11 219.23 89.33 218.17 88.59 C 217.05 88.32 215.34 88.98 214.97 87.46 Z" />
<path fill="#fbeb54" opacity="1.00" d=" M 144.04 441.11 C 152.01 434.22 163.63 433.93 173.23 437.10 C 173.72 437.26 174.69 437.57 175.17 437.73 C 175.44 443.42 176.85 449.00 176.81 454.70 C 176.07 454.73 174.58 454.80 173.83 454.84 C 172.31 448.76 169.45 441.87 163.08 439.59 C 160.09 439.19 156.92 438.91 154.00 439.79 C 145.49 443.74 144.28 456.18 150.08 462.94 C 157.09 470.97 168.55 473.41 175.18 481.89 C 181.59 489.52 182.09 501.30 176.75 509.64 C 172.06 517.24 162.77 521.17 154.03 520.61 C 148.34 520.93 143.10 518.49 137.71 517.12 C 135.63 510.77 135.40 504.00 134.27 497.45 C 135.37 497.33 136.47 497.21 137.57 497.11 C 139.45 502.77 141.82 508.57 146.44 512.56 C 151.83 517.68 161.40 518.24 166.86 512.95 C 171.14 508.49 171.22 501.79 170.47 496.03 C 168.88 489.94 163.86 485.45 158.61 482.37 C 151.92 478.33 144.59 474.49 140.41 467.59 C 135.06 459.37 137.15 447.79 144.04 441.11 Z" />
<path fill="#fbeb54" opacity="1.00" d=" M 106.85 436.86 C 116.07 436.09 125.37 436.77 134.62 436.52 C 134.66 437.22 134.72 438.62 134.76 439.32 C 132.21 439.58 129.47 439.73 127.26 441.19 C 124.94 443.05 124.63 446.29 124.62 449.07 C 124.57 468.37 124.58 487.68 124.61 506.98 C 124.53 509.13 125.07 511.23 125.72 513.27 C 128.10 515.71 131.57 516.08 134.79 516.41 C 134.71 517.13 134.55 518.57 134.47 519.29 C 124.53 519.39 114.58 519.30 104.64 519.33 C 104.66 518.66 104.70 517.33 104.72 516.66 C 107.91 515.46 112.70 516.08 114.18 512.25 C 115.18 508.57 114.62 504.68 114.90 500.91 C 114.67 483.25 114.97 465.59 114.79 447.93 C 114.83 445.36 114.26 442.57 112.07 440.95 C 110.35 440.33 108.47 440.12 106.93 439.07 C 106.91 438.52 106.87 437.41 106.85 436.86 Z" />
</g>
<g id="#73a74cff">
<path fill="#73a74c" opacity="1.00" d=" M 68.17 36.24 C 77.40 36.34 86.63 36.41 95.85 36.37 C 97.03 38.46 96.23 41.33 96.54 43.72 C 96.00 43.80 94.94 43.95 94.41 44.02 L 94.34 43.27 L 94.24 42.33 L 95.82 42.80 C 95.67 40.81 95.51 38.83 95.36 36.84 C 89.64 36.59 83.92 36.65 78.21 36.72 C 76.34 36.75 74.47 36.80 72.60 36.80 C 71.91 36.78 70.54 36.76 69.85 36.74 C 69.65 36.89 69.25 37.18 69.05 37.33 L 68.00 38.14 C 68.04 37.66 68.13 36.71 68.17 36.24 Z" />
</g>
<g id="#71a64eff">
<path fill="#71a64e" opacity="1.00" d=" M 132.09 36.24 C 142.32 36.30 152.55 36.26 162.78 36.24 C 163.58 39.03 163.55 41.94 163.59 44.82 C 162.34 44.71 161.12 44.44 160.45 43.25 L 161.24 42.47 C 161.57 42.13 162.23 41.45 162.56 41.11 C 162.53 39.64 162.46 38.17 162.38 36.70 C 152.46 36.86 142.55 36.74 132.64 36.74 C 132.52 39.13 132.50 41.56 133.57 43.77 C 134.33 45.27 132.30 44.43 131.57 44.53 C 131.59 41.76 131.74 38.99 132.09 36.24 Z" />
</g>
<g id="#fdfadaff">
<path fill="#fdfada" opacity="1.00" d=" M 69.05 37.33 C 69.25 37.18 69.65 36.89 69.85 36.74 C 70.54 36.76 71.91 36.78 72.60 36.80 C 72.69 37.14 72.86 37.82 72.95 38.16 L 72.55 38.52 C 71.25 38.49 70.09 38.09 69.05 37.33 Z" />
<path fill="#fdfada" opacity="1.00" d=" M 265.05 138.91 C 273.30 139.84 281.69 138.67 289.96 139.58 C 292.50 140.55 294.98 143.07 294.78 145.97 C 294.83 174.71 294.80 203.44 294.79 232.17 C 288.66 227.13 280.20 228.37 273.04 229.97 C 264.05 231.55 255.16 235.10 245.91 234.12 C 242.77 233.67 238.31 232.27 238.46 228.36 C 239.31 226.00 240.07 223.54 241.54 221.48 C 243.62 219.25 246.09 217.42 248.11 215.13 L 248.65 214.56 C 248.95 214.48 249.56 214.31 249.86 214.23 C 258.89 210.67 267.81 205.67 273.89 197.86 C 274.59 196.66 274.64 195.22 274.97 193.90 C 276.17 188.78 275.21 183.23 272.02 179.00 C 269.08 175.36 268.29 170.16 269.90 165.81 C 273.32 160.45 277.85 155.81 280.52 149.97 C 279.45 146.34 278.80 141.53 275.00 139.76 C 272.76 139.25 270.46 139.26 268.19 139.48 L 268.27 140.97 C 267.19 140.29 266.12 139.59 265.05 138.91 Z" />
<path fill="#fdfada" opacity="1.00" d=" M 39.40 140.35 C 41.59 138.78 44.42 139.37 46.94 139.25 C 116.35 139.29 185.77 139.24 255.18 139.27 C 251.75 142.20 248.51 145.51 244.56 147.72 C 239.79 146.35 234.95 145.03 229.99 144.64 C 229.35 145.00 228.06 145.72 227.41 146.08 C 229.13 146.91 231.55 146.83 232.72 148.54 C 232.02 148.54 230.63 148.55 229.93 148.56 C 228.98 146.96 226.44 146.45 225.12 147.84 C 222.00 150.83 219.13 154.18 217.25 158.10 C 213.08 166.12 212.60 175.74 207.05 183.10 C 204.18 187.44 199.71 190.23 195.58 193.21 C 194.47 192.29 193.36 191.37 192.25 190.47 C 192.67 180.23 201.52 172.84 203.45 163.04 C 203.51 158.36 204.68 152.66 201.01 148.96 C 197.96 145.88 193.28 146.37 189.33 146.53 C 190.22 149.38 193.73 149.57 196.02 150.85 C 196.13 151.44 196.34 152.61 196.45 153.20 C 194.42 150.60 191.30 148.55 187.91 148.64 C 180.94 153.79 176.18 163.14 166.57 163.71 C 166.63 163.90 166.77 164.29 166.84 164.49 C 162.71 166.21 158.18 165.58 153.83 165.57 C 147.35 170.69 145.45 179.47 143.74 187.14 C 142.89 202.76 144.39 218.69 140.75 234.06 C 140.04 237.35 138.74 240.88 135.55 242.51 C 133.29 241.68 131.17 240.27 130.21 237.97 C 124.99 224.39 127.63 208.96 121.32 195.71 C 119.58 192.30 118.12 188.44 114.90 186.14 C 110.45 182.59 104.29 181.96 98.88 183.21 C 97.45 183.23 96.49 184.21 95.67 185.25 C 92.76 185.66 90.76 187.98 89.02 190.13 C 85.31 195.12 83.82 201.24 81.95 207.05 C 78.59 216.31 68.10 220.42 64.78 229.69 C 62.54 235.40 63.57 241.74 65.86 247.27 C 70.47 259.64 77.42 271.00 81.71 283.50 C 83.58 288.75 82.40 295.39 78.05 299.07 C 76.08 299.86 74.09 300.75 72.15 301.53 C 70.66 298.87 67.19 299.57 64.88 298.10 C 59.83 295.06 54.78 291.99 49.46 289.45 C 45.20 287.65 40.35 288.47 36.46 290.78 L 35.78 291.08 C 35.82 243.40 35.80 195.71 35.79 148.02 C 35.66 145.13 36.63 141.76 39.40 140.35 Z" />
<path fill="#fdfada" opacity="1.00" d=" M 288.46 255.99 C 290.67 255.51 292.80 254.70 294.83 253.69 C 294.75 305.16 294.87 356.64 294.77 408.11 C 294.89 412.08 290.82 415.19 287.01 414.80 C 219.01 414.82 151.00 414.80 82.99 414.81 C 82.20 414.75 80.63 414.65 79.85 414.60 C 92.24 409.63 102.65 400.55 115.59 396.88 C 119.94 395.69 124.56 394.94 129.05 395.72 C 134.38 397.32 138.14 402.53 144.01 402.73 C 151.95 403.47 160.08 405.14 167.99 403.92 C 169.38 403.36 170.74 402.75 172.11 402.16 C 172.51 402.40 173.30 402.89 173.70 403.14 C 175.84 399.54 179.56 397.26 181.70 393.65 C 187.37 385.59 187.03 373.23 179.55 366.40 C 175.36 362.47 171.78 357.88 168.86 352.95 C 168.39 349.90 168.04 346.43 169.83 343.72 C 171.12 341.60 172.39 339.44 173.29 337.12 L 171.07 337.31 C 171.96 336.61 172.86 335.92 173.78 335.26 C 178.28 332.96 182.91 330.12 188.05 329.69 C 203.45 332.13 216.42 342.43 231.93 344.54 C 235.33 344.76 239.02 345.21 242.09 343.39 C 248.47 342.16 253.11 337.26 257.00 332.41 C 260.32 327.79 263.22 322.75 264.64 317.20 C 266.31 311.62 265.20 305.74 265.53 300.03 C 265.97 293.62 261.72 287.53 256.06 284.81 C 250.77 281.20 244.19 280.85 238.00 280.79 C 233.58 281.59 228.79 280.74 224.70 282.91 C 225.12 283.03 225.97 283.27 226.39 283.39 C 224.28 284.15 222.07 284.54 219.87 284.88 C 217.89 285.43 215.85 285.76 213.94 286.50 L 213.70 286.34 C 211.97 285.09 210.05 284.04 208.66 282.40 C 207.86 280.74 207.68 278.88 207.28 277.12 C 209.15 276.19 210.90 274.76 213.04 274.55 C 223.97 273.41 235.09 273.10 245.95 274.98 C 249.91 275.96 253.90 277.04 258.03 276.74 C 263.39 276.47 268.85 277.27 274.15 276.30 L 274.90 275.33 L 275.26 275.41 C 275.73 275.51 276.68 275.71 277.15 275.81 C 279.14 274.29 281.17 272.72 282.48 270.53 C 285.50 266.21 285.93 260.76 288.38 256.16 L 288.46 255.99 Z" />
<path fill="#fdfada" opacity="1.00" d=" M 177.72 299.41 C 184.58 298.55 191.66 298.30 198.51 299.29 C 204.99 300.81 210.91 304.53 217.72 304.52 C 223.37 306.26 229.20 306.92 235.07 307.56 C 231.36 307.23 227.64 307.52 223.93 307.63 C 213.19 307.47 203.13 302.97 192.49 302.00 L 192.84 301.57 C 193.09 301.27 193.58 300.67 193.83 300.37 C 188.45 300.23 183.07 300.01 177.72 299.41 Z" />
</g>
<g id="#fbe553ff">
<path fill="#fbe553" opacity="1.00" d=" M 72.60 36.80 C 74.47 36.80 76.34 36.75 78.21 36.72 C 77.91 42.22 78.16 47.72 78.59 53.21 L 78.58 53.39 C 78.14 58.71 76.36 64.57 79.11 69.55 C 79.39 70.33 79.63 71.13 79.83 71.94 C 78.07 72.87 76.17 73.67 74.13 73.16 C 73.99 72.62 73.70 71.53 73.55 70.98 C 73.76 62.66 73.56 54.34 73.66 46.02 C 73.71 43.39 73.52 40.74 72.95 38.16 C 72.86 37.82 72.69 37.14 72.60 36.80 Z" />
</g>
<g id="#fbf46bff">
<path fill="#fbf46b" opacity="1.00" d=" M 78.21 36.72 C 83.92 36.65 89.64 36.59 95.36 36.84 C 95.51 38.83 95.67 40.81 95.82 42.80 L 94.24 42.33 C 91.68 36.84 84.15 38.81 79.33 39.26 C 78.93 43.89 80.05 48.75 78.59 53.21 C 78.16 47.72 77.91 42.22 78.21 36.72 Z" />
<path fill="#fbf46b" opacity="1.00" d=" M 212.91 36.63 C 215.58 36.55 218.25 36.53 220.92 36.62 C 218.77 39.30 219.30 42.84 219.27 46.03 C 219.48 54.97 219.23 63.91 219.22 72.85 C 219.89 72.88 221.24 72.94 221.91 72.97 C 222.12 60.79 221.64 48.61 222.29 36.45 C 225.40 36.64 228.52 36.48 231.63 36.71 L 230.53 37.58 C 228.24 37.70 225.90 37.91 223.85 39.04 C 223.04 45.99 223.68 53.02 223.49 60.01 C 223.63 63.91 222.94 67.93 224.12 71.73 C 224.38 73.08 226.03 72.90 227.05 73.19 C 229.47 73.39 232.89 73.63 233.89 70.83 C 234.62 71.65 235.35 72.46 236.08 73.29 C 236.75 73.26 238.10 73.21 238.77 73.19 C 237.28 67.65 237.60 61.90 237.55 56.24 C 237.94 55.91 238.72 55.25 239.11 54.92 C 239.88 60.39 239.26 65.93 239.49 71.43 C 243.43 72.85 247.87 72.21 251.96 71.78 C 255.30 71.59 254.55 67.09 257.46 66.37 C 257.34 69.04 257.24 71.71 257.14 74.38 C 242.76 74.59 228.37 74.35 213.99 74.61 C 213.69 74.34 213.10 73.82 212.80 73.55 C 214.27 73.14 215.75 72.74 217.24 72.38 L 217.45 71.72 C 218.95 67.30 217.92 62.55 218.19 57.98 C 217.95 51.49 218.83 44.91 217.49 38.50 C 216.23 38.27 214.97 38.08 213.71 37.92 L 212.91 36.63 Z" />
<path fill="#fbf46b" opacity="1.00" d=" M 234.75 224.66 C 238.01 220.17 243.04 217.18 248.11 215.13 C 246.09 217.42 243.62 219.25 241.54 221.48 C 240.07 223.54 239.31 226.00 238.46 228.36 C 238.26 226.83 238.07 225.30 237.87 223.77 C 235.70 226.19 234.31 229.14 233.38 232.24 C 232.03 229.80 233.44 226.82 234.75 224.66 Z" />
<path fill="#fbf46b" opacity="1.00" d=" M 101.74 227.23 C 102.12 229.26 102.57 231.28 102.92 233.31 C 103.98 243.16 102.46 253.19 104.39 262.95 C 104.81 265.12 105.33 267.27 105.68 269.46 L 105.71 270.78 C 103.11 267.08 102.53 262.45 101.98 258.08 C 101.09 247.83 101.21 237.49 101.74 227.23 Z" />
</g>
<g id="#fbeb44ff">
<path fill="#fbeb44" opacity="1.00" d=" M 132.64 36.74 C 142.55 36.74 152.46 36.86 162.38 36.70 C 162.46 38.17 162.53 39.64 162.56 41.11 C 162.23 41.45 161.57 42.13 161.24 42.47 C 160.54 41.55 159.85 40.63 159.15 39.72 C 156.36 39.08 153.51 38.73 150.65 38.70 C 149.92 47.77 150.57 56.91 150.31 66.01 C 150.53 68.12 149.88 70.73 151.41 72.45 C 153.19 73.07 155.03 73.44 156.84 73.96 C 151.27 75.41 145.40 73.94 139.72 74.68 C 139.53 74.38 139.14 73.79 138.94 73.49 C 141.20 73.23 144.86 73.03 144.67 69.89 C 144.88 59.49 144.90 49.08 144.66 38.69 C 141.66 38.70 138.66 38.88 135.76 39.66 C 135.02 41.03 134.28 42.39 133.57 43.77 C 132.50 41.56 132.52 39.13 132.64 36.74 Z" />
<path fill="#fbeb44" opacity="1.00" d=" M 227.41 146.08 C 228.06 145.72 229.35 145.00 229.99 144.64 C 234.95 145.03 239.79 146.35 244.56 147.72 C 242.90 148.88 241.10 149.84 239.13 150.33 C 236.99 150.09 234.92 149.41 232.88 148.74 L 232.72 148.54 C 231.55 146.83 229.13 146.91 227.41 146.08 Z" />
</g>
<g id="#f7f675ff">
<path fill="#f7f675" opacity="1.00" d=" M 165.49 37.25 C 166.58 36.74 167.73 36.50 168.94 36.55 C 175.33 36.48 181.72 36.62 188.12 36.54 C 189.97 48.65 189.26 61.00 188.11 73.15 C 189.39 73.20 190.68 73.25 191.97 73.30 C 191.26 67.42 193.02 61.49 191.67 55.66 C 194.66 53.71 198.38 54.38 201.73 54.69 C 202.03 54.93 202.64 55.43 202.95 55.67 C 199.81 55.73 196.66 55.56 193.52 55.67 C 193.30 55.90 192.86 56.35 192.64 56.58 C 192.77 61.10 192.59 65.63 192.75 70.15 C 192.98 73.63 197.19 72.59 199.30 74.14 L 197.80 74.49 C 187.55 74.63 177.29 74.40 167.04 74.59 C 166.75 74.30 166.19 73.72 165.90 73.43 C 167.35 73.11 168.78 72.72 170.25 72.52 C 172.02 72.63 173.77 72.89 175.52 73.13 C 174.82 61.26 175.03 49.34 175.49 37.47 C 174.64 37.87 173.54 38.08 173.42 39.21 C 171.41 45.60 172.65 52.41 172.33 58.99 C 172.07 62.84 173.44 67.09 171.31 70.59 C 171.47 62.75 171.35 54.91 171.41 47.07 C 171.40 44.22 171.73 41.21 170.34 38.59 C 168.71 38.20 167.09 37.75 165.49 37.25 M 176.66 40.94 C 176.54 49.96 176.65 58.98 176.63 68.00 C 176.68 69.44 176.42 71.12 177.74 72.10 L 177.65 72.74 C 180.32 73.31 183.05 73.37 185.74 72.88 L 185.74 72.82 C 187.83 70.74 187.27 67.66 187.34 65.01 C 187.15 56.99 187.50 48.96 187.19 40.95 C 187.14 38.32 184.18 37.46 182.02 37.65 C 179.90 37.76 176.61 38.11 176.66 40.94 Z" />
<path fill="#f7f675" opacity="1.00" d=" M 260.06 37.23 C 261.88 36.00 264.21 36.72 266.27 36.54 C 267.46 44.65 266.88 52.86 267.07 61.03 C 267.20 63.88 266.65 66.70 265.90 69.44 C 265.58 60.61 265.81 51.78 265.76 42.95 C 265.72 41.58 265.67 40.19 265.23 38.88 C 263.57 38.15 261.79 37.75 260.06 37.23 Z" />
<path fill="#f7f675" opacity="1.00" d=" M 286.05 70.79 C 288.05 69.76 290.07 68.77 292.07 67.75 C 290.31 70.65 287.17 72.47 283.99 73.40 C 277.76 75.06 271.28 74.23 264.94 74.53 C 263.23 74.42 261.17 74.95 259.87 73.49 C 260.91 73.39 263.00 73.18 264.05 73.08 C 264.68 72.05 265.31 71.01 265.89 69.95 C 266.22 71.20 266.62 72.44 267.02 73.68 C 268.60 73.25 270.19 72.81 271.77 72.35 C 276.54 72.11 281.84 72.13 285.59 68.68 C 285.70 69.21 285.94 70.26 286.05 70.79 Z" />
<path fill="#f7f675" opacity="1.00" d=" M 95.21 68.08 C 95.69 70.12 96.17 72.17 96.57 74.22 L 96.63 74.54 L 96.27 74.53 C 87.17 74.46 78.06 74.38 68.96 74.64 C 68.74 74.35 68.31 73.77 68.10 73.47 C 69.58 73.15 71.07 72.83 72.56 72.52 C 72.81 72.14 73.30 71.37 73.55 70.98 C 73.70 71.53 73.99 72.62 74.13 73.16 C 76.17 73.67 78.07 72.87 79.83 71.94 C 84.90 71.78 92.80 74.25 95.21 68.08 Z" />
<path fill="#f7f675" opacity="1.00" d=" M 271.46 123.73 C 272.97 123.81 274.50 123.54 275.59 122.42 C 276.35 123.03 277.12 123.64 277.89 124.25 C 279.62 123.96 281.36 123.64 283.11 123.45 C 284.28 123.54 285.45 123.65 286.62 123.78 C 286.63 124.20 286.66 125.05 286.67 125.48 C 281.47 125.17 276.25 125.34 271.05 125.37 C 271.15 124.96 271.36 124.14 271.46 123.73 Z" />
<path fill="#f7f675" opacity="1.00" d=" M 164.54 198.08 C 165.16 194.82 166.71 191.69 168.62 188.98 C 168.22 195.04 165.59 200.84 166.02 206.99 C 166.39 210.31 166.41 213.66 165.93 216.97 C 167.10 223.00 164.59 228.88 163.42 234.72 L 162.62 234.73 C 161.84 228.74 164.23 222.98 163.78 217.00 C 163.53 210.67 164.41 204.39 164.54 198.08 Z" />
<path fill="#f7f675" opacity="1.00" d=" M 267.34 200.37 C 271.25 200.80 273.13 196.59 274.97 193.90 C 274.64 195.22 274.59 196.66 273.89 197.86 C 267.81 205.67 258.89 210.67 249.86 214.23 C 255.99 210.06 263.07 206.77 267.34 200.37 Z" />
<path fill="#f7f675" opacity="1.00" d=" M 105.72 270.83 L 106.10 271.40 C 107.11 273.43 107.74 275.62 108.39 277.79 C 110.74 285.67 111.88 293.84 111.56 302.06 C 110.90 295.44 109.32 289.02 107.54 282.64 C 107.57 278.61 106.04 274.81 105.72 270.83 Z" />
<path fill="#f7f675" opacity="1.00" d=" M 198.51 299.29 C 205.12 299.97 211.68 301.76 217.72 304.52 C 210.91 304.53 204.99 300.81 198.51 299.29 Z" />
</g>
<g id="#fbeb4aff">
<path fill="#fbeb4a" opacity="1.00" d=" M 188.12 36.54 C 195.21 36.56 202.30 36.53 209.39 36.52 C 209.53 39.01 209.60 41.50 209.59 43.99 C 207.90 43.02 207.04 41.24 206.09 39.64 C 201.79 38.61 196.93 38.03 192.76 39.75 C 192.74 44.30 192.69 48.85 192.68 53.40 C 196.59 53.50 200.50 53.46 204.41 53.20 C 204.79 53.44 205.55 53.91 205.93 54.14 C 205.76 55.32 205.60 56.50 205.43 57.67 C 204.81 57.17 203.57 56.17 202.95 55.67 C 202.64 55.43 202.03 54.93 201.73 54.69 C 198.38 54.38 194.66 53.71 191.67 55.66 C 193.02 61.49 191.26 67.42 191.97 73.30 C 190.68 73.25 189.39 73.20 188.11 73.15 C 189.26 61.00 189.97 48.65 188.12 36.54 Z" />
</g>
<g id="#fbe44bff">
<path fill="#fbe44b" opacity="1.00" d=" M 220.92 36.62 L 222.29 36.45 C 221.64 48.61 222.12 60.79 221.91 72.97 C 221.24 72.94 219.89 72.88 219.22 72.85 C 219.23 63.91 219.48 54.97 219.27 46.03 C 219.30 42.84 218.77 39.30 220.92 36.62 Z" />
</g>
<g id="#126626ff">
<path fill="#126626" opacity="1.00" d=" M 256.17 36.56 C 257.01 37.76 257.87 38.96 258.73 40.16 C 259.06 39.42 259.72 37.96 260.06 37.23 C 261.79 37.75 263.57 38.15 265.23 38.88 C 265.67 40.19 265.72 41.58 265.76 42.95 C 265.81 51.78 265.58 60.61 265.90 69.44 L 265.89 69.95 C 265.31 71.01 264.68 72.05 264.05 73.08 C 263.00 73.18 260.91 73.39 259.87 73.49 C 261.17 74.95 263.23 74.42 264.94 74.53 C 271.28 74.23 277.76 75.06 283.99 73.40 C 283.77 73.84 283.32 74.71 283.10 75.14 C 275.27 75.42 267.42 75.63 259.59 75.30 C 258.88 72.52 261.49 71.84 263.55 71.30 C 264.70 62.25 263.91 53.09 264.18 43.99 C 263.96 42.39 264.71 39.13 262.04 39.69 C 260.18 40.93 259.32 43.16 257.62 44.58 C 256.38 44.65 255.13 44.65 253.89 44.56 C 254.21 44.31 254.86 43.81 255.18 43.55 C 255.52 43.50 256.22 43.39 256.57 43.34 C 256.44 41.08 256.30 38.82 256.17 36.56 Z" />
<path fill="#126626" opacity="1.00" d=" M 176.66 40.94 C 176.61 38.11 179.90 37.76 182.02 37.65 C 184.18 37.46 187.14 38.32 187.19 40.95 C 187.50 48.96 187.15 56.99 187.34 65.01 C 187.27 67.66 187.83 70.74 185.74 72.82 C 185.93 64.53 186.56 56.25 186.28 47.94 C 186.01 45.18 187.06 41.30 184.02 39.77 C 182.25 38.68 180.18 39.63 178.32 39.93 C 177.91 50.65 179.07 61.44 177.74 72.10 C 176.42 71.12 176.68 69.44 176.63 68.00 C 176.65 58.98 176.54 49.96 176.66 40.94 Z" />
<path fill="#126626" opacity="1.00" d=" M 257.46 66.37 C 258.89 69.41 258.24 72.77 257.89 75.96 C 251.59 76.49 245.29 75.40 238.98 75.76 C 230.67 76.19 222.37 75.69 214.06 75.88 L 213.99 74.61 C 228.37 74.35 242.76 74.59 257.14 74.38 C 257.24 71.71 257.34 69.04 257.46 66.37 Z" />
<path fill="#126626" opacity="1.00" d=" M 106.10 271.40 C 107.31 270.06 108.63 268.84 110.04 267.73 C 109.38 271.06 109.05 274.45 108.39 277.79 C 107.74 275.62 107.11 273.43 106.10 271.40 Z" />
</g>
<g id="#fbeb53ff">
<path fill="#fbeb53" opacity="1.00" d=" M 266.27 36.54 C 273.86 36.80 282.41 35.26 289.04 39.92 C 293.66 42.93 295.04 48.76 295.34 53.94 C 295.53 58.65 295.00 63.93 292.07 67.75 C 290.07 68.77 288.05 69.76 286.05 70.79 C 285.94 70.26 285.70 69.21 285.59 68.68 C 290.16 62.53 290.17 53.95 288.18 46.86 C 286.16 39.94 277.77 37.62 271.45 39.38 C 271.45 50.36 270.84 61.40 271.77 72.35 C 270.19 72.81 268.60 73.25 267.02 73.68 C 266.62 72.44 266.22 71.20 265.89 69.95 L 265.90 69.44 C 266.65 66.70 267.20 63.88 267.07 61.03 C 266.88 52.86 267.46 44.65 266.27 36.54 Z" />
<path fill="#fbeb53" opacity="1.00" d=" M 43.41 119.63 C 47.99 108.68 52.05 97.50 56.89 86.66 C 57.69 86.66 59.30 86.66 60.11 86.66 C 64.14 97.02 68.39 107.30 72.48 117.63 C 73.30 119.81 74.43 122.00 76.40 123.36 C 77.96 123.85 79.65 123.65 81.27 123.83 C 76.23 125.73 70.66 124.40 65.41 124.50 L 64.74 123.97 C 65.47 123.84 66.94 123.57 67.67 123.43 C 68.57 119.56 65.86 116.26 64.85 112.70 C 59.83 112.58 54.80 112.74 49.77 112.61 C 48.58 116.10 46.48 119.38 46.53 123.18 C 48.15 123.62 49.74 124.19 51.17 125.10 C 46.61 125.62 42.01 125.15 37.44 125.44 C 37.43 125.03 37.41 124.22 37.40 123.81 C 40.30 124.14 42.52 122.27 43.41 119.63 M 56.78 94.19 C 55.14 99.73 52.13 104.80 50.96 110.47 C 55.22 110.41 59.49 110.49 63.76 110.35 C 61.98 105.07 59.50 100.04 58.09 94.63 C 57.76 94.52 57.11 94.30 56.78 94.19 Z" />
<path fill="#fbeb53" opacity="1.00" d=" M 268.19 139.48 C 270.46 139.26 272.76 139.25 275.00 139.76 C 278.80 141.53 279.45 146.34 280.52 149.97 C 277.85 155.81 273.32 160.45 269.90 165.81 C 268.29 170.16 269.08 175.36 272.02 179.00 C 275.21 183.23 276.17 188.78 274.97 193.90 C 273.13 196.59 271.25 200.80 267.34 200.37 C 270.15 195.01 270.45 188.18 266.99 183.03 C 264.60 179.52 261.85 175.38 263.18 170.93 C 264.67 163.01 273.42 159.07 274.44 150.95 C 273.76 148.80 272.88 146.71 271.54 144.88 L 271.66 143.79 C 272.13 142.24 271.06 140.64 269.40 140.69 C 269.50 141.24 269.69 142.33 269.79 142.87 C 269.25 142.26 268.75 141.63 268.27 140.97 L 268.19 139.48 Z" />
<path fill="#fbeb53" opacity="1.00" d=" M 95.67 185.25 C 96.49 184.21 97.45 183.23 98.88 183.21 C 104.29 181.96 110.45 182.59 114.90 186.14 C 118.12 188.44 119.58 192.30 121.32 195.71 C 127.63 208.96 124.99 224.39 130.21 237.97 C 131.17 240.27 133.29 241.68 135.55 242.51 C 134.65 242.42 133.76 242.35 132.88 242.29 C 132.46 242.90 131.63 244.11 131.21 244.72 C 129.78 244.64 128.34 244.56 126.91 244.49 C 125.14 242.30 123.61 239.85 123.03 237.06 C 120.08 225.20 120.46 212.68 116.43 201.06 C 114.72 195.16 111.16 189.27 105.32 186.75 C 102.33 185.20 98.89 185.64 95.67 185.25 Z" />
<path fill="#fbeb53" opacity="1.00" d=" M 224.70 282.91 C 228.79 280.74 233.58 281.59 238.00 280.79 C 244.19 280.85 250.77 281.20 256.06 284.81 C 261.72 287.53 265.97 293.62 265.53 300.03 C 265.20 305.74 266.31 311.62 264.64 317.20 C 263.22 322.75 260.32 327.79 257.00 332.41 C 256.09 331.61 255.19 330.81 254.29 330.02 C 257.64 323.90 259.85 317.01 259.57 309.98 C 259.44 306.34 259.77 302.68 259.39 299.05 C 257.44 291.36 250.31 286.30 242.93 284.43 C 237.57 282.71 231.89 283.87 226.39 283.39 C 225.97 283.27 225.12 283.03 224.70 282.91 Z" />
</g>
<g id="#226d22ff">
<path fill="#226d22" opacity="1.00" d=" M 99.87 37.43 C 101.39 37.81 102.91 38.19 104.44 38.54 C 104.61 39.13 104.94 40.32 105.11 40.91 C 103.04 40.25 99.63 40.53 99.87 37.43 Z" />
</g>
<g id="#026e3aff">
<path fill="#026e3a" opacity="1.00" d=" M 111.68 38.72 C 115.32 39.04 119.74 38.48 122.46 41.46 C 124.41 43.32 123.41 46.25 123.50 48.62 C 120.62 52.92 115.30 52.91 110.68 52.80 C 111.15 48.14 109.58 43.08 111.68 38.72 Z" />
<path fill="#026e3a" opacity="1.00" d=" M 271.45 39.38 C 277.77 37.62 286.16 39.94 288.18 46.86 C 290.17 53.95 290.16 62.53 285.59 68.68 C 281.84 72.13 276.54 72.11 271.77 72.35 C 270.84 61.40 271.45 50.36 271.45 39.38 Z" />
<path fill="#026e3a" opacity="1.00" d=" M 123.45 106.33 C 127.50 106.58 132.17 105.76 135.59 108.48 C 140.20 111.70 139.39 120.19 133.90 122.08 C 130.61 123.14 127.05 122.88 123.69 122.28 C 123.37 116.97 123.57 111.64 123.45 106.33 Z" />
</g>
<g id="#fbe543ff">
<path fill="#fbe543" opacity="1.00" d=" M 173.42 39.21 C 173.54 38.08 174.64 37.87 175.49 37.47 C 175.03 49.34 174.82 61.26 175.52 73.13 C 173.77 72.89 172.02 72.63 170.25 72.52 C 170.52 72.04 171.05 71.07 171.31 70.59 C 173.44 67.09 172.07 62.84 172.33 58.99 C 172.65 52.41 171.41 45.60 173.42 39.21 Z" />
</g>
<g id="#438333ff">
<path fill="#438333" opacity="1.00" d=" M 212.59 37.95 L 213.71 37.92 C 214.97 38.08 216.23 38.27 217.49 38.50 C 218.83 44.91 217.95 51.49 218.19 57.98 C 217.92 62.55 218.95 67.30 217.45 71.72 C 216.59 60.97 217.90 50.08 216.84 39.32 C 215.40 38.90 213.98 38.47 212.59 37.95 Z" />
</g>
<g id="#036e3aff">
<path fill="#036e3a" opacity="1.00" d=" M 223.85 39.04 C 225.90 37.91 228.24 37.70 230.53 37.58 C 231.20 37.92 232.55 38.59 233.22 38.92 C 233.44 39.40 233.86 40.34 234.07 40.82 C 233.68 50.81 233.84 60.83 233.89 70.83 C 232.89 73.63 229.47 73.39 227.05 73.19 C 226.03 72.90 224.38 73.08 224.12 71.73 C 225.61 66.60 224.74 61.22 224.97 55.96 C 224.75 50.33 225.73 44.49 223.85 39.04 Z" />
<path fill="#036e3a" opacity="1.00" d=" M 123.46 91.04 C 125.28 89.15 127.92 89.54 130.29 89.63 C 135.80 89.97 138.35 96.95 135.23 101.17 C 132.45 104.30 127.74 104.23 123.90 104.12 C 122.89 99.97 123.85 95.36 123.46 91.04 Z" />
<path fill="#036e3a" opacity="1.00" d=" M 160.57 89.74 C 164.78 88.48 170.19 88.95 172.28 93.41 C 175.43 100.84 174.59 109.32 173.28 117.09 C 172.12 120.61 168.97 123.81 165.01 123.50 C 161.62 123.97 158.32 121.70 157.09 118.61 C 154.68 113.39 155.51 107.52 155.41 101.97 C 155.42 97.50 156.53 92.30 160.57 89.74 Z" />
<path fill="#036e3a" opacity="1.00" d=" M 88.61 90.82 C 93.05 87.29 103.22 90.78 101.44 97.62 C 100.47 103.67 93.26 103.79 88.48 103.65 C 88.55 99.37 88.34 95.09 88.61 90.82 Z" />
</g>
<g id="#faf14aff">
<path fill="#faf14a" opacity="1.00" d=" M 236.68 38.37 C 237.25 38.28 237.83 38.18 238.41 38.09 C 236.26 43.41 236.11 49.89 239.11 54.92 C 238.72 55.25 237.94 55.91 237.55 56.24 C 237.60 61.90 237.28 67.65 238.77 73.19 C 238.10 73.21 236.75 73.26 236.08 73.29 C 235.35 72.46 234.62 71.65 233.89 70.83 C 233.84 60.83 233.68 50.81 234.07 40.82 C 234.36 41.15 234.94 41.80 235.23 42.13 C 235.71 40.88 236.19 39.63 236.68 38.37 Z" />
</g>
<g id="#2f7627ff">
<path fill="#2f7627" opacity="1.00" d=" M 79.33 39.26 C 84.15 38.81 91.68 36.84 94.24 42.33 L 94.34 43.27 C 90.58 38.73 84.51 39.92 79.33 39.26 Z" />
</g>
<g id="#03713bff">
<path fill="#03713b" opacity="1.00" d=" M 178.32 39.93 C 180.18 39.63 182.25 38.68 184.02 39.77 C 187.06 41.30 186.01 45.18 186.28 47.94 C 186.56 56.25 185.93 64.53 185.74 72.82 L 185.74 72.88 C 183.05 73.37 180.32 73.31 177.65 72.74 L 177.74 72.10 C 179.07 61.44 177.91 50.65 178.32 39.93 Z" />
</g>
<g id="#d2e885ff">
<path fill="#d2e885" opacity="1.00" d=" M 40.34 42.07 C 39.87 40.45 40.46 39.72 42.11 39.89 C 41.98 41.01 41.39 41.73 40.34 42.07 Z" />
</g>
<g id="#0f5811ff">
<path fill="#0f5811" opacity="1.00" d=" M 223.85 39.04 C 225.73 44.49 224.75 50.33 224.97 55.96 C 224.74 61.22 225.61 66.60 224.12 71.73 C 222.94 67.93 223.63 63.91 223.49 60.01 C 223.68 53.02 223.04 45.99 223.85 39.04 Z" />
</g>
<g id="#faf158ff">
<path fill="#faf158" opacity="1.00" d=" M 91.86 48.75 C 92.27 48.72 93.08 48.65 93.49 48.62 C 93.10 52.68 94.45 57.20 92.86 60.99 C 92.28 59.59 91.74 58.18 91.24 56.76 C 87.49 55.06 83.33 55.89 79.37 55.49 C 79.17 60.17 79.48 64.87 79.11 69.55 C 76.36 64.57 78.14 58.71 78.58 53.39 C 82.89 53.08 87.69 54.58 91.59 52.20 C 91.68 51.05 91.77 49.90 91.86 48.75 Z" />
</g>
<g id="#d6db66ff">
<path fill="#d6db66" opacity="1.00" d=" M 205.79 49.20 C 206.19 49.18 206.99 49.14 207.38 49.12 C 207.35 52.90 207.40 56.68 207.40 60.46 C 206.95 60.47 206.05 60.48 205.60 60.49 C 205.50 59.55 205.44 58.61 205.43 57.67 C 205.60 56.50 205.76 55.32 205.93 54.14 C 205.55 53.91 204.79 53.44 204.41 53.20 C 204.97 51.90 205.43 50.57 205.79 49.20 Z" />
<path fill="#d6db66" opacity="1.00" d=" M 220.57 91.53 C 221.83 95.91 221.35 100.49 221.37 104.98 C 221.22 111.39 221.91 117.86 220.65 124.20 C 222.85 124.21 225.05 124.02 227.21 123.58 L 228.24 123.41 L 229.40 124.48 L 229.73 125.29 C 222.14 125.29 214.51 125.68 206.94 125.18 C 206.65 125.00 206.09 124.65 205.80 124.47 C 208.02 124.12 210.25 123.76 212.49 123.51 C 214.57 123.60 216.68 123.87 218.76 123.53 C 220.62 122.40 220.48 119.89 220.56 117.99 C 220.59 109.17 220.52 100.35 220.57 91.53 Z" />
</g>
<g id="#93c665ff">
<path fill="#93c665" opacity="1.00" d=" M 95.21 68.08 C 94.58 66.59 96.27 66.39 97.33 66.43 C 97.31 69.04 97.18 71.67 96.57 74.22 C 96.17 72.17 95.69 70.12 95.21 68.08 Z" />
<path fill="#93c665" opacity="1.00" d=" M 239.41 514.19 C 241.03 514.25 242.64 514.42 244.23 514.78 C 244.26 515.97 244.30 517.16 244.36 518.37 C 242.83 518.51 241.26 518.64 240.00 519.62 C 239.44 518.90 238.34 517.46 237.79 516.74 C 237.73 517.45 237.61 518.86 237.55 519.57 C 230.94 519.37 224.33 519.55 217.72 519.39 C 224.06 519.02 230.42 519.53 236.75 518.98 C 236.75 518.47 236.74 517.46 236.74 516.96 C 238.17 516.65 239.06 515.73 239.41 514.19 Z" />
</g>
<g id="#0c6120ff">
<path fill="#0c6120" opacity="1.00" d=" M 156.84 73.96 L 157.02 73.91 C 156.92 74.39 156.73 75.35 156.64 75.82 C 150.70 76.56 144.66 75.52 138.66 75.88 L 139.72 74.68 C 145.40 73.94 151.27 75.41 156.84 73.96 Z" />
</g>
<g id="#066120ff">
<path fill="#066120" opacity="1.00" d=" M 68.96 74.64 C 78.06 74.38 87.17 74.46 96.27 74.53 L 95.58 75.49 C 89.10 76.45 82.50 75.50 75.97 75.83 C 73.33 75.94 70.64 76.44 68.05 75.67 L 68.96 74.64 Z" />
</g>
<g id="#056021ff">
<path fill="#056021" opacity="1.00" d=" M 167.04 74.59 C 177.29 74.40 187.55 74.63 197.80 74.49 L 197.91 75.90 C 187.59 75.77 177.28 75.81 166.97 75.95 L 167.04 74.59 Z" />
</g>
<g id="#fbf363ff">
<path fill="#fbf363" opacity="1.00" d=" M 245.19 87.57 C 245.29 87.36 245.49 86.95 245.59 86.75 C 249.97 86.28 254.33 87.01 258.66 87.56 C 259.48 90.21 259.40 93.00 259.36 95.74 C 256.93 95.63 257.43 92.47 255.61 91.44 C 253.17 88.42 249.05 89.47 245.70 89.19 C 245.57 88.78 245.32 87.97 245.19 87.57 Z" />
</g>
<g id="#f7f367ff">
<path fill="#f7f367" opacity="1.00" d=" M 263.54 87.44 C 273.77 87.31 284.02 87.10 294.24 87.56 C 294.25 89.91 294.32 92.25 294.45 94.60 C 294.05 94.67 293.25 94.82 292.85 94.89 C 292.58 92.16 290.59 90.29 288.03 89.63 C 285.87 89.59 283.72 89.51 281.57 89.45 C 281.60 100.39 281.45 111.34 281.67 122.28 C 281.27 122.08 280.47 121.66 280.08 121.45 C 279.08 115.34 279.98 109.13 279.67 102.98 C 279.28 97.98 280.56 93.09 280.82 88.13 C 279.64 88.42 278.46 88.72 277.28 89.03 C 278.08 91.97 278.57 95.00 278.34 98.05 C 277.91 105.30 278.43 112.56 278.11 119.81 C 277.66 120.26 276.78 121.17 276.34 121.62 C 276.20 110.94 276.34 100.25 276.29 89.57 C 273.12 89.50 269.85 89.35 266.87 90.63 C 265.66 92.06 265.76 95.32 263.23 94.75 L 263.36 93.52 C 263.54 91.85 263.62 90.17 263.56 88.49 L 263.54 87.44 Z" />
</g>
<g id="#e8f077ff">
<path fill="#e8f077" opacity="1.00" d=" M 123.01 87.97 C 125.72 87.53 128.48 87.54 131.11 88.41 L 130.29 89.63 C 127.92 89.54 125.28 89.15 123.46 91.04 C 123.35 90.27 123.13 88.74 123.01 87.97 Z" />
</g>
<g id="#fbeb4bff">
<path fill="#fbeb4b" opacity="1.00" d=" M 238.39 90.41 C 240.14 88.76 242.71 86.87 245.19 87.57 C 245.32 87.97 245.57 88.78 245.70 89.19 C 244.12 90.01 242.75 91.15 241.46 92.37 C 241.37 94.43 240.59 97.03 242.45 98.58 C 244.14 100.70 247.11 101.12 248.93 103.02 C 249.40 103.22 250.34 103.64 250.81 103.84 C 254.74 104.66 258.66 107.65 260.59 111.31 C 260.61 111.36 260.66 111.47 260.68 111.53 C 262.16 115.00 261.08 118.81 259.06 121.80 L 258.15 121.91 C 256.80 122.08 255.45 122.25 254.10 122.43 C 254.41 121.33 254.72 120.23 255.01 119.13 C 255.89 116.40 255.62 112.84 252.97 111.19 C 247.76 107.19 240.16 106.14 236.62 100.18 C 236.27 96.94 235.51 92.76 238.39 90.41 Z" />
<path fill="#fbeb4b" opacity="1.00" d=" M 281.62 260.40 C 283.81 258.89 285.92 257.23 288.38 256.16 C 285.93 260.76 285.50 266.21 282.48 270.53 C 281.17 272.72 279.14 274.29 277.15 275.81 C 276.68 275.71 275.73 275.51 275.26 275.41 C 278.36 270.85 279.94 265.59 281.62 260.40 Z" />
</g>
<g id="#085c1aff">
<path fill="#085c1a" opacity="1.00" d=" M 263.36 93.52 C 261.61 93.12 261.39 88.53 263.56 88.49 C 263.62 90.17 263.54 91.85 263.36 93.52 Z" />
</g>
<g id="#fbe83aff">
<path fill="#fbe83a" opacity="1.00" d=" M 277.28 89.03 C 278.46 88.72 279.64 88.42 280.82 88.13 C 280.56 93.09 279.28 97.98 279.67 102.98 C 279.98 109.13 279.08 115.34 280.08 121.45 C 280.47 121.66 281.27 122.08 281.67 122.28 C 282.03 122.57 282.75 123.16 283.11 123.45 C 281.36 123.64 279.62 123.96 277.89 124.25 C 277.12 123.64 276.35 123.03 275.59 122.42 L 276.34 121.62 C 276.78 121.17 277.66 120.26 278.11 119.81 C 278.43 112.56 277.91 105.30 278.34 98.05 C 278.57 95.00 278.08 91.97 277.28 89.03 Z" />
</g>
<g id="#036c34ff">
<path fill="#036c34" opacity="1.00" d=" M 192.74 89.66 C 196.73 89.32 201.53 89.30 204.21 92.82 C 206.42 95.27 205.24 99.08 203.16 101.20 C 200.13 103.72 195.86 103.84 192.12 103.42 C 192.46 98.84 191.76 94.19 192.74 89.66 Z" />
<path fill="#036c34" opacity="1.00" d=" M 56.78 94.19 C 57.11 94.30 57.76 94.52 58.09 94.63 C 59.50 100.04 61.98 105.07 63.76 110.35 C 59.49 110.49 55.22 110.41 50.96 110.47 C 52.13 104.80 55.14 99.73 56.78 94.19 Z" />
</g>
<g id="#19641eff">
<path fill="#19641e" opacity="1.00" d=" M 218.17 88.59 C 219.23 89.33 220.44 90.11 220.57 91.53 C 220.52 100.35 220.59 109.17 220.56 117.99 C 220.48 119.89 220.62 122.40 218.76 123.53 C 216.68 123.87 214.57 123.60 212.49 123.51 C 212.06 123.07 211.20 122.18 210.77 121.74 C 213.10 121.71 216.75 124.08 218.06 121.09 C 219.81 117.65 218.71 113.62 218.92 109.93 C 218.54 102.80 219.92 95.61 218.17 88.59 Z" />
</g>
<g id="#beda78ff">
<path fill="#beda78" opacity="1.00" d=" M 248.93 103.02 L 249.70 102.54 L 250.66 102.97 L 250.81 103.84 C 250.34 103.64 249.40 103.22 248.93 103.02 Z" />
</g>
<g id="#e2e970ff">
<path fill="#e2e970" opacity="1.00" d=" M 192.04 120.56 C 190.27 116.20 190.26 110.99 192.14 106.68 C 192.26 111.31 192.37 115.94 192.04 120.56 Z" />
</g>
<g id="#89b495ff">
<path fill="#89b495" opacity="1.00" d=" M 260.59 111.31 C 260.61 111.36 260.66 111.47 260.68 111.53 C 260.66 111.47 260.61 111.36 260.59 111.31 Z" />
</g>
<g id="#fbf35bff">
<path fill="#fbf35b" opacity="1.00" d=" M 235.71 116.15 C 238.30 117.47 238.50 121.18 241.48 122.12 C 244.31 123.63 247.65 123.79 250.66 122.71 C 252.42 121.97 253.64 120.40 255.01 119.13 C 254.72 120.23 254.41 121.33 254.10 122.43 C 255.45 122.25 256.80 122.08 258.15 121.91 C 253.26 127.11 245.33 125.57 238.94 125.34 C 233.99 125.60 236.04 119.17 235.71 116.15 Z" />
</g>
<g id="#4c7f21ff">
<path fill="#4c7f21" opacity="1.00" d=" M 241.48 122.12 C 244.55 121.81 247.62 122.23 250.66 122.71 C 247.65 123.79 244.31 123.63 241.48 122.12 Z" />
</g>
<g id="#63b685ff">
<path fill="#63b685" opacity="1.00" d=" M 65.04 125.28 C 63.43 125.21 63.33 124.78 64.74 123.97 L 65.41 124.50 L 65.04 125.28 Z" />
</g>
<g id="#95c8abff">
<path fill="#95c8ab" opacity="1.00" d=" M 229.40 124.48 C 230.59 122.19 231.92 126.52 229.73 125.29 L 229.40 124.48 Z" />
</g>
<g id="#eaf185ff">
<path fill="#eaf185" opacity="1.00" d=" M 269.40 140.69 C 271.06 140.64 272.13 142.24 271.66 143.79 C 271.19 143.56 270.26 143.10 269.79 142.87 C 269.69 142.33 269.50 141.24 269.40 140.69 Z" />
</g>
<g id="#fbe84bff">
<path fill="#fbe84b" opacity="1.00" d=" M 189.33 146.53 C 193.28 146.37 197.96 145.88 201.01 148.96 C 204.68 152.66 203.51 158.36 203.45 163.04 C 201.52 172.84 192.67 180.23 192.25 190.47 C 193.36 191.37 194.47 192.29 195.58 193.21 C 193.70 194.30 191.83 195.42 189.99 196.59 C 187.54 194.97 185.37 192.17 186.61 189.09 C 190.13 179.77 197.23 171.63 197.98 161.36 C 198.42 158.53 197.21 155.86 196.45 153.20 C 196.34 152.61 196.13 151.44 196.02 150.85 C 193.73 149.57 190.22 149.38 189.33 146.53 Z" />
<path fill="#fbe84b" opacity="1.00" d=" M 36.46 290.78 C 40.35 288.47 45.20 287.65 49.46 289.45 C 54.78 291.99 59.83 295.06 64.88 298.10 C 67.19 299.57 70.66 298.87 72.15 301.53 L 72.53 301.99 C 64.74 304.42 57.34 299.78 50.94 295.90 C 46.60 293.01 41.67 291.18 36.46 290.78 Z" />
</g>
<g id="#1b6116ff">
<path fill="#1b6116" opacity="1.00" d=" M 225.12 147.84 C 226.44 146.45 228.98 146.96 229.93 148.56 C 228.49 149.34 225.95 149.57 225.12 147.84 Z" />
</g>
<g id="#fbeb62ff">
<path fill="#fbeb62" opacity="1.00" d=" M 241.18 185.30 C 245.19 179.73 248.06 173.43 250.26 166.95 C 250.65 170.67 250.57 174.46 249.21 178.00 C 242.02 192.90 230.18 204.94 218.00 215.88 C 203.85 227.74 191.10 241.11 178.52 254.58 C 167.05 267.19 155.94 280.19 146.32 294.30 C 138.27 305.71 130.62 317.39 123.17 329.20 C 114.33 345.53 104.39 361.32 92.93 375.96 C 85.81 384.66 78.23 393.50 68.17 398.87 C 69.11 396.98 70.49 395.33 72.14 394.02 C 76.77 390.75 80.44 386.41 84.30 382.32 C 93.36 371.51 101.45 359.91 108.89 347.93 C 122.35 324.52 136.74 301.64 153.14 280.17 C 161.31 269.12 170.92 259.27 180.02 249.01 C 190.87 237.85 201.43 226.32 213.58 216.54 C 217.15 212.81 221.41 209.83 224.93 206.03 C 229.01 201.76 233.86 197.88 236.11 192.23 C 237.52 189.72 239.60 187.69 241.18 185.30 Z" />
<path fill="#fbeb62" opacity="1.00" d=" M 242.09 343.39 C 246.71 339.45 251.06 335.21 254.29 330.02 C 255.19 330.81 256.09 331.61 257.00 332.41 C 253.11 337.26 248.47 342.16 242.09 343.39 Z" />
</g>
<g id="#fbf5e2ff">
<path fill="#fbf5e2" opacity="1.00" d=" M 224.19 204.23 C 228.49 200.55 231.92 196.02 236.11 192.23 C 233.86 197.88 229.01 201.76 224.93 206.03 C 221.41 209.83 217.15 212.81 213.58 216.54 C 201.43 226.32 190.87 237.85 180.02 249.01 C 170.92 259.27 161.31 269.12 153.14 280.17 C 136.74 301.64 122.35 324.52 108.89 347.93 C 101.45 359.91 93.36 371.51 84.30 382.32 C 80.44 386.41 76.77 390.75 72.14 394.02 C 87.91 376.05 102.12 356.73 114.01 335.98 C 124.48 319.18 133.92 301.69 145.76 285.79 C 156.97 270.77 168.48 255.93 181.06 242.03 C 194.06 227.89 210.35 217.44 224.19 204.23 Z" />
<path fill="#fbf5e2" opacity="1.00" d=" M 161.64 237.04 C 162.27 224.07 160.35 210.62 164.54 198.08 C 164.41 204.39 163.53 210.67 163.78 217.00 C 164.23 222.98 161.84 228.74 162.62 234.73 C 162.93 238.08 160.70 240.78 159.73 243.83 C 159.63 241.35 161.76 239.51 161.64 237.04 Z" />
</g>
<g id="#fbfae2ff">
<path fill="#fbfae2" opacity="1.00" d=" M 99.62 249.99 C 99.80 237.66 99.88 225.30 98.84 213.03 C 99.10 214.35 99.35 215.67 99.64 216.99 C 99.79 217.24 100.08 217.74 100.22 217.99 C 101.00 221.02 101.45 224.12 101.74 227.23 C 101.21 237.49 101.09 247.83 101.98 258.08 C 102.53 262.45 103.11 267.08 105.71 270.78 L 105.72 270.83 C 106.04 274.81 107.57 278.61 107.54 282.64 C 104.02 272.04 98.87 261.44 99.62 249.99 Z" />
<path fill="#fbfae2" opacity="1.00" d=" M 35.82 315.78 C 37.46 317.36 38.26 319.54 39.32 321.51 C 42.52 327.89 46.91 333.67 49.26 340.46 C 49.84 342.68 50.24 345.59 48.23 347.23 C 44.78 350.53 39.98 351.68 35.77 353.70 C 35.86 341.06 35.77 328.42 35.82 315.78 Z" />
</g>
<g id="#347a28ff">
<path fill="#347a28" opacity="1.00" d=" M 100.22 217.99 C 102.21 218.44 102.07 220.84 102.45 222.41 C 102.71 226.03 103.53 229.69 102.92 233.31 C 102.57 231.28 102.12 229.26 101.74 227.23 C 101.45 224.12 101.00 221.02 100.22 217.99 Z" />
<path fill="#347a28" opacity="1.00" d=" M 146.99 437.21 C 154.13 434.42 161.79 432.81 169.47 433.81 C 171.24 434.18 172.60 435.42 173.23 437.10 C 163.63 433.93 152.01 434.22 144.04 441.11 C 144.56 439.51 145.38 437.92 146.99 437.21 Z" />
</g>
<g id="#fbe853ff">
<path fill="#fbe853" opacity="1.00" d=" M 233.38 232.24 C 234.31 229.14 235.70 226.19 237.87 223.77 C 238.07 225.30 238.26 226.83 238.46 228.36 C 238.31 232.27 242.77 233.67 245.91 234.12 C 255.16 235.10 264.05 231.55 273.04 229.97 C 280.20 228.37 288.66 227.13 294.79 232.17 C 294.83 239.34 294.69 246.51 294.83 253.69 C 292.80 254.70 290.67 255.51 288.46 255.99 C 291.68 253.19 292.87 249.11 293.19 244.98 C 292.55 241.88 292.51 238.28 290.05 235.95 C 286.49 232.13 280.94 230.88 275.90 231.41 C 263.22 232.64 250.96 238.08 238.05 236.53 C 235.93 236.18 234.54 234.41 233.12 232.99 L 233.38 232.24 Z" />
</g>
<g id="#fbfadbff">
<path fill="#fbfadb" opacity="1.00" d=" M 262.97 250.75 C 264.88 249.67 266.99 249.02 269.23 249.36 C 262.37 252.23 255.54 255.57 248.06 256.43 C 244.00 256.61 239.93 257.01 235.88 256.72 C 233.48 256.24 231.17 255.37 228.74 255.02 L 228.70 254.67 C 228.59 253.92 228.38 252.41 228.28 251.65 C 233.48 252.71 238.79 252.21 244.06 252.30 C 249.04 252.19 254.04 252.87 259.02 252.24 C 260.31 251.67 261.66 251.28 262.97 250.75 Z" />
</g>
<g id="#f3f9f5ff">
<path fill="#f3f9f5" opacity="1.00" d=" M 193.35 255.65 C 199.19 253.73 204.72 250.29 211.06 250.27 C 216.81 249.47 222.72 250.03 228.28 251.65 C 228.38 252.41 228.59 253.92 228.70 254.67 C 219.88 252.63 210.78 252.57 201.85 253.79 C 199.03 254.64 196.34 255.93 193.41 256.45 C 193.40 256.25 193.37 255.85 193.35 255.65 Z" />
<path fill="#f3f9f5" opacity="1.00" d=" M 60.03 323.96 C 69.84 336.25 74.03 352.24 74.63 367.73 C 72.98 366.39 74.13 363.80 73.52 361.97 C 70.82 348.75 66.18 335.95 60.03 323.96 Z" />
</g>
<g id="#20661bff">
<path fill="#20661b" opacity="1.00" d=" M 104.39 262.95 C 107.48 263.30 107.56 267.66 105.68 269.46 C 105.33 267.27 104.81 265.12 104.39 262.95 Z" />
</g>
<g id="#fbe858ff">
<path fill="#fbe858" opacity="1.00" d=" M 201.53 279.95 C 203.17 278.49 204.99 277.14 207.28 277.12 C 207.68 278.88 207.86 280.74 208.66 282.40 C 210.05 284.04 211.97 285.09 213.70 286.34 C 211.90 287.19 209.97 287.82 207.96 287.70 C 205.21 287.93 203.55 285.33 201.55 283.92 C 201.54 282.59 201.54 281.27 201.53 279.95 Z" />
</g>
<g id="#2e711eff">
<path fill="#2e711e" opacity="1.00" d=" M 169.53 335.51 C 170.95 335.42 172.36 335.34 173.78 335.26 C 172.86 335.92 171.96 336.61 171.07 337.31 C 170.65 337.64 169.80 338.30 169.37 338.64 C 169.41 337.86 169.49 336.29 169.53 335.51 Z" />
</g>
<g id="#fbeb4dff">
<path fill="#fbeb4d" opacity="1.00" d=" M 169.37 338.64 C 169.80 338.30 170.65 337.64 171.07 337.31 L 173.29 337.12 C 172.39 339.44 171.12 341.60 169.83 343.72 C 168.04 346.43 168.39 349.90 168.86 352.95 C 171.78 357.88 175.36 362.47 179.55 366.40 C 187.03 373.23 187.37 385.59 181.70 393.65 C 179.56 397.26 175.84 399.54 173.70 403.14 C 173.30 402.89 172.51 402.40 172.11 402.16 C 170.74 402.75 169.38 403.36 167.99 403.92 C 174.53 399.96 178.76 392.54 179.64 385.04 C 180.63 377.35 175.83 370.54 170.54 365.52 C 166.25 361.47 162.18 356.25 162.70 349.99 C 163.81 345.68 166.05 341.64 169.37 338.64 Z" />
</g>
<g id="#d7e7c5ff">
<path fill="#d7e7c5" opacity="1.00" d=" M 113.93 363.41 C 118.10 362.11 121.86 359.64 126.24 358.98 C 132.29 358.35 138.48 358.72 144.26 360.74 C 146.09 361.50 148.02 361.96 149.95 362.41 C 146.63 362.54 143.35 362.02 140.07 361.58 C 133.04 361.07 125.89 361.18 119.00 362.82 C 117.34 363.25 115.63 363.35 113.93 363.41 Z" />
<path fill="#d7e7c5" opacity="1.00" d=" M 335.62 544.13 C 335.48 542.97 335.35 541.83 335.20 540.69 C 335.09 543.94 338.64 542.40 340.55 542.85 C 340.70 547.15 340.66 551.44 340.58 555.74 C 341.31 555.75 342.76 555.77 343.48 555.78 C 343.39 551.46 343.40 547.15 343.49 542.84 C 345.42 542.43 348.88 543.99 348.88 540.70 C 348.70 541.81 348.48 542.92 348.26 544.04 C 346.81 544.06 345.36 544.10 343.92 544.15 C 343.62 548.41 343.63 552.69 343.88 556.95 C 342.65 556.92 341.43 556.89 340.20 556.87 C 340.43 552.63 340.44 548.39 340.22 544.16 C 338.69 544.14 337.15 544.13 335.62 544.13 Z" />
</g>
<g id="#fbf9e2ff">
<path fill="#fbf9e2" opacity="1.00" d=" M 35.65 376.01 C 37.34 376.43 37.74 378.25 38.50 379.57 C 42.08 387.05 46.14 394.55 47.13 402.91 C 47.86 406.94 46.75 411.03 45.15 414.72 C 43.21 414.54 40.99 415.05 39.35 413.72 C 36.79 412.12 35.59 408.93 35.77 406.01 C 35.76 396.01 35.96 386.01 35.65 376.01 Z" />
</g>
<g id="#fbeb5aff">
<path fill="#fbeb5a" opacity="1.00" d=" M 197.43 433.27 C 205.63 433.50 213.85 433.03 222.04 433.52 C 225.86 456.94 230.51 480.24 234.71 503.61 C 235.42 508.05 236.60 512.44 236.74 516.96 C 236.74 517.46 236.75 518.47 236.75 518.98 C 230.42 519.53 224.06 519.02 217.72 519.39 C 217.27 514.12 215.96 508.98 215.26 503.74 C 213.37 503.70 211.49 503.64 209.61 503.56 C 209.50 501.66 209.38 499.76 209.28 497.87 L 208.68 497.04 C 208.65 495.01 208.48 492.96 208.77 490.95 C 210.27 488.29 212.39 486.05 214.57 483.96 C 213.03 482.24 213.22 479.98 213.48 477.86 C 216.07 475.86 218.37 473.40 221.57 472.38 C 220.90 469.71 221.75 467.14 222.82 464.71 C 221.19 464.68 219.58 464.52 217.98 464.25 C 216.56 465.39 215.10 466.55 213.28 466.99 C 213.61 464.76 214.15 462.56 214.76 460.40 C 216.16 459.12 217.85 457.88 217.65 455.74 C 216.82 455.59 215.16 455.29 214.33 455.13 C 214.44 453.52 214.82 451.91 214.59 450.30 C 213.18 448.46 211.95 446.49 211.18 444.30 C 210.78 444.32 209.98 444.35 209.57 444.37 C 209.45 446.20 209.42 448.09 208.69 449.82 C 207.86 449.74 206.19 449.59 205.36 449.51 C 205.95 451.81 206.92 454.08 206.51 456.52 C 204.43 456.09 202.62 454.97 200.79 453.98 C 200.97 455.78 200.64 457.52 199.39 458.90 C 200.81 462.33 204.22 465.26 203.47 469.27 C 202.52 469.31 201.57 469.36 200.63 469.41 C 199.77 468.70 198.91 468.00 198.05 467.30 C 196.33 468.57 194.16 468.55 192.14 468.72 C 193.28 469.76 194.42 470.81 195.55 471.89 C 195.55 472.96 195.56 474.04 195.60 475.13 C 199.60 475.34 202.40 478.57 205.65 480.51 C 205.57 481.48 205.49 482.45 205.42 483.43 C 204.66 483.51 203.16 483.66 202.41 483.73 C 201.73 486.84 205.43 488.15 205.95 490.96 C 208.22 494.85 206.64 499.60 208.76 503.49 C 206.38 503.75 203.99 503.82 201.61 503.68 C 199.81 508.75 199.79 514.28 198.41 519.49 C 192.00 519.28 185.57 519.35 179.16 519.42 C 179.40 516.88 179.78 514.36 180.42 511.89 C 186.25 485.72 191.35 459.38 197.43 433.27 Z" />
</g>
<g id="#ebef7aff">
<path fill="#ebef7a" opacity="1.00" d=" M 106.40 439.70 C 103.55 440.27 104.96 434.47 106.85 436.86 C 106.87 437.41 106.91 438.52 106.93 439.07 L 106.40 439.70 Z" />
</g>
<g id="#09653aff">
<path fill="#09653a" opacity="1.00" d=" M 335.20 540.69 C 339.75 540.58 344.32 540.58 348.88 540.70 C 348.88 543.99 345.42 542.43 343.49 542.84 C 343.40 547.15 343.39 551.46 343.48 555.78 C 342.76 555.77 341.31 555.75 340.58 555.74 C 340.66 551.44 340.70 547.15 340.55 542.85 C 338.64 542.40 335.09 543.94 335.20 540.69 Z" />
<path fill="#09653a" opacity="1.00" d=" M 349.85 540.61 C 351.28 540.63 352.71 540.66 354.15 540.70 C 355.10 544.17 356.33 547.58 357.02 551.13 C 357.32 551.28 357.92 551.58 358.23 551.73 C 359.12 547.94 360.00 544.10 361.64 540.55 C 362.59 540.55 364.49 540.54 365.44 540.54 C 365.19 545.58 365.32 550.64 365.37 555.69 C 364.80 555.68 363.68 555.65 363.11 555.64 C 362.84 551.94 363.51 548.15 362.29 544.56 C 361.22 547.48 360.32 550.46 359.73 553.52 C 359.63 554.00 359.44 554.97 359.34 555.46 C 358.71 555.72 357.45 556.26 356.81 556.52 C 355.16 552.71 354.55 548.45 352.59 544.81 C 352.31 548.29 352.77 551.80 352.49 555.29 C 352.09 555.69 351.30 556.50 350.90 556.90 C 350.06 555.74 349.70 554.46 349.81 553.05 C 349.81 548.90 349.83 544.75 349.85 540.61 Z" />
</g>
<g id="#a3c8b1ff">
<path fill="#a3c8b1" opacity="1.00" d=" M 365.44 540.54 C 366.13 541.21 366.44 542.02 366.35 542.99 C 366.37 547.46 366.29 551.93 366.26 556.40 C 364.95 556.50 363.65 556.60 362.35 556.70 C 362.19 554.30 362.01 551.91 361.90 549.53 C 361.37 550.95 360.63 552.28 359.73 553.52 C 360.32 550.46 361.22 547.48 362.29 544.56 C 363.51 548.15 362.84 551.94 363.11 555.64 C 363.68 555.65 364.80 555.68 365.37 555.69 C 365.32 550.64 365.19 545.58 365.44 540.54 Z" />
</g>
</svg>
