<?xml version="1.0" encoding="UTF-8" ?>
<!DOCTYPE svg PUBLIC "-//W3C//DTD SVG 1.1//EN" "http://www.w3.org/Graphics/SVG/1.1/DTD/svg11.dtd">
<svg width="23pt" height="21pt" viewBox="0 0 23 21" version="1.1" xmlns="http://www.w3.org/2000/svg">
<g id="#ffffffff">
</g>
<g id="#7ac144ff">
<path fill="#7ac144" opacity="1.00" d=" M 0.79 12.37 C -1.03 5.23 7.07 -1.31 13.80 1.13 C 18.53 2.53 21.40 7.35 21.09 12.17 C 21.57 12.31 22.52 12.59 23.00 12.73 L 23.00 13.67 C 18.31 18.97 7.30 19.32 4.90 11.68 C 3.89 12.09 2.94 12.59 2.03 13.19 C 3.12 16.99 7.01 19.91 11.00 19.52 C 13.62 19.71 15.74 17.78 18.30 17.55 C 15.97 19.85 12.79 20.83 9.58 21.00 L 9.58 21.00 C 5.55 19.94 1.72 17.22 0.77 12.95 C 2.26 11.58 4.16 10.76 6.17 10.52 C 9.70 10.54 12.61 12.97 16.13 13.12 C 12.53 11.93 9.62 8.77 5.52 9.45 C 7.21 7.90 9.51 6.55 11.88 7.16 C 15.01 7.61 17.00 10.40 19.76 11.67 C 20.78 4.92 12.75 -0.57 6.82 2.68 C 2.76 4.25 1.91 8.74 0.79 12.37 Z" />
</g>
</svg>
